<?xml version="1.0" encoding="utf-8"?>
<!-- Generator: Adobe Illustrator 16.0.0, SVG Export Plug-In . SVG Version: 6.00 Build 0)  -->
<!DOCTYPE svg PUBLIC "-//W3C//DTD SVG 1.1//EN" "http://www.w3.org/Graphics/SVG/1.1/DTD/svg11.dtd">
<svg version="1.1" id="Layer_1" xmlns="http://www.w3.org/2000/svg" xmlns:xlink="http://www.w3.org/1999/xlink" x="0px" y="0px"
	  viewBox="0 0 292.617 87.873" fill="#565656" enable-background="new 0 0 292.617 87.873"
	 xml:space="preserve">
<g>
	<defs>
		<rect id="SVGID_1_" y="0" width="292.617" height="87.873"/>
	</defs>
	<clipPath id="SVGID_2_">
		<use xlink:href="#SVGID_1_"  overflow="visible"/>
	</clipPath>
	<path clip-path="url(#SVGID_2_)" d="M292.617,75.23c0,7.797-5.727,12.643-13.517,12.643H14.112C6.319,87.873,0,81.549,0,73.753
		V14.115C0,6.321,6.319,0,14.112,0h264.988c7.79,0,13.517,6.322,13.517,14.116V75.23z"/>
	<path clip-path="url(#SVGID_2_)" fill="#FFFFFF" d="M57.413,44.144c-0.067-7.534,6.167-11.197,6.452-11.364
		c-3.53-5.152-9.001-5.852-10.926-5.907c-4.594-0.484-9.053,2.748-11.391,2.748c-2.39,0-5.994-2.702-9.877-2.625
		c-5,0.078-9.681,2.972-12.244,7.471c-5.295,9.163-1.345,22.63,3.726,30.039c2.536,3.631,5.502,7.682,9.383,7.539
		c3.798-0.156,5.215-2.422,9.796-2.422c4.539,0,5.87,2.422,9.829,2.326c4.072-0.061,6.639-3.645,9.088-7.304
		c2.932-4.151,4.108-8.256,4.154-8.468C65.311,56.15,57.496,53.165,57.413,44.144"/>
	<path clip-path="url(#SVGID_2_)" fill="#FFFFFF" d="M49.938,21.999c2.04-2.554,3.439-6.028,3.05-9.552
		c-2.955,0.129-6.652,2.044-8.78,4.543c-1.881,2.198-3.562,5.804-3.131,9.198C44.399,26.434,47.807,24.51,49.938,21.999"/>
	<path clip-path="url(#SVGID_2_)" fill="#FFFFFF" d="M112.401,71.521h-5.304l-2.907-9.133H94.089l-2.767,9.133h-5.167l10.01-31.091
		h6.182L112.401,71.521z M103.314,58.558l-2.629-8.118c-0.275-0.831-0.802-2.785-1.567-5.859h-0.094
		c-0.309,1.324-0.802,3.276-1.476,5.859l-2.584,8.118H103.314z"/>
	<path clip-path="url(#SVGID_2_)" fill="#FFFFFF" d="M138.096,60.038c0,3.812-1.034,6.825-3.108,9.037
		c-1.856,1.968-4.159,2.953-6.911,2.953c-2.969,0-5.106-1.058-6.403-3.181v11.766h-4.979V56.476c0-2.402-0.062-4.854-0.186-7.373
		h4.381l0.279,3.555h0.093c1.662-2.678,4.183-4.016,7.564-4.016c2.647,0,4.855,1.043,6.62,3.131
		C137.21,53.871,138.096,56.623,138.096,60.038 M133.022,60.218c0-2.181-0.49-3.982-1.478-5.4c-1.077-1.473-2.523-2.211-4.337-2.211
		c-1.226,0-2.343,0.412-3.341,1.224c-1,0.816-1.653,1.885-1.96,3.209c-0.154,0.615-0.232,1.115-0.232,1.515v3.74
		c0,1.627,0.501,3.004,1.499,4.131c0.999,1.123,2.297,1.68,3.898,1.68c1.876,0,3.335-0.723,4.38-2.168
		C132.499,64.496,133.022,62.585,133.022,60.218"/>
	<path clip-path="url(#SVGID_2_)" fill="#FFFFFF" d="M163.879,60.038c0,3.812-1.035,6.825-3.104,9.037
		c-1.857,1.968-4.163,2.953-6.915,2.953c-2.967,0-5.104-1.058-6.401-3.181v11.766h-4.98V56.476c0-2.402-0.063-4.854-0.183-7.373
		h4.381l0.275,3.555h0.095c1.657-2.678,4.179-4.016,7.566-4.016c2.642,0,4.85,1.043,6.618,3.131
		C162.992,53.871,163.879,56.623,163.879,60.038 M158.804,60.218c0-2.181-0.492-3.982-1.479-5.4
		c-1.074-1.473-2.519-2.211-4.332-2.211c-1.229,0-2.346,0.412-3.345,1.224c-1.001,0.816-1.651,1.885-1.96,3.209
		c-0.153,0.615-0.234,1.115-0.234,1.515v3.74c0,1.627,0.502,3.004,1.499,4.131c1.003,1.115,2.298,1.68,3.899,1.68
		c1.88,0,3.341-0.723,4.381-2.168C158.279,64.496,158.804,62.585,158.804,60.218"/>
	<path clip-path="url(#SVGID_2_)" fill="#FFFFFF" d="M192.709,62.8c0,2.649-0.924,4.797-2.763,6.461
		c-2.023,1.81-4.849,2.719-8.467,2.719c-3.349,0-6.029-0.643-8.054-1.936l1.151-4.151c2.184,1.294,4.585,1.94,7.197,1.94
		c1.878,0,3.338-0.426,4.379-1.271c1.046-0.843,1.571-1.975,1.571-3.388c0-1.261-0.435-2.319-1.291-3.181
		c-0.863-0.862-2.289-1.664-4.289-2.402c-5.446-2.027-8.167-5-8.167-8.904c0-2.551,0.959-4.639,2.881-6.268
		c1.92-1.633,4.465-2.448,7.635-2.448c2.829,0,5.186,0.493,7.058,1.477l-1.248,4.058c-1.764-0.955-3.752-1.432-5.976-1.432
		c-1.759,0-3.137,0.436-4.125,1.299c-0.825,0.763-1.248,1.7-1.248,2.812c0,1.228,0.481,2.247,1.432,3.042
		c0.831,0.738,2.335,1.541,4.52,2.402c2.676,1.078,4.644,2.332,5.902,3.777C192.076,58.853,192.709,60.652,192.709,62.8"/>
	<path clip-path="url(#SVGID_2_)" fill="#FFFFFF" d="M209.222,52.839h-5.492v10.887c0,2.77,0.969,4.15,2.903,4.15
		c0.893,0,1.629-0.076,2.215-0.23l0.139,3.78c-0.982,0.368-2.276,0.551-3.873,0.551c-1.966,0-3.505-0.603-4.616-1.803
		c-1.105-1.198-1.661-3.213-1.661-6.043v-11.3h-3.266v-3.738h3.266v-4.107l4.894-1.477v5.584h5.492V52.839z"/>
	<path clip-path="url(#SVGID_2_)" fill="#FFFFFF" d="M233.938,60.126c0,3.447-0.98,6.273-2.95,8.486
		c-2.059,2.277-4.795,3.415-8.209,3.415c-3.294,0-5.912-1.091-7.866-3.271c-1.953-2.187-2.929-4.937-2.929-8.258
		c0-3.473,1.008-6.319,3.02-8.533c2.015-2.211,4.728-3.317,8.142-3.317c3.292,0,5.931,1.091,7.934,3.273
		C232.989,54.042,233.938,56.774,233.938,60.126 M228.778,60.24c0-2.053-0.445-3.814-1.335-5.285
		c-1.044-1.781-2.538-2.674-4.478-2.674c-1.994,0-3.526,0.893-4.565,2.674c-0.896,1.471-1.336,3.264-1.336,5.381
		c0,2.052,0.44,3.822,1.336,5.289c1.077,1.783,2.58,2.674,4.526,2.674c1.903,0,3.396-0.913,4.479-2.715
		C228.315,64.075,228.778,62.3,228.778,60.24"/>
	<path clip-path="url(#SVGID_2_)" fill="#FFFFFF" d="M250.139,53.484c-0.494-0.092-1.02-0.139-1.57-0.139
		c-1.752,0-3.106,0.659-4.061,1.983c-0.831,1.173-1.242,2.646-1.242,4.431v11.762h-4.982V56.16c0-2.58-0.046-4.935-0.145-7.055
		h4.338l0.182,4.291h0.139c0.528-1.477,1.357-2.662,2.489-3.553c1.11-0.805,2.31-1.203,3.603-1.203c0.461,0,0.876,0.035,1.246,0.092
		L250.139,53.484z"/>
	<path clip-path="url(#SVGID_2_)" fill="#FFFFFF" d="M272.414,59.251c0,0.893-0.058,1.645-0.181,2.256h-14.941
		c0.054,2.219,0.779,3.91,2.168,5.08c1.258,1.045,2.886,1.568,4.886,1.568c2.213,0,4.23-0.352,6.044-1.062l0.782,3.458
		c-2.121,0.925-4.626,1.382-7.519,1.382c-3.475,0-6.204-1.021-8.188-3.061c-1.98-2.045-2.973-4.791-2.973-8.23
		c0-3.381,0.917-6.193,2.769-8.443c1.936-2.396,4.549-3.595,7.84-3.595c3.23,0,5.677,1.198,7.338,3.595
		C271.754,54.099,272.414,56.454,272.414,59.251 M267.665,57.958c0.035-1.477-0.292-2.75-0.968-3.828
		c-0.863-1.387-2.189-2.078-3.969-2.078c-1.628,0-2.953,0.672-3.964,2.028c-0.828,1.077-1.322,2.373-1.473,3.878H267.665z"/>
	<path clip-path="url(#SVGID_2_)" fill="#FFFFFF" d="M100.924,29.305h-2.602l-1.427-4.486h-4.965l-1.36,4.486h-2.537l4.919-15.273
		h3.036L100.924,29.305z M96.462,22.937l-1.291-3.991c-0.14-0.405-0.392-1.365-0.772-2.877h-0.045
		c-0.15,0.648-0.393,1.61-0.723,2.877l-1.269,3.991H96.462z"/>
	<path clip-path="url(#SVGID_2_)" fill="#FFFFFF" d="M113.208,18.29l-4.17,11.013h-2.381l-4.033-11.013h2.628l1.882,5.824
		c0.315,0.967,0.582,1.898,0.793,2.787h0.065c0.182-0.8,0.444-1.729,0.795-2.787l1.855-5.824H113.208z"/>
	<path clip-path="url(#SVGID_2_)" fill="#FFFFFF" d="M124.315,29.302h-2.2l-0.183-1.269h-0.067
		c-0.753,1.012-1.827,1.518-3.215,1.518c-1.043,0-1.883-0.335-2.52-0.995c-0.573-0.604-0.858-1.353-0.858-2.244
		c0-1.345,0.561-2.371,1.688-3.081c1.124-0.712,2.709-1.058,4.746-1.041v-0.209c0-1.447-0.762-2.174-2.287-2.174
		c-1.087,0-2.044,0.273-2.879,0.815l-0.496-1.607c1.024-0.632,2.288-0.951,3.784-0.951c2.887,0,4.328,1.52,4.328,4.557v4.056
		C124.156,27.776,124.208,28.653,124.315,29.302 M121.777,25.52v-1.701c-2.705-0.045-4.056,0.695-4.056,2.222
		c0,0.575,0.156,1.003,0.474,1.293c0.315,0.285,0.715,0.428,1.194,0.428c0.539,0,1.042-0.17,1.499-0.511
		c0.458-0.34,0.741-0.771,0.844-1.3L121.777,25.52z"/>
	<path clip-path="url(#SVGID_2_)" fill="#FFFFFF" d="M131.138,15.001c0,0.443-0.146,0.793-0.436,1.069
		c-0.285,0.272-0.655,0.405-1.11,0.405c-0.408,0-0.749-0.139-1.027-0.415c-0.279-0.279-0.422-0.632-0.422-1.055
		c0-0.425,0.147-0.772,0.432-1.041c0.287-0.273,0.641-0.409,1.067-0.409c0.421,0,0.775,0.136,1.063,0.409
		C130.992,14.233,131.138,14.581,131.138,15.001 M130.862,29.303h-2.446V18.29h2.446V29.303z"/>
	<rect x="135.214" y="13.238" clip-path="url(#SVGID_2_)" fill="#FFFFFF" width="2.445" height="16.065"/>
	<path clip-path="url(#SVGID_2_)" fill="#FFFFFF" d="M150.28,29.302h-2.199l-0.179-1.269h-0.062
		c-0.76,1.012-1.829,1.518-3.221,1.518c-1.041,0-1.88-0.335-2.516-0.995c-0.574-0.604-0.862-1.353-0.862-2.244
		c0-1.345,0.563-2.371,1.69-3.081c1.126-0.712,2.706-1.058,4.747-1.041v-0.209c0-1.447-0.762-2.174-2.287-2.174
		c-1.091,0-2.048,0.273-2.878,0.815l-0.5-1.607c1.026-0.632,2.287-0.951,3.783-0.951c2.887,0,4.328,1.52,4.328,4.557v4.056
		C150.121,27.776,150.178,28.653,150.28,29.302 M147.744,25.52v-1.701c-2.708-0.045-4.057,0.695-4.057,2.222
		c0,0.575,0.157,1.003,0.473,1.293c0.316,0.285,0.715,0.428,1.195,0.428c0.539,0,1.038-0.17,1.498-0.511
		c0.455-0.34,0.741-0.771,0.844-1.3L147.744,25.52z"/>
	<path clip-path="url(#SVGID_2_)" fill="#FFFFFF" d="M164.896,23.639c0,1.858-0.512,3.338-1.537,4.441
		c-0.908,0.981-2.015,1.473-3.334,1.473c-1.571,0-2.727-0.648-3.468-1.947h-0.044l-0.134,1.701h-2.088
		c0.056-0.89,0.087-1.882,0.087-2.969V13.239h2.449v6.66c0.727-1.223,1.903-1.836,3.532-1.836c1.337,0,2.428,0.51,3.27,1.532
		C164.478,20.611,164.896,21.964,164.896,23.639 M162.41,23.729c0-1.074-0.244-1.947-0.73-2.628c-0.53-0.74-1.248-1.113-2.155-1.113
		c-0.604,0-1.146,0.198-1.629,0.59c-0.483,0.393-0.807,0.912-0.971,1.565c-0.064,0.255-0.09,0.512-0.09,0.769v1.923
		c0,0.76,0.246,1.408,0.753,1.95c0.508,0.542,1.138,0.815,1.896,0.815c0.921,0,1.638-0.345,2.153-1.041
		C162.149,25.868,162.41,24.923,162.41,23.729"/>
	<rect x="168.523" y="13.238" clip-path="url(#SVGID_2_)" fill="#FFFFFF" width="2.449" height="16.065"/>
	<path clip-path="url(#SVGID_2_)" fill="#FFFFFF" d="M184.39,23.276c0,0.44-0.036,0.808-0.093,1.109h-7.343
		c0.03,1.09,0.383,1.919,1.062,2.492c0.625,0.517,1.421,0.773,2.404,0.773c1.087,0,2.077-0.173,2.967-0.523l0.381,1.704
		c-1.04,0.451-2.271,0.678-3.691,0.678c-1.707,0-3.046-0.503-4.023-1.506c-0.975-1.006-1.461-2.352-1.461-4.046
		c0-1.659,0.45-3.044,1.363-4.147c0.95-1.175,2.233-1.766,3.85-1.766c1.586,0,2.783,0.591,3.604,1.766
		C184.062,20.744,184.39,21.902,184.39,23.276 M182.054,22.642c0.012-0.726-0.144-1.353-0.476-1.88
		c-0.427-0.679-1.074-1.021-1.951-1.021c-0.802,0-1.448,0.331-1.953,0.997c-0.404,0.532-0.642,1.164-0.72,1.904H182.054z"/>
	<path clip-path="url(#SVGID_2_)" fill="#FFFFFF" d="M204.624,23.705c0,1.696-0.482,3.083-1.451,4.171
		c-1.016,1.119-2.359,1.678-4.034,1.678c-1.616,0-2.905-0.536-3.864-1.61c-0.957-1.072-1.437-2.424-1.437-4.056
		c0-1.706,0.492-3.105,1.486-4.192c0.989-1.084,2.32-1.629,3.997-1.629c1.617,0,2.917,0.535,3.902,1.607
		C204.156,20.714,204.624,22.061,204.624,23.705 M202.084,23.764c0-1.009-0.219-1.874-0.656-2.598
		c-0.516-0.873-1.242-1.307-2.193-1.307c-0.984,0-1.732,0.434-2.245,1.307c-0.44,0.724-0.659,1.606-0.659,2.644
		c0,1.013,0.225,1.876,0.659,2.599c0.533,0.872,1.271,1.311,2.224,1.311c0.93,0,1.667-0.445,2.188-1.331
		C201.859,25.646,202.084,24.772,202.084,23.764"/>
	<path clip-path="url(#SVGID_2_)" fill="#FFFFFF" d="M217.814,29.304h-2.446v-6.325c0-1.95-0.74-2.923-2.223-2.923
		c-0.728,0-1.311,0.269-1.767,0.805c-0.457,0.536-0.679,1.168-0.679,1.892v6.548h-2.45v-7.863c0-0.97-0.031-2.019-0.089-3.155h2.151
		l0.113,1.702h0.069c0.285-0.526,0.71-0.965,1.268-1.312c0.664-0.409,1.404-0.613,2.219-0.613c1.026,0,1.886,0.334,2.564,1
		c0.847,0.814,1.269,2.031,1.269,3.647V29.304z"/>
	<path clip-path="url(#SVGID_2_)" fill="#FFFFFF" d="M233.833,20.125h-2.692v5.351c0,1.359,0.47,2.037,1.424,2.037
		c0.439,0,0.802-0.036,1.083-0.115l0.072,1.861c-0.483,0.182-1.119,0.272-1.904,0.272c-0.965,0-1.715-0.296-2.261-0.882
		c-0.545-0.591-0.821-1.582-0.821-2.973v-5.551h-1.608v-1.833h1.608v-2.019l2.401-0.724v2.74h2.698V20.125z"/>
	<path clip-path="url(#SVGID_2_)" fill="#FFFFFF" d="M246.772,29.304h-2.448v-6.279c0-1.98-0.743-2.969-2.221-2.969
		c-1.131,0-1.91,0.574-2.335,1.723c-0.074,0.243-0.113,0.535-0.113,0.882v6.64h-2.446V13.239h2.446v6.616h0.045
		c0.769-1.195,1.88-1.789,3.306-1.789c1.021,0,1.854,0.331,2.522,0.997c0.827,0.83,1.244,2.064,1.244,3.693V29.304z"/>
	<path clip-path="url(#SVGID_2_)" fill="#FFFFFF" d="M259.376,23.276c0,0.44-0.029,0.808-0.093,1.109h-7.34
		c0.028,1.09,0.384,1.919,1.062,2.492c0.619,0.517,1.419,0.773,2.398,0.773c1.09,0,2.082-0.173,2.964-0.523l0.388,1.704
		c-1.041,0.451-2.276,0.678-3.696,0.678c-1.704,0-3.046-0.503-4.024-1.506c-0.973-1.006-1.461-2.352-1.461-4.046
		c0-1.659,0.452-3.044,1.361-4.147c0.95-1.175,2.235-1.766,3.847-1.766c1.592,0,2.793,0.591,3.608,1.766
		C259.047,20.744,259.376,21.902,259.376,23.276 M257.04,22.642c0.016-0.726-0.146-1.353-0.475-1.88
		c-0.425-0.679-1.074-1.021-1.95-1.021c-0.802,0-1.45,0.331-1.949,0.997c-0.409,0.532-0.646,1.164-0.723,1.904H257.04z"/>
</g>
</svg>
