<?xml version="1.0" encoding="utf-8"?>
<!-- Generator: Adobe Illustrator 17.0.0, SVG Export Plug-In . SVG Version: 6.00 Build 0)  -->
<!DOCTYPE svg PUBLIC "-//W3C//DTD SVG 1.1//EN" "http://www.w3.org/Graphics/SVG/1.1/DTD/svg11.dtd">
<svg version="1.1" id="Слой_1" xmlns="http://www.w3.org/2000/svg" xmlns:xlink="http://www.w3.org/1999/xlink" x="0px" y="0px"
	 viewBox="0 0 68.071 48.857" enable-background="new 0 0 68.071 48.857" xml:space="preserve">
<path fill="#4B4A4A" d="M57.071,24h-10V9h3l7,11V24z M51.671,7.996c-0.425-0.647-1.14-1.034-1.904-1.034h-2.288
	c-1.265,0-2.288,1.038-2.288,2.321v13.929c0,1.283,1.024,2.787,2.288,2.787h9.155c1.265,0,2.287-1.504,2.287-2.787v-3.482
	c0-0.458-0.134-0.907-0.384-1.289L51.671,7.996z"/>
<path fill="#4B4A4A" d="M64.071,34.67c0,1.276-1.021,2.33-2.28,2.33l-3.202,0.151c-1.021-3.996-4.578-6.975-8.828-6.975
	c-4.248,0-7.805,2.979-8.827,6.975h-12.09c-1.022-3.996-4.578-6.975-8.829-6.975c-4.248,0-7.804,2.979-8.826,6.975H9.071
	c-1.276,0-2.297-1.054-2.297-2.33v-5.106c0-1.022,0.816-1.851,1.823-1.851h27.432c3.792,0,6.874-3.127,6.874-6.975V6.494
	c0-1.021,0.817-1.849,1.824-1.849h7.331c0.765,0,1.477,0.388,1.896,1.036l9.733,13.78c0.255,0.37,0.383,0.814,0.383,1.277V34.67z
	 M49.767,44.107c-2.529,0-4.576-2.079-4.576-4.644c0-2.565,2.047-4.642,4.576-4.642c2.526,0,4.577,2.078,4.577,4.642
	C54.344,42.028,52.292,44.107,49.767,44.107 M20.017,44.107c-2.529,0-4.576-2.079-4.576-4.644c0-2.565,2.047-4.642,4.576-4.642
	c2.526,0,4.577,2.078,4.577,4.642C24.595,42.028,22.543,44.107,20.017,44.107 M66.922,17.022L57.768,3.09
	C56.49,1.148,54.357,0,52.059,0H41.974c-2.015,0-3.902,1.658-3.902,3.701v17.187c0,1.295-0.766,2.331-2.042,2.331H5.353
	c-2.015,0-3.282,1.656-3.282,3.7v7.9c0,3.847,2.717,6.957,6.51,6.957h2.608c1.021,3.996,4.577,6.974,8.826,6.974
	c4.251,0,7.807-2.978,8.829-6.974h12.09c1.021,3.996,4.578,6.974,8.827,6.974c4.249,0,7.807-2.978,8.828-6.974h2.625
	c3.775,0,6.857-3.109,6.857-6.957V20.888C68.071,19.519,67.67,18.169,66.922,17.022"/>
<path fill="#4B4A4A" d="M32.32,20c1.008,0.009,1.839-0.912,1.857-1.7c0.019-0.789-0.777-1.515-1.779-1.623L6.534,13.9
	c-2.002-0.216-4.618,0.926-5.842,2.55C-0.531,18.073,0.11,19.981,2.123,20H32.32z"/>
</svg>
