<?xml version="1.0" encoding="utf-8"?>
<!-- Generator: Adobe Illustrator 17.0.0, SVG Export Plug-In . SVG Version: 6.00 Build 0)  -->
<!DOCTYPE svg PUBLIC "-//W3C//DTD SVG 1.1//EN" "http://www.w3.org/Graphics/SVG/1.1/DTD/svg11.dtd">
<svg version="1.1" id="Слой_1" xmlns="http://www.w3.org/2000/svg" xmlns:xlink="http://www.w3.org/1999/xlink" x="0px" y="0px"
	 viewBox="0 0 244 153.146" enable-background="new 0 0 244 153.146" xml:space="preserve">
<path fill="#FFCC00" d="M7.423,0.073H236.87c3.889,0,7.13,3.096,7.13,6.912v139.249c0,3.815-3.241,6.912-7.13,6.912H7.423
	c-3.961,0-7.202-3.097-7.202-6.912V6.985C0.221,3.169,3.462,0.073,7.423,0.073z"/>
<rect x="0.221" y="49.663" fill="#FFFFFF" width="243.781" height="44.538"/>
<rect x="0.11" y="14.231" fill-rule="evenodd" clip-rule="evenodd" fill="#3C3C3B" width="244" height="35.456"/>
<g>
	<g>
		<path fill="#694100" d="M15.05,10.269h0.344c0,0.458,0.365,0.672,0.718,0.672c0.495,0,0.768-0.256,0.768-0.685V9.9H15.73V9.577
			h1.149V9.233c0-0.428-0.272-0.685-0.768-0.685c-0.353,0-0.718,0.215-0.718,0.672H15.05c0-0.692,0.495-1.007,1.062-1.007
			c0.709,0,1.133,0.386,1.133,1.045v0.974c0,0.658-0.424,1.044-1.133,1.044C15.545,11.276,15.05,10.962,15.05,10.269z"/>
		<path fill="#694100" d="M18.388,9.35H17.65V9.056h1.809V9.35h-0.734v1.863h-0.336V9.35z"/>
		<path fill="#694100" d="M19.716,10.638c0-0.44,0.302-0.688,0.894-0.688h0.542V9.736c0-0.251-0.16-0.423-0.5-0.423
			c-0.331,0-0.495,0.172-0.495,0.398h-0.327c0-0.403,0.265-0.705,0.822-0.705c0.562,0,0.835,0.302,0.835,0.709v1.498h-0.201
			l-0.126-0.272c-0.13,0.146-0.395,0.323-0.73,0.323C20.047,11.264,19.716,11.062,19.716,10.638z M21.152,10.656v-0.433H20.61
			c-0.398,0-0.558,0.155-0.558,0.378c0,0.247,0.192,0.356,0.444,0.356C20.782,10.958,21.013,10.794,21.152,10.656z"/>
		<path fill="#694100" d="M23.206,9.056h0.336v0.928h0.369l0.692-0.928h0.281v0.16l-0.676,0.897l0.709,0.94v0.159h-0.302
			l-0.705-0.936h-0.369v0.936h-0.336V9.056z"/>
		<path fill="#694100" d="M25.227,10.638c0-0.44,0.302-0.688,0.894-0.688h0.542V9.736c0-0.251-0.16-0.423-0.5-0.423
			c-0.331,0-0.495,0.172-0.495,0.398H25.34c0-0.403,0.265-0.705,0.822-0.705c0.562,0,0.835,0.302,0.835,0.709v1.498h-0.201
			l-0.126-0.272c-0.13,0.146-0.395,0.323-0.73,0.323C25.558,11.264,25.227,11.062,25.227,10.638z M26.662,10.656v-0.433H26.12
			c-0.398,0-0.558,0.155-0.558,0.378c0,0.247,0.192,0.356,0.444,0.356C26.292,10.958,26.524,10.794,26.662,10.656z"/>
		<path fill="#694100" d="M29.463,9.8v0.671c0,0.517-0.319,0.794-0.772,0.794c-0.319,0-0.554-0.16-0.684-0.315v0.936h-0.336V9.056
			h0.201l0.117,0.286c0.147-0.168,0.391-0.336,0.714-0.336C29.14,9.007,29.463,9.283,29.463,9.8z M29.127,10.446V9.825
			c0-0.307-0.197-0.512-0.482-0.512c-0.269,0-0.487,0.176-0.638,0.34v0.965c0.15,0.163,0.364,0.34,0.633,0.34
			C28.93,10.958,29.127,10.752,29.127,10.446z"/>
		<path fill="#694100" d="M30.585,9.35h-0.738V9.056h1.809V9.35h-0.734v1.863h-0.336V9.35z"/>
		<path fill="#694100" d="M31.913,10.638c0-0.44,0.302-0.688,0.894-0.688h0.542V9.736c0-0.251-0.16-0.423-0.5-0.423
			c-0.331,0-0.495,0.172-0.495,0.398h-0.327c0-0.403,0.265-0.705,0.822-0.705c0.562,0,0.835,0.302,0.835,0.709v1.498h-0.201
			l-0.126-0.272c-0.13,0.146-0.395,0.323-0.73,0.323C32.244,11.264,31.913,11.062,31.913,10.638z M33.349,10.656v-0.433h-0.542
			c-0.398,0-0.558,0.155-0.558,0.378c0,0.247,0.192,0.356,0.444,0.356C32.979,10.958,33.21,10.794,33.349,10.656z"/>
		<path fill="#694100" d="M35.404,9.056h0.986c0.415,0,0.675,0.181,0.675,0.562c0,0.252-0.113,0.411-0.276,0.491
			c0.223,0.071,0.373,0.227,0.373,0.499c0,0.445-0.281,0.604-0.722,0.604h-1.036V9.056z M36.381,9.997
			c0.227,0,0.332-0.143,0.332-0.327c0-0.193-0.105-0.319-0.336-0.319H35.74v0.646H36.381z M36.449,10.92
			c0.239,0,0.353-0.134,0.353-0.331c0-0.193-0.105-0.323-0.361-0.323h-0.7v0.654H36.449z"/>
		<path fill="#694100" d="M37.739,9.056h0.336V9.8h0.667c0.428,0,0.684,0.272,0.684,0.709s-0.256,0.705-0.684,0.705h-1.003V9.056z
			 M38.696,10.92c0.23,0,0.394-0.15,0.394-0.411c0-0.265-0.163-0.415-0.39-0.415h-0.625v0.826H38.696z M39.774,9.056h0.336v2.157
			h-0.336V9.056z"/>
		<path fill="#694100" d="M40.809,9.056h1.754v2.157h-0.336V9.35h-1.082v1.863h-0.336V9.056z"/>
		<path fill="#694100" d="M43.58,11.76l0.239-0.546l-0.81-1.997v-0.16h0.314l0.658,1.704l0.646-1.704h0.307v0.16l-1.074,2.668H43.58
			V11.76z"/>
		<path fill="#694100" d="M47.984,11.214h-2.602V9.056h0.336v1.863h0.802V9.056h0.336v1.863h0.801V9.056h0.336v1.863h0.323v0.835
			h-0.332V11.214z"/>
		<path fill="#694100" d="M48.73,10.47V9.808c0-0.479,0.336-0.802,0.898-0.802c0.545,0,0.872,0.311,0.872,0.793v0.449h-1.435v0.214
			c0,0.289,0.192,0.495,0.562,0.495c0.322,0,0.486-0.159,0.524-0.391h0.335c-0.037,0.424-0.34,0.697-0.859,0.697
			C49.066,11.264,48.73,10.954,48.73,10.47z M50.165,9.975V9.8c0-0.281-0.185-0.486-0.55-0.486c-0.357,0-0.55,0.201-0.55,0.486
			v0.176H50.165z"/>
		<path fill="#694100" d="M51.098,9.056h0.336v0.932h1.104V9.056h0.336v2.157h-0.336v-0.932h-1.104v0.932h-0.336V9.056z"/>
		<path fill="#694100" d="M53.425,10.638c0-0.44,0.302-0.688,0.894-0.688h0.542V9.736c0-0.251-0.16-0.423-0.5-0.423
			c-0.331,0-0.495,0.172-0.495,0.398h-0.327c0-0.403,0.265-0.705,0.822-0.705c0.562,0,0.835,0.302,0.835,0.709v1.498h-0.201
			l-0.126-0.272c-0.13,0.146-0.395,0.323-0.73,0.323C53.756,11.264,53.425,11.062,53.425,10.638z M54.861,10.656v-0.433h-0.542
			c-0.398,0-0.558,0.155-0.558,0.378c0,0.247,0.192,0.356,0.444,0.356C54.491,10.958,54.722,10.794,54.861,10.656z"/>
		<path fill="#694100" d="M56.873,10.223V9.266c0-0.667,0.44-1.053,1.129-1.053c0.688,0,1.129,0.386,1.129,1.053v0.957
			c0,0.667-0.441,1.053-1.129,1.053C57.314,11.276,56.873,10.89,56.873,10.223z M58.766,10.24V9.25c0-0.411-0.272-0.701-0.764-0.701
			c-0.495,0-0.764,0.29-0.764,0.701v0.99c0,0.411,0.269,0.701,0.764,0.701C58.494,10.941,58.766,10.651,58.766,10.24z"/>
		<path fill="#694100" d="M59.745,10.223V9.266c0-0.667,0.441-1.053,1.129-1.053c0.688,0,1.129,0.386,1.129,1.053v0.957
			c0,0.667-0.44,1.053-1.129,1.053C60.187,11.276,59.745,10.89,59.745,10.223z M61.638,10.24V9.25c0-0.411-0.272-0.701-0.764-0.701
			c-0.495,0-0.764,0.29-0.764,0.701v0.99c0,0.411,0.269,0.701,0.764,0.701C61.366,10.941,61.638,10.651,61.638,10.24z"/>
		<path fill="#694100" d="M62.619,10.223V9.266c0-0.667,0.44-1.053,1.129-1.053c0.688,0,1.129,0.386,1.129,1.053v0.957
			c0,0.667-0.441,1.053-1.129,1.053C63.059,11.276,62.619,10.89,62.619,10.223z M64.511,10.24V9.25c0-0.411-0.272-0.701-0.764-0.701
			c-0.495,0-0.764,0.29-0.764,0.701v0.99c0,0.411,0.269,0.701,0.764,0.701C64.239,10.941,64.511,10.651,64.511,10.24z"/>
		<path fill="#694100" d="M66.823,9.246h-0.37v-0.16l0.349-0.83h0.269L66.823,9.246z M67.561,9.246h-0.369v-0.16l0.348-0.83h0.269
			L67.561,9.246z"/>
		<path fill="#694100" d="M69.673,9.9h-0.462l-0.734,1.313h-0.364v-0.122l0.793-1.367l-0.734-1.326V8.276h0.331l0.709,1.301h0.462
			V8.276h0.365v1.301h0.461l0.71-1.301h0.331v0.122l-0.734,1.326l0.793,1.367v0.122h-0.365L70.499,9.9h-0.461v1.313h-0.365V9.9z"/>
		<path fill="#694100" d="M71.993,10.47V9.808c0-0.479,0.336-0.802,0.898-0.802c0.545,0,0.872,0.311,0.872,0.793v0.449h-1.435v0.214
			c0,0.289,0.192,0.495,0.562,0.495c0.322,0,0.486-0.159,0.524-0.391h0.335c-0.037,0.424-0.34,0.697-0.859,0.697
			C72.328,11.264,71.993,10.954,71.993,10.47z M73.428,9.975V9.8c0-0.281-0.185-0.486-0.55-0.486c-0.357,0-0.55,0.201-0.55,0.486
			v0.176H73.428z"/>
		<path fill="#694100" d="M74.126,10.907h0.033c0.311,0,0.411-0.26,0.411-0.734V9.056h1.54v2.157h-0.336V9.35H74.89v0.818
			c0,0.714-0.277,1.045-0.685,1.045h-0.079V10.907z"/>
		<path fill="#694100" d="M77.296,9.35h-0.738V9.056h1.809V9.35h-0.734v1.863h-0.336V9.35z"/>
		<path fill="#694100" d="M78.624,10.638c0-0.44,0.302-0.688,0.894-0.688h0.542V9.736c0-0.251-0.16-0.423-0.5-0.423
			c-0.331,0-0.495,0.172-0.495,0.398h-0.327c0-0.403,0.265-0.705,0.822-0.705c0.562,0,0.835,0.302,0.835,0.709v1.498h-0.201
			l-0.126-0.272c-0.13,0.146-0.395,0.323-0.73,0.323C78.955,11.264,78.624,11.062,78.624,10.638z M80.06,10.656v-0.433h-0.542
			c-0.398,0-0.558,0.155-0.558,0.378c0,0.247,0.192,0.356,0.444,0.356C79.69,10.958,79.921,10.794,80.06,10.656z"/>
		<path fill="#694100" d="M80.943,11.054l0.482-0.701c-0.276-0.055-0.466-0.272-0.466-0.638c0-0.424,0.261-0.659,0.625-0.659h1.062
			v2.157h-0.336v-0.831h-0.508l-0.546,0.831h-0.314V11.054z M82.311,10.089V9.35h-0.634c-0.252,0-0.378,0.155-0.378,0.369
			c0,0.235,0.13,0.369,0.378,0.369H82.311z"/>
		<path fill="#694100" d="M84.391,9.056h0.336v0.928h0.369l0.692-0.928h0.281v0.16l-0.676,0.897l0.709,0.94v0.159h-0.302
			l-0.705-0.936h-0.369v0.936h-0.336V9.056z"/>
		<path fill="#694100" d="M86.411,10.638c0-0.44,0.302-0.688,0.894-0.688h0.542V9.736c0-0.251-0.16-0.423-0.5-0.423
			c-0.331,0-0.495,0.172-0.495,0.398h-0.327c0-0.403,0.265-0.705,0.822-0.705c0.562,0,0.835,0.302,0.835,0.709v1.498h-0.201
			l-0.126-0.272c-0.13,0.146-0.395,0.323-0.73,0.323C86.743,11.264,86.411,11.062,86.411,10.638z M87.847,10.656v-0.433h-0.542
			c-0.398,0-0.558,0.155-0.558,0.378c0,0.247,0.192,0.356,0.444,0.356C87.477,10.958,87.708,10.794,87.847,10.656z"/>
		<path fill="#694100" d="M90.648,9.8v0.671c0,0.517-0.319,0.794-0.772,0.794c-0.319,0-0.554-0.16-0.684-0.315v0.936h-0.336V9.056
			h0.201l0.117,0.286c0.147-0.168,0.391-0.336,0.714-0.336C90.325,9.007,90.648,9.283,90.648,9.8z M90.312,10.446V9.825
			c0-0.307-0.197-0.512-0.482-0.512c-0.269,0-0.487,0.176-0.638,0.34v0.965c0.15,0.163,0.364,0.34,0.633,0.34
			C90.115,10.958,90.312,10.752,90.312,10.446z"/>
		<path fill="#694100" d="M91.77,9.35h-0.738V9.056h1.809V9.35h-0.734v1.863H91.77V9.35z"/>
		<path fill="#694100" d="M93.098,10.638c0-0.44,0.302-0.688,0.894-0.688h0.542V9.736c0-0.251-0.16-0.423-0.5-0.423
			c-0.331,0-0.495,0.172-0.495,0.398h-0.327c0-0.403,0.265-0.705,0.822-0.705c0.562,0,0.835,0.302,0.835,0.709v1.498h-0.201
			l-0.126-0.272c-0.13,0.146-0.395,0.323-0.73,0.323C93.429,11.264,93.098,11.062,93.098,10.638z M94.534,10.656v-0.433h-0.542
			c-0.398,0-0.558,0.155-0.558,0.378c0,0.247,0.192,0.356,0.444,0.356C94.163,10.958,94.395,10.794,94.534,10.656z"/>
		<path fill="#694100" d="M95.542,8.256h0.369v0.159l-0.349,0.831h-0.269L95.542,8.256z M96.281,8.256h0.369v0.159l-0.348,0.831
			h-0.269L96.281,8.256z"/>
		<path fill="#694100" d="M97.189,10.66h0.395v0.554h-0.395V10.66z"/>
		<path fill="#694100" d="M99.33,8.276h0.365v1.301h1.431V8.276h0.365v2.938h-0.365V9.9h-1.431v1.313H99.33V8.276z"/>
		<path fill="#694100" d="M102.086,10.638c0-0.44,0.302-0.688,0.894-0.688h0.542V9.736c0-0.251-0.16-0.423-0.5-0.423
			c-0.331,0-0.495,0.172-0.495,0.398H102.2c0-0.403,0.265-0.705,0.822-0.705c0.562,0,0.835,0.302,0.835,0.709v1.498h-0.201
			l-0.126-0.272c-0.13,0.146-0.395,0.323-0.73,0.323C102.417,11.264,102.086,11.062,102.086,10.638z M103.522,10.656v-0.433h-0.542
			c-0.398,0-0.558,0.155-0.558,0.378c0,0.247,0.192,0.356,0.444,0.356C103.152,10.958,103.383,10.794,103.522,10.656z"/>
		<path fill="#694100" d="M104.531,9.056h0.336v1.863h0.801V9.056h0.336v1.863h0.802V9.056h0.336v2.157h-2.61V9.056z"/>
		<path fill="#694100" d="M107.744,10.47V9.808c0-0.479,0.336-0.802,0.898-0.802c0.545,0,0.872,0.311,0.872,0.793v0.449h-1.435
			v0.214c0,0.289,0.192,0.495,0.562,0.495c0.322,0,0.486-0.159,0.524-0.391h0.335c-0.037,0.424-0.34,0.697-0.859,0.697
			C108.079,11.264,107.744,10.954,107.744,10.47z M109.179,9.975V9.8c0-0.281-0.185-0.486-0.55-0.486
			c-0.357,0-0.55,0.201-0.55,0.486v0.176H109.179z"/>
		<path fill="#694100" d="M109.898,10.92h0.197c0.164-0.176,0.272-0.457,0.272-0.952V9.056h1.553v1.863h0.323v0.835h-0.331v-0.541
			h-1.683v0.541h-0.332V10.92z M111.585,10.92V9.35h-0.898v0.667c0,0.424-0.101,0.697-0.223,0.902H111.585z"/>
		<path fill="#694100" d="M112.753,9.056h0.336v1.863h0.802V9.056h0.336v1.863h0.801V9.056h0.336v2.157h-2.61V9.056z"/>
		<path fill="#694100" d="M115.967,10.47V9.808c0-0.479,0.335-0.802,0.897-0.802c0.546,0,0.873,0.311,0.873,0.793v0.449h-1.436
			v0.214c0,0.289,0.193,0.495,0.562,0.495c0.323,0,0.487-0.159,0.524-0.391h0.336c-0.038,0.424-0.34,0.697-0.86,0.697
			C116.302,11.264,115.967,10.954,115.967,10.47z M117.402,9.975V9.8c0-0.281-0.185-0.486-0.55-0.486
			c-0.356,0-0.55,0.201-0.55,0.486v0.176H117.402z"/>
		<path fill="#694100" d="M118.335,9.056h1.41V9.35h-1.074v1.863h-0.336V9.056z"/>
		<path fill="#694100" d="M120.095,10.463V9.808c0-0.454,0.302-0.802,0.898-0.802c0.596,0,0.894,0.348,0.894,0.802v0.654
			c0,0.453-0.298,0.802-0.894,0.802C120.397,11.264,120.095,10.916,120.095,10.463z M121.551,10.45V9.82
			c0-0.28-0.181-0.507-0.558-0.507c-0.37,0-0.562,0.222-0.562,0.507v0.63c0,0.285,0.192,0.508,0.562,0.508
			C121.37,10.958,121.551,10.731,121.551,10.45z"/>
		<path fill="#694100" d="M123.535,9.056h1.754v2.157h-0.335V9.35h-1.083v1.863h-0.336V9.056z"/>
		<path fill="#694100" d="M127.78,9.8v0.671c0,0.517-0.319,0.794-0.772,0.794c-0.319,0-0.554-0.16-0.684-0.315v0.936h-0.336V9.056
			h0.201l0.117,0.286c0.147-0.168,0.391-0.336,0.714-0.336C127.456,9.007,127.78,9.283,127.78,9.8z M127.444,10.446V9.825
			c0-0.307-0.197-0.512-0.482-0.512c-0.269,0-0.487,0.176-0.638,0.34v0.965c0.15,0.163,0.364,0.34,0.633,0.34
			C127.246,10.958,127.444,10.752,127.444,10.446z"/>
		<path fill="#694100" d="M128.319,10.463V9.808c0-0.454,0.302-0.802,0.898-0.802c0.596,0,0.894,0.348,0.894,0.802v0.654
			c0,0.453-0.298,0.802-0.894,0.802C128.62,11.264,128.319,10.916,128.319,10.463z M129.775,10.45V9.82
			c0-0.28-0.181-0.507-0.558-0.507c-0.37,0-0.562,0.222-0.562,0.507v0.63c0,0.285,0.192,0.508,0.562,0.508
			C129.594,10.958,129.775,10.731,129.775,10.45z"/>
		<path fill="#694100" d="M130.617,10.463V9.808c0-0.479,0.327-0.802,0.881-0.802c0.533,0,0.868,0.298,0.868,0.771V9.8h-0.335V9.774
			c0-0.269-0.193-0.461-0.533-0.461c-0.361,0-0.546,0.201-0.546,0.486v0.671c0,0.286,0.185,0.487,0.546,0.487
			c0.344,0,0.533-0.197,0.533-0.47v-0.029h0.335v0.024c0,0.471-0.34,0.781-0.868,0.781
			C130.944,11.264,130.617,10.941,130.617,10.463z"/>
		<path fill="#694100" d="M132.952,9.056h0.336v1.641l1.146-1.641h0.335v2.157h-0.335V9.577l-1.146,1.637h-0.336V9.056z"/>
		<path fill="#694100" d="M135.467,9.056h0.336l0.759,1.058l0.743-1.058h0.336v2.157h-0.336V9.577l-0.667,0.936h-0.164l-0.671-0.936
			v1.637h-0.336V9.056z"/>
		<path fill="#694100" d="M139.289,10.463V9.808c0-0.479,0.327-0.802,0.881-0.802c0.533,0,0.868,0.298,0.868,0.771V9.8h-0.335V9.774
			c0-0.269-0.193-0.461-0.533-0.461c-0.361,0-0.546,0.201-0.546,0.486v0.671c0,0.286,0.185,0.487,0.546,0.487
			c0.344,0,0.533-0.197,0.533-0.47v-0.029h0.335v0.024c0,0.471-0.34,0.781-0.868,0.781
			C139.617,11.264,139.289,10.941,139.289,10.463z"/>
		<path fill="#694100" d="M141.528,10.463V9.808c0-0.454,0.302-0.802,0.898-0.802c0.596,0,0.894,0.348,0.894,0.802v0.654
			c0,0.453-0.298,0.802-0.894,0.802C141.829,11.264,141.528,10.916,141.528,10.463z M142.984,10.45V9.82
			c0-0.28-0.181-0.507-0.558-0.507c-0.37,0-0.562,0.222-0.562,0.507v0.63c0,0.285,0.192,0.508,0.562,0.508
			C142.803,10.958,142.984,10.731,142.984,10.45z"/>
		<path fill="#694100" d="M143.826,10.463V9.808c0-0.454,0.302-0.802,0.897-0.802s0.894,0.348,0.894,0.802v0.654
			c0,0.453-0.298,0.802-0.894,0.802S143.826,10.916,143.826,10.463z M145.282,10.45V9.82c0-0.28-0.181-0.507-0.559-0.507
			c-0.369,0-0.562,0.222-0.562,0.507v0.63c0,0.285,0.193,0.508,0.562,0.508C145.101,10.958,145.282,10.731,145.282,10.45z"/>
		<path fill="#694100" d="M146.156,10.47V9.686c0-0.562,0.173-0.898,0.646-1.041l0.504-0.146c0.185-0.055,0.214-0.146,0.214-0.219
			V8.256h0.336V8.28c0,0.332-0.151,0.429-0.491,0.525l-0.42,0.117c-0.336,0.097-0.479,0.276-0.479,0.667v0.059
			c0.135-0.176,0.382-0.36,0.71-0.36c0.457,0,0.771,0.276,0.771,0.793v0.382c0,0.479-0.331,0.802-0.894,0.802
			S146.156,10.954,146.156,10.47z M147.612,10.45v-0.344c0-0.307-0.197-0.513-0.512-0.513c-0.256,0-0.461,0.164-0.608,0.328v0.528
			c0,0.285,0.193,0.508,0.562,0.508C147.432,10.958,147.612,10.731,147.612,10.45z"/>
		<path fill="#694100" d="M151.152,11.214h-2.602V9.056h0.336v1.863h0.801V9.056h0.336v1.863h0.802V9.056h0.336v1.863h0.322v0.835
			h-0.331V11.214z"/>
		<path fill="#694100" d="M151.994,9.056h0.336v1.641l1.146-1.641h0.336v2.157h-0.336V9.577l-1.146,1.637h-0.336V9.056z"/>
		<path fill="#694100" d="M154.996,9.35h-0.738V9.056h1.809V9.35h-0.734v1.863h-0.336V9.35z"/>
		<path fill="#694100" d="M156.513,9.056h0.336V9.8h0.709c0.428,0,0.684,0.272,0.684,0.709s-0.256,0.705-0.684,0.705h-1.045V9.056z
			 M157.512,10.92c0.23,0,0.394-0.15,0.394-0.411c0-0.265-0.163-0.415-0.39-0.415h-0.667v0.826H157.512z"/>
		<path fill="#694100" d="M159.777,9.056h0.986c0.415,0,0.675,0.181,0.675,0.562c0,0.252-0.113,0.411-0.276,0.491
			c0.223,0.071,0.373,0.227,0.373,0.499c0,0.445-0.281,0.604-0.722,0.604h-1.036V9.056z M160.754,9.997
			c0.227,0,0.332-0.143,0.332-0.327c0-0.193-0.105-0.319-0.336-0.319h-0.638v0.646H160.754z M160.822,10.92
			c0.239,0,0.353-0.134,0.353-0.331c0-0.193-0.105-0.323-0.361-0.323h-0.7v0.654H160.822z"/>
		<path fill="#694100" d="M163.158,9.056h0.336v0.928h0.369l0.692-0.928h0.281v0.16l-0.676,0.897l0.709,0.94v0.159h-0.302
			l-0.705-0.936h-0.369v0.936h-0.336V9.056z"/>
		<path fill="#694100" d="M165.229,10.463V9.808c0-0.454,0.302-0.802,0.897-0.802s0.894,0.348,0.894,0.802v0.654
			c0,0.453-0.298,0.802-0.894,0.802S165.229,10.916,165.229,10.463z M166.685,10.45V9.82c0-0.28-0.181-0.507-0.559-0.507
			c-0.369,0-0.562,0.222-0.562,0.507v0.63c0,0.285,0.193,0.508,0.562,0.508C166.504,10.958,166.685,10.731,166.685,10.45z"/>
		<path fill="#694100" d="M167.387,10.907h0.034c0.311,0,0.411-0.26,0.411-0.734V9.056h1.54v2.157h-0.336V9.35h-0.886v0.818
			c0,0.714-0.276,1.045-0.684,1.045h-0.08V10.907z"/>
		<path fill="#694100" d="M169.836,10.907h0.033c0.311,0,0.411-0.26,0.411-0.734V9.056h1.54v2.157h-0.336V9.35H170.6v0.818
			c0,0.714-0.277,1.045-0.685,1.045h-0.079V10.907z"/>
		<path fill="#694100" d="M172.436,9.745h1.313v0.311h-1.313V9.745z"/>
		<path fill="#694100" d="M176.092,11.214h-1.733V9.056h0.336v1.863h1.066V9.056h0.335v1.863h0.327v0.835h-0.331V11.214z"/>
		<path fill="#694100" d="M176.837,10.47V9.808c0-0.479,0.336-0.802,0.898-0.802c0.545,0,0.872,0.311,0.872,0.793v0.449h-1.435
			v0.214c0,0.289,0.192,0.495,0.562,0.495c0.322,0,0.486-0.159,0.524-0.391h0.335c-0.037,0.424-0.34,0.697-0.859,0.697
			C177.173,11.264,176.837,10.954,176.837,10.47z M178.273,9.975V9.8c0-0.281-0.185-0.486-0.55-0.486
			c-0.357,0-0.55,0.201-0.55,0.486v0.176H178.273z"/>
		<path fill="#694100" d="M179.205,9.056h0.336v0.932h1.104V9.056h0.336v2.157h-0.336v-0.932h-1.104v0.932h-0.336V9.056z"/>
		<path fill="#694100" d="M182.166,9.35h-0.738V9.056h1.809V9.35h-0.734v1.863h-0.336V9.35z"/>
		<path fill="#694100" d="M185.475,9.8v0.671c0,0.517-0.319,0.794-0.772,0.794c-0.319,0-0.554-0.16-0.684-0.315v0.936h-0.336V9.056
			h0.201l0.117,0.286c0.147-0.168,0.391-0.336,0.714-0.336C185.152,9.007,185.475,9.283,185.475,9.8z M185.139,10.446V9.825
			c0-0.307-0.197-0.512-0.482-0.512c-0.269,0-0.487,0.176-0.638,0.34v0.965c0.15,0.163,0.364,0.34,0.633,0.34
			C184.942,10.958,185.139,10.752,185.139,10.446z"/>
		<path fill="#694100" d="M187.157,9.056h1.754v2.157h-0.336V9.35h-1.082v1.863h-0.336V9.056z"/>
		<path fill="#694100" d="M189.513,10.463V9.808c0-0.454,0.302-0.802,0.897-0.802s0.894,0.348,0.894,0.802v0.654
			c0,0.453-0.298,0.802-0.894,0.802S189.513,10.916,189.513,10.463z M190.969,10.45V9.82c0-0.28-0.181-0.507-0.559-0.507
			c-0.369,0-0.562,0.222-0.562,0.507v0.63c0,0.285,0.193,0.508,0.562,0.508C190.788,10.958,190.969,10.731,190.969,10.45z"/>
		<path fill="#694100" d="M193.313,9.35h-0.738V9.056h1.809V9.35h-0.734v1.863h-0.336V9.35z"/>
		<path fill="#694100" d="M194.692,10.47V9.808c0-0.479,0.335-0.802,0.897-0.802c0.546,0,0.873,0.311,0.873,0.793v0.449h-1.436
			v0.214c0,0.289,0.193,0.495,0.562,0.495c0.323,0,0.487-0.159,0.524-0.391h0.336c-0.038,0.424-0.34,0.697-0.86,0.697
			C195.027,11.264,194.692,10.954,194.692,10.47z M196.126,9.975V9.8c0-0.281-0.185-0.486-0.55-0.486
			c-0.356,0-0.55,0.201-0.55,0.486v0.176H196.126z"/>
		<path fill="#694100" d="M196.825,10.907h0.034c0.311,0,0.411-0.26,0.411-0.734V9.056h1.54v2.157h-0.336V9.35h-0.886v0.818
			c0,0.714-0.276,1.045-0.684,1.045h-0.08V10.907z"/>
		<path fill="#694100" d="M199.412,10.47V9.808c0-0.479,0.335-0.802,0.897-0.802c0.546,0,0.873,0.311,0.873,0.793v0.449h-1.436
			v0.214c0,0.289,0.193,0.495,0.562,0.495c0.323,0,0.487-0.159,0.524-0.391h0.336c-0.038,0.424-0.34,0.697-0.86,0.697
			C199.747,11.264,199.412,10.954,199.412,10.47z M200.847,9.975V9.8c0-0.281-0.185-0.486-0.55-0.486
			c-0.356,0-0.55,0.201-0.55,0.486v0.176H200.847z"/>
		<path fill="#694100" d="M202.917,11.004c-0.113,0.126-0.302,0.261-0.57,0.261c-0.369,0-0.63-0.261-0.63-0.697V9.703
			c0-0.437,0.261-0.696,0.63-0.696c0.269,0,0.457,0.134,0.57,0.26V8.256h0.336v1.011c0.117-0.126,0.302-0.26,0.575-0.26
			c0.369,0,0.629,0.26,0.629,0.696v0.864c0,0.437-0.26,0.697-0.629,0.697c-0.273,0-0.458-0.135-0.575-0.261v0.881h-0.336V11.004z
			 M202.917,10.722V9.548c-0.108-0.113-0.256-0.234-0.461-0.234c-0.248,0-0.403,0.18-0.403,0.436v0.772
			c0,0.256,0.155,0.437,0.403,0.437C202.661,10.958,202.809,10.836,202.917,10.722z M204.122,10.521V9.749
			c0-0.256-0.155-0.436-0.403-0.436c-0.206,0-0.353,0.121-0.466,0.234v1.175c0.113,0.113,0.26,0.235,0.466,0.235
			C203.967,10.958,204.122,10.777,204.122,10.521z"/>
		<path fill="#694100" d="M204.998,10.463V9.808c0-0.454,0.302-0.802,0.897-0.802s0.894,0.348,0.894,0.802v0.654
			c0,0.453-0.298,0.802-0.894,0.802S204.998,10.916,204.998,10.463z M206.454,10.45V9.82c0-0.28-0.181-0.507-0.559-0.507
			c-0.369,0-0.562,0.222-0.562,0.507v0.63c0,0.285,0.193,0.508,0.562,0.508C206.274,10.958,206.454,10.731,206.454,10.45z"/>
		<path fill="#694100" d="M207.392,9.056h0.336v0.932h1.104V9.056h0.335v2.157h-0.335v-0.932h-1.104v0.932h-0.336V9.056z"/>
		<path fill="#694100" d="M210.184,11.76l0.239-0.546l-0.81-1.997v-0.16h0.314l0.659,1.704l0.646-1.704h0.306v0.16l-1.074,2.668
			h-0.281V11.76z"/>
		<path fill="#694100" d="M212.949,10.295c0-0.256,0.092-0.482,0.281-0.78l0.776-1.238h0.311v0.122l-0.705,1.1
			c0.109-0.067,0.256-0.113,0.444-0.113c0.491,0,0.844,0.331,0.844,0.91c0,0.612-0.365,0.981-0.974,0.981
			C213.314,11.276,212.949,10.907,212.949,10.295z M214.564,10.311c0-0.386-0.201-0.65-0.634-0.65c-0.406,0-0.646,0.248-0.646,0.65
			c0,0.395,0.218,0.659,0.642,0.659C214.346,10.97,214.564,10.706,214.564,10.311z"/>
		<path fill="#694100" d="M215.388,10.295c0-0.256,0.093-0.482,0.281-0.78l0.776-1.238h0.311v0.122l-0.705,1.1
			c0.109-0.067,0.256-0.113,0.445-0.113c0.491,0,0.843,0.331,0.843,0.91c0,0.612-0.364,0.981-0.973,0.981
			C215.753,11.276,215.388,10.907,215.388,10.295z M217.004,10.311c0-0.386-0.202-0.65-0.634-0.65c-0.407,0-0.646,0.248-0.646,0.65
			c0,0.395,0.219,0.659,0.643,0.659C216.786,10.97,217.004,10.706,217.004,10.311z"/>
		<path fill="#694100" d="M217.828,10.295c0-0.256,0.092-0.482,0.281-0.78l0.776-1.238h0.311v0.122l-0.705,1.1
			c0.109-0.067,0.256-0.113,0.444-0.113c0.491,0,0.844,0.331,0.844,0.91c0,0.612-0.365,0.981-0.974,0.981
			C218.194,11.276,217.828,10.907,217.828,10.295z M219.444,10.311c0-0.386-0.201-0.65-0.634-0.65c-0.406,0-0.646,0.248-0.646,0.65
			c0,0.395,0.218,0.659,0.642,0.659C219.226,10.97,219.444,10.706,219.444,10.311z"/>
		<path fill="#694100" d="M220.268,10.295c0-0.256,0.093-0.482,0.281-0.78l0.776-1.238h0.311v0.122l-0.705,1.1
			c0.109-0.067,0.256-0.113,0.445-0.113c0.491,0,0.843,0.331,0.843,0.91c0,0.612-0.364,0.981-0.973,0.981
			C220.633,11.276,220.268,10.907,220.268,10.295z M221.884,10.311c0-0.386-0.202-0.65-0.634-0.65c-0.407,0-0.646,0.248-0.646,0.65
			c0,0.395,0.219,0.659,0.643,0.659C221.665,10.97,221.884,10.706,221.884,10.311z"/>
		<path fill="#694100" d="M222.708,9.745h1.313v0.311h-1.313V9.745z"/>
		<path fill="#694100" d="M224.589,10.303V9.187c0-0.617,0.374-0.974,0.957-0.974c0.588,0,0.961,0.356,0.961,0.974v1.116
			c0,0.616-0.373,0.973-0.961,0.973C224.963,11.276,224.589,10.92,224.589,10.303z M226.171,10.324V9.17
			c0-0.377-0.222-0.65-0.625-0.65c-0.398,0-0.621,0.273-0.621,0.65v1.154c0,0.373,0.223,0.646,0.621,0.646
			C225.95,10.97,226.171,10.697,226.171,10.324z"/>
		<path fill="#694100" d="M227.122,10.303V9.187c0-0.617,0.373-0.974,0.957-0.974c0.587,0,0.961,0.356,0.961,0.974v1.116
			c0,0.616-0.374,0.973-0.961,0.973C227.495,11.276,227.122,10.92,227.122,10.303z M228.704,10.324V9.17
			c0-0.377-0.223-0.65-0.625-0.65c-0.399,0-0.621,0.273-0.621,0.65v1.154c0,0.373,0.222,0.646,0.621,0.646
			C228.482,10.97,228.704,10.697,228.704,10.324z"/>
		<path fill="#694100" d="M229.81,8.704h-0.285V8.528l0.411-0.252h0.21v2.938h-0.336V8.704z"/>
	</g>
</g>
<g>
	<g>
		<polygon fill="#1467B1" points="13.426,117.571 13.426,137.626 34.389,129.005 34.389,108.95 		"/>
	</g>
	<g>
		<path fill="#CFD600" d="M15.815,120.194c-0.083,0-0.134-0.002-0.151-0.002l0.043-1.067c0.041,0.002,3.361,0.115,7.394-2.937
			c4.335-3.281,9.421-3.498,9.636-3.506l0.039,1.067c-0.049,0.002-4.972,0.219-9.03,3.29
			C19.799,120.025,16.622,120.194,15.815,120.194z"/>
	</g>
	<g>
		<path fill="#FFDA00" d="M15.188,134.336c-0.083,0-0.134-0.002-0.151-0.002l0.043-1.067c0.043,0.002,3.989,0.113,8.02-2.937
			c4.335-3.281,8.897-3.37,9.111-3.377l0.039,1.067c-0.049,0.002-4.447,0.091-8.505,3.162
			C19.799,134.167,15.995,134.336,15.188,134.336z"/>
	</g>
	<g>
		<path fill="#FFFFFF" d="M17.801,120.762v3.311c0,0.99,0.615,1.493,1.704,1.493c1.117,0,1.732-0.478,1.732-1.493v-3.311h2.123
			v3.226c0,1.775-1.467,2.62-3.925,2.62c-2.375,0-3.772-0.802-3.772-2.637v-3.209H17.801z"/>
		<path fill="#FFFFFF" d="M32.119,126.352c-0.391,0.119-1.271,0.247-2.417,0.247c-3.255,0-4.931-1.237-4.931-2.876
			c0-1.963,2.291-3.055,5.141-3.055c1.104,0,1.942,0.137,2.319,0.256l-0.433,1.033c-0.433-0.111-1.034-0.213-1.788-0.213
			c-1.69,0-3.003,0.623-3.003,1.903c0,1.152,1.118,1.878,3.017,1.878c0.643,0,1.355-0.085,1.774-0.188L32.119,126.352z"/>
	</g>
</g>
<g>
	<path d="M65.147,74.887c0-1.714,0.562-3.347,1.821-5.356l4.793-7.552h3.188v1.259l-3.643,5.597c0.482-0.08,0.938-0.134,1.58-0.134
		c2.945,0,5.383,1.955,5.383,5.811c0,4.231-2.598,6.614-6.562,6.614C67.744,81.126,65.147,78.743,65.147,74.887z M74.787,74.726
		c0-1.955-0.964-3.213-3.106-3.213c-2.249,0-3.053,1.419-3.053,3.213c0,1.955,1.044,3.24,3.079,3.24
		C73.744,77.967,74.787,76.681,74.787,74.726z"/>
	<path d="M80.889,74.887c0-1.714,0.562-3.347,1.821-5.356l4.793-7.552h3.188v1.259l-3.643,5.597c0.482-0.08,0.938-0.134,1.58-0.134
		c2.945,0,5.383,1.955,5.383,5.811c0,4.231-2.598,6.614-6.562,6.614C83.487,81.126,80.889,78.743,80.889,74.887z M90.53,74.726
		c0-1.955-0.964-3.213-3.106-3.213c-2.249,0-3.053,1.419-3.053,3.213c0,1.955,1.044,3.24,3.079,3.24
		C89.486,77.967,90.53,76.681,90.53,74.726z"/>
	<path d="M96.632,74.887c0-1.714,0.562-3.347,1.821-5.356l4.793-7.552h3.187v1.259l-3.642,5.597c0.482-0.08,0.938-0.134,1.58-0.134
		c2.945,0,5.383,1.955,5.383,5.811c0,4.231-2.598,6.614-6.562,6.614C99.23,81.126,96.632,78.743,96.632,74.887z M106.273,74.726
		c0-1.955-0.964-3.213-3.106-3.213c-2.249,0-3.053,1.419-3.053,3.213c0,1.955,1.044,3.24,3.079,3.24
		C105.229,77.967,106.273,76.681,106.273,74.726z"/>
	<path d="M112.374,74.887c0-1.714,0.562-3.347,1.821-5.356l4.793-7.552h3.187v1.259l-3.642,5.597c0.482-0.08,0.938-0.134,1.58-0.134
		c2.945,0,5.383,1.955,5.383,5.811c0,4.231-2.598,6.614-6.562,6.614C114.972,81.126,112.374,78.743,112.374,74.887z M122.015,74.726
		c0-1.955-0.964-3.213-3.106-3.213c-2.249,0-3.053,1.419-3.053,3.213c0,1.955,1.044,3.24,3.079,3.24
		C120.971,77.967,122.015,76.681,122.015,74.726z"/>
	<path d="M128.33,70.763h8.784v3.16h-8.784V70.763z"/>
	<path d="M140.486,74.726v-6.749c0-4.204,2.49-6.4,6.4-6.4c3.937,0,6.427,2.196,6.427,6.4v6.749c0,4.204-2.49,6.399-6.427,6.399
		C142.976,81.126,140.486,78.93,140.486,74.726z M149.831,74.914V67.79c0-1.714-0.938-3.053-2.945-3.053
		c-1.982,0-2.919,1.339-2.919,3.053v7.124c0,1.714,0.937,3.053,2.919,3.053C148.894,77.967,149.831,76.628,149.831,74.914z"/>
	<path d="M156.952,74.726v-6.749c0-4.204,2.49-6.4,6.4-6.4c3.937,0,6.427,2.196,6.427,6.4v6.749c0,4.204-2.49,6.399-6.427,6.399
		C159.442,81.126,156.952,78.93,156.952,74.726z M166.297,74.914V67.79c0-1.714-0.938-3.053-2.945-3.053
		c-1.982,0-2.919,1.339-2.919,3.053v7.124c0,1.714,0.937,3.053,2.919,3.053C165.36,77.967,166.297,76.628,166.297,74.914z"/>
	<path d="M174.594,66.693h-1.848v-1.848l4.445-2.866h0.884v18.745h-3.481V66.693z"/>
</g>
<g>
	<path fill="#E30613" d="M106.921,130.739c0,1.305-1.058,2.363-2.361,2.363H85.655c-1.305,0-2.361-1.058-2.361-2.363v-18.904
		c0-1.303,1.057-2.361,2.361-2.361h18.905c1.303,0,2.361,1.058,2.361,2.361V130.739z"/>
	<path fill="#FFFFFF" d="M95.106,130.044c-4.415,0-6.389-3.518-6.389-7.004c0-4.91,3.405-10.506,6.389-10.506
		c2.989,0,6.396,5.596,6.396,10.506C101.502,126.527,99.526,130.044,95.106,130.044L95.106,130.044z"/>
</g>
<g>
	<g>
		<path fill="#694100" d="M174.506,127.067l0.513-1.17l-1.737-4.285v-0.342h0.675l1.414,3.654l1.386-3.654h0.657v0.342l-2.305,5.726
			h-0.603V127.067z"/>
		<path fill="#694100" d="M178.16,124.303v-1.422c0-1.026,0.721-1.72,1.927-1.72c1.17,0,1.872,0.666,1.872,1.701v0.964h-3.078v0.459
			c0,0.621,0.414,1.062,1.206,1.062c0.693,0,1.044-0.343,1.125-0.838h0.721c-0.081,0.909-0.729,1.495-1.846,1.495
			C178.88,126.006,178.16,125.339,178.16,124.303z M181.239,123.241v-0.378c0-0.603-0.396-1.044-1.18-1.044
			c-0.765,0-1.179,0.432-1.179,1.044v0.378H181.239z"/>
		<path fill="#694100" d="M183.236,119.551h0.721v6.347h-0.721V119.551z"/>
		<path fill="#694100" d="M185.45,119.551h0.721v6.347h-0.721V119.551z"/>
		<path fill="#694100" d="M187.456,124.286v-1.404c0-0.973,0.648-1.72,1.927-1.72s1.918,0.747,1.918,1.72v1.404
			c0,0.972-0.64,1.72-1.918,1.72S187.456,125.258,187.456,124.286z M190.58,124.259v-1.351c0-0.603-0.387-1.089-1.197-1.089
			c-0.792,0-1.206,0.477-1.206,1.089v1.351c0,0.612,0.414,1.09,1.206,1.09C190.194,125.348,190.58,124.862,190.58,124.259z"/>
		<path fill="#694100" d="M196.286,124.925l0.864-3.654h0.648v0.342l-1.071,4.285h-0.702l-0.981-2.638l-0.99,2.638h-0.711
			l-1.072-4.285v-0.342h0.657l0.874,3.654l0.981-2.781h0.521L196.286,124.925z"/>
		<path fill="#694100" d="M198.779,124.286v-1.404c0-1.026,0.702-1.72,1.891-1.72c1.144,0,1.863,0.639,1.863,1.656v0.045h-0.72
			v-0.054c0-0.576-0.414-0.99-1.144-0.99c-0.774,0-1.17,0.432-1.17,1.044v1.44c0,0.612,0.396,1.045,1.17,1.045
			c0.738,0,1.144-0.424,1.144-1.009v-0.062h0.72v0.054c0,1.008-0.729,1.675-1.863,1.675
			C199.481,126.006,198.779,125.312,198.779,124.286z"/>
		<path fill="#694100" d="M203.468,124.664c0-0.945,0.647-1.477,1.917-1.477h1.161v-0.459c0-0.54-0.342-0.909-1.071-0.909
			c-0.711,0-1.062,0.369-1.062,0.855h-0.702c0-0.864,0.567-1.513,1.765-1.513c1.207,0,1.792,0.648,1.792,1.521v3.214h-0.433
			l-0.27-0.585c-0.279,0.314-0.847,0.693-1.566,0.693C204.179,126.006,203.468,125.573,203.468,124.664z M206.546,124.7v-0.928
			h-1.161c-0.855,0-1.197,0.333-1.197,0.811c0,0.531,0.414,0.766,0.954,0.766C205.754,125.348,206.249,124.997,206.546,124.7z"/>
		<path fill="#694100" d="M208.705,121.27h0.378l0.262,0.611c0.314-0.351,0.864-0.72,1.512-0.72h0.117v0.702h-0.099
			c-0.612,0-1.09,0.216-1.449,0.648v3.385h-0.721V121.27z"/>
		<path fill="#694100" d="M211.792,124.303v-1.44c0-1.107,0.684-1.701,1.656-1.701c0.685,0,1.188,0.342,1.468,0.675v-2.286h0.72
			v6.347h-0.432l-0.252-0.612c-0.315,0.36-0.828,0.721-1.531,0.721C212.486,126.006,211.792,125.411,211.792,124.303z
			 M214.916,124.619v-2.07c-0.324-0.352-0.792-0.729-1.368-0.729c-0.612,0-1.036,0.441-1.036,1.099v1.332
			c0,0.657,0.424,1.099,1.045,1.099C214.133,125.348,214.592,124.97,214.916,124.619z"/>
		<path fill="#694100" d="M217.057,124.709h0.847v1.188h-0.847V124.709z"/>
		<path fill="#694100" d="M220,125.285l-0.252,0.612h-0.433v-6.347h0.721v2.286c0.278-0.333,0.783-0.675,1.467-0.675
			c0.973,0,1.657,0.594,1.657,1.701v1.44c0,1.107-0.693,1.702-1.63,1.702C220.837,126.006,220.315,125.645,220,125.285z
			 M222.44,124.25v-1.332c0-0.657-0.423-1.099-1.035-1.099c-0.576,0-1.044,0.378-1.368,0.729v2.07
			c0.324,0.351,0.783,0.729,1.359,0.729C222.017,125.348,222.44,124.907,222.44,124.25z"/>
		<path fill="#694100" d="M225.202,127.067l0.513-1.17l-1.737-4.285v-0.342h0.675l1.414,3.654l1.386-3.654h0.657v0.342l-2.305,5.726
			h-0.603V127.067z"/>
	</g>
</g>
<g>
	<g>
		<path d="M189.045,66.532h3.614v0.399h-3.614V66.532z"/>
		<path d="M195.742,67.827V66.58c0-0.88,0.592-1.512,1.646-1.512c1.04,0,1.623,0.616,1.623,1.504v0.775h-2.838v0.472
			c0,0.647,0.424,1.111,1.215,1.111c0.729,0,1.088-0.376,1.16-0.903h0.432c-0.064,0.783-0.616,1.303-1.592,1.303
			C196.333,69.33,195.742,68.715,195.742,67.827z M198.579,66.964v-0.392c0-0.632-0.399-1.104-1.207-1.104
			c-0.775,0-1.199,0.464-1.199,1.104v0.392H198.579z"/>
		<path d="M199.789,68.85h0.367c0.328-0.368,0.584-0.903,0.584-1.999v-1.687h2.798v3.686h0.616v1.439h-0.432v-1.056h-3.502v1.056
			h-0.432V68.85z M203.107,68.85v-3.302h-1.95v1.358c0,1.023-0.248,1.535-0.521,1.943H203.107z"/>
		<path d="M205.172,65.165h0.432v3.405l2.479-3.405h0.433v4.069h-0.433v-3.398l-2.479,3.398h-0.432V65.165z"/>
		<path d="M209.892,65.165h0.432v1.847h2.398v-1.847h0.433v4.069h-0.433v-1.839h-2.398v1.839h-0.432V65.165z"/>
		<path d="M214.532,65.165h0.432v1.479h1.472c0.743,0,1.239,0.479,1.239,1.304c0,0.815-0.496,1.287-1.239,1.287h-1.903V65.165z
			 M216.33,68.85c0.552,0,0.912-0.344,0.912-0.903c0-0.576-0.36-0.92-0.903-0.92h-1.376v1.823H216.33z M218.45,65.165h0.432v4.069
			h-0.432V65.165z"/>
		<path d="M220.259,65.165h0.432v3.405l2.479-3.405h0.432v4.069h-0.432v-3.398l-2.479,3.398h-0.432V65.165z M220.715,63.573v-0.096
			h0.392v0.088c0,0.479,0.312,0.752,0.823,0.752c0.504,0,0.824-0.272,0.824-0.752v-0.088h0.392v0.096
			c0,0.696-0.504,1.096-1.216,1.096C221.21,64.669,220.715,64.269,220.715,63.573z"/>
		<path d="M196.213,74.165h0.432v1.847h2.399v-1.847h0.432v4.069h-0.432v-1.839h-2.399v1.839h-0.432V74.165z"/>
		<path d="M200.669,76.819V75.58c0-0.848,0.552-1.512,1.646-1.512c1.104,0,1.647,0.664,1.647,1.512v1.239
			c0,0.855-0.544,1.511-1.647,1.511C201.221,78.33,200.669,77.675,200.669,76.819z M203.532,76.803v-1.207
			c0-0.632-0.392-1.127-1.216-1.127c-0.791,0-1.215,0.487-1.215,1.127v1.207c0,0.648,0.424,1.128,1.215,1.128
			C203.14,77.93,203.532,77.434,203.532,76.803z"/>
		<path d="M205.157,74.165h0.432l1.592,2.103l1.575-2.103h0.432v4.069h-0.432v-3.391l-1.464,1.928h-0.231l-1.472-1.928v3.391h-0.432
			V74.165z"/>
		<path d="M210.381,76.827V75.58c0-0.88,0.592-1.512,1.646-1.512c1.04,0,1.624,0.616,1.624,1.504v0.775h-2.839v0.472
			c0,0.647,0.424,1.111,1.215,1.111c0.728,0,1.088-0.376,1.16-0.903h0.432c-0.064,0.783-0.616,1.303-1.592,1.303
			C210.973,78.33,210.381,77.715,210.381,76.827z M213.219,75.964v-0.392c0-0.632-0.399-1.104-1.207-1.104
			c-0.775,0-1.199,0.464-1.199,1.104v0.392H213.219z"/>
		<path d="M218.131,75.572v1.255c0,0.928-0.552,1.503-1.438,1.503c-0.64,0-1.136-0.352-1.424-0.688v1.871h-0.432v-5.349h0.271
			l0.137,0.615c0.312-0.352,0.815-0.712,1.463-0.712C217.572,74.068,218.131,74.644,218.131,75.572z M217.7,76.795v-1.191
			c0-0.663-0.384-1.135-1.047-1.135c-0.568,0-1.056,0.384-1.384,0.743v1.975c0.328,0.36,0.815,0.744,1.375,0.744
			C217.316,77.93,217.7,77.459,217.7,76.795z"/>
	</g>
</g>
<g>
	<path fill="#0072BB" d="M64.691,126.722c0.129-2.002,0.257-3.993,0.387-6.001c0.056,0,0.101,0,0.147,0
		c2.151,0,4.303,0.001,6.454-0.002c0.114,0,0.147,0.031,0.146,0.145c-0.005,0.635-0.004,1.271-0.001,1.907
		c0,0.086-0.027,0.135-0.101,0.178c-0.488,0.288-1.023,0.425-1.578,0.499c-0.785,0.104-1.558,0.009-2.348-0.164
		c-0.037,0.432-0.074,0.857-0.113,1.309c0.19-0.016,0.368-0.035,0.547-0.044c0.836-0.041,1.663-0.007,2.466,0.264
		c0.618,0.209,1.1,0.61,1.51,1.098c0.649,0.772,0.813,1.689,0.735,2.663c-0.101,1.255-0.707,2.237-1.685,2.998
		c-0.475,0.369-1.039,0.54-1.625,0.634c-0.725,0.117-1.455,0.103-2.183,0.029c-0.5-0.051-0.988-0.152-1.459-0.331
		c-0.642-0.245-1.112-0.681-1.464-1.264c-0.391-0.648-0.614-1.344-0.642-2.101c-0.001-0.027,0.002-0.054,0.004-0.091
		c0.047-0.003,0.089-0.007,0.131-0.007c0.943,0,1.887,0.002,2.83-0.003c0.112-0.001,0.152,0.027,0.148,0.143
		c-0.009,0.286,0.021,0.567,0.144,0.831c0.241,0.519,0.859,0.754,1.377,0.527c0.204-0.09,0.324-0.257,0.425-0.443
		c0.141-0.26,0.229-0.538,0.243-0.833c0.017-0.366,0.042-0.734-0.046-1.096c-0.097-0.401-0.359-0.638-0.749-0.758
		c-0.749-0.23-1.515-0.242-2.286-0.199C65.639,126.636,65.176,126.683,64.691,126.722z"/>
	<path fill="#0072BB" d="M53.864,128.303c0.077-0.004,0.119-0.007,0.162-0.007c0.936,0,1.871,0.002,2.807-0.003
		c0.111-0.001,0.14,0.03,0.154,0.142c0.037,0.296,0.076,0.595,0.152,0.883c0.126,0.476,0.378,0.671,0.872,0.699
		c0.163,0.009,0.333-0.007,0.492-0.045c0.228-0.054,0.383-0.213,0.474-0.428c0.197-0.466,0.222-0.95,0.128-1.439
		c-0.087-0.455-0.405-0.701-0.827-0.815c-0.195-0.052-0.404-0.058-0.608-0.069c-0.22-0.011-0.441-0.003-0.67-0.003
		c0-0.757,0-1.505,0-2.263c0.314,0,0.626,0.015,0.936-0.005c0.213-0.013,0.434-0.046,0.632-0.12
		c0.337-0.127,0.537-0.385,0.579-0.755c0.032-0.285,0.044-0.57-0.057-0.842c-0.106-0.288-0.318-0.459-0.629-0.501
		c-0.239-0.032-0.477-0.032-0.696,0.073c-0.321,0.153-0.476,0.438-0.544,0.772c-0.028,0.137-0.024,0.282-0.023,0.424
		c0.001,0.076-0.014,0.107-0.095,0.107c-0.995-0.002-1.99-0.001-2.984-0.002c-0.023,0-0.045-0.007-0.083-0.013
		c0.011-0.113,0.016-0.222,0.033-0.329c0.091-0.584,0.266-1.141,0.617-1.62c0.584-0.796,1.342-1.341,2.327-1.546
		c0.792-0.165,1.591-0.176,2.391-0.112c0.573,0.046,1.138,0.151,1.639,0.451c0.618,0.37,1.14,0.846,1.379,1.548
		c0.378,1.106,0.127,2.381-1.017,3.07c-0.229,0.138-0.498,0.21-0.747,0.314c-0.035,0.015-0.065,0.044-0.097,0.066
		c0.031,0.018,0.06,0.046,0.094,0.054c0.55,0.127,1.024,0.391,1.442,0.77c0.369,0.335,0.58,0.754,0.678,1.231
		c0.124,0.604,0.134,1.212,0.015,1.822c-0.124,0.638-0.446,1.139-0.962,1.533c-0.675,0.515-1.438,0.793-2.272,0.886
		c-0.919,0.102-1.835,0.077-2.742-0.122c-0.799-0.175-1.444-0.605-1.993-1.198c-0.428-0.463-0.718-0.998-0.834-1.617
		C53.926,128.972,53.905,128.642,53.864,128.303z"/>
	<path fill="#0072BB" d="M51.358,132.02c-1.832,0-3.657,0-5.489,0c0-0.692,0-1.377,0-2.074c0.045-0.002,0.087-0.006,0.129-0.007
		c0.189-0.002,0.379,0.002,0.568-0.006c0.239-0.01,0.375-0.15,0.388-0.389c0.002-0.039,0.002-0.079,0.002-0.118
		c0-1.369,0-2.739,0-4.108c0-0.039,0-0.078,0-0.133c-0.056,0-0.102,0-0.148,0c-0.339,0-0.679-0.003-1.018,0.002
		c-0.089,0.001-0.114-0.029-0.114-0.116c0.003-0.584,0.004-1.168-0.001-1.752c-0.001-0.086,0.033-0.125,0.104-0.161
		c0.68-0.341,1.264-0.805,1.716-1.416c0.201-0.272,0.345-0.589,0.503-0.892c0.047-0.091,0.089-0.133,0.199-0.132
		c0.667,0.006,1.334,0.006,2.001,0.001c0.118-0.001,0.143,0.037,0.143,0.148c-0.003,2.786-0.003,5.573-0.002,8.359
		c0,0.122,0.008,0.245,0.026,0.365c0.037,0.245,0.136,0.333,0.385,0.344c0.173,0.008,0.347,0.006,0.521,0.004
		c0.069-0.001,0.098,0.018,0.098,0.093c-0.003,0.647-0.002,1.294-0.003,1.942C51.367,131.984,51.363,131.995,51.358,132.02z"/>
	<g>
		<path d="M46.575,111.763h-0.562v-0.354h1.596v0.354h-0.562v1.357h-0.471V111.763z"/>
		<path d="M48.329,113.164c-0.082,0-0.158-0.01-0.229-0.029c-0.07-0.021-0.132-0.051-0.186-0.093
			c-0.053-0.042-0.094-0.095-0.124-0.159c-0.029-0.064-0.045-0.141-0.045-0.229c0-0.097,0.018-0.177,0.052-0.24
			c0.034-0.062,0.078-0.113,0.133-0.15c0.054-0.037,0.115-0.065,0.185-0.084c0.07-0.02,0.14-0.034,0.211-0.045
			c0.07-0.011,0.14-0.021,0.208-0.026c0.068-0.007,0.129-0.017,0.183-0.03c0.053-0.013,0.095-0.032,0.126-0.058
			c0.03-0.025,0.045-0.062,0.043-0.111c0-0.048-0.009-0.088-0.025-0.119c-0.017-0.03-0.038-0.055-0.066-0.071
			c-0.027-0.017-0.06-0.027-0.096-0.032c-0.036-0.006-0.075-0.009-0.117-0.009c-0.093,0-0.166,0.02-0.219,0.06
			s-0.084,0.106-0.093,0.198H47.8c0.006-0.107,0.034-0.198,0.082-0.272c0.049-0.074,0.11-0.133,0.186-0.178
			c0.075-0.044,0.159-0.075,0.252-0.094s0.188-0.028,0.284-0.028c0.087,0,0.174,0.006,0.262,0.019
			c0.089,0.012,0.169,0.035,0.242,0.071c0.072,0.035,0.132,0.085,0.179,0.148c0.046,0.064,0.069,0.146,0.069,0.248v0.891
			c0,0.077,0.004,0.151,0.013,0.222c0.01,0.071,0.024,0.124,0.047,0.159h-0.477c-0.009-0.026-0.017-0.054-0.021-0.081
			c-0.006-0.027-0.01-0.056-0.012-0.084c-0.075,0.077-0.163,0.131-0.265,0.162C48.539,113.148,48.436,113.164,48.329,113.164z
			 M48.505,112.852c0.093,0,0.164-0.015,0.215-0.046s0.088-0.068,0.112-0.111s0.039-0.086,0.045-0.13
			c0.006-0.045,0.009-0.08,0.009-0.106v-0.176c-0.021,0.018-0.045,0.032-0.073,0.042s-0.061,0.018-0.096,0.024
			s-0.072,0.013-0.109,0.017c-0.038,0.005-0.075,0.01-0.112,0.017c-0.038,0.007-0.073,0.016-0.106,0.026
			c-0.033,0.012-0.062,0.026-0.088,0.045s-0.046,0.042-0.061,0.071c-0.016,0.028-0.023,0.065-0.023,0.109s0.008,0.08,0.023,0.107
			c0.015,0.027,0.036,0.05,0.062,0.066s0.058,0.027,0.093,0.034S48.467,112.852,48.505,112.852z"/>
		<path d="M49.72,111.409h0.47v0.699l0.629-0.699h0.554l-0.716,0.755l0.808,0.957h-0.569l-0.605-0.712l-0.1,0.109v0.603h-0.47
			V111.409z"/>
		<path d="M52.432,113.164c-0.131,0-0.249-0.021-0.354-0.064c-0.106-0.043-0.196-0.104-0.271-0.181s-0.134-0.169-0.176-0.276
			c-0.042-0.106-0.062-0.225-0.062-0.353c0-0.132,0.02-0.255,0.058-0.369c0.039-0.113,0.096-0.212,0.171-0.295
			c0.075-0.082,0.166-0.146,0.274-0.193c0.108-0.046,0.231-0.069,0.371-0.069c0.102,0,0.199,0.014,0.293,0.04
			s0.178,0.066,0.251,0.12c0.074,0.055,0.135,0.122,0.181,0.204c0.047,0.082,0.073,0.177,0.079,0.284h-0.46
			c-0.03-0.196-0.146-0.294-0.348-0.294c-0.075,0-0.138,0.017-0.188,0.051s-0.092,0.078-0.124,0.133
			c-0.032,0.054-0.055,0.114-0.067,0.181c-0.014,0.065-0.021,0.13-0.021,0.191s0.007,0.125,0.021,0.188
			c0.013,0.064,0.034,0.122,0.064,0.174c0.029,0.053,0.069,0.095,0.12,0.128s0.113,0.05,0.186,0.05c0.112,0,0.199-0.031,0.26-0.095
			c0.061-0.062,0.099-0.147,0.114-0.253h0.454c-0.031,0.228-0.119,0.4-0.266,0.52C52.845,113.104,52.659,113.164,52.432,113.164z"/>
		<path d="M53.521,111.409h0.45v1.159l0.646-1.159h0.533v1.712H54.7v-1.158l-0.646,1.158h-0.533V111.409z"/>
	</g>
	<g>
		<path d="M47.733,117.664c-0.25,0-0.472-0.043-0.667-0.129c-0.196-0.085-0.361-0.203-0.496-0.354
			c-0.136-0.15-0.239-0.327-0.312-0.529c-0.072-0.203-0.108-0.422-0.108-0.656c0-0.237,0.036-0.46,0.108-0.667
			c0.072-0.208,0.176-0.388,0.312-0.541c0.135-0.153,0.3-0.273,0.496-0.361c0.195-0.087,0.417-0.13,0.667-0.13
			c0.174,0,0.341,0.025,0.5,0.076s0.302,0.126,0.426,0.224c0.125,0.098,0.228,0.218,0.31,0.362c0.081,0.145,0.132,0.31,0.153,0.496
			h-0.686c-0.012-0.081-0.039-0.155-0.081-0.224c-0.042-0.067-0.095-0.127-0.158-0.178c-0.062-0.051-0.135-0.091-0.214-0.119
			c-0.08-0.028-0.163-0.043-0.25-0.043c-0.159,0-0.295,0.03-0.406,0.093c-0.111,0.062-0.201,0.144-0.271,0.247
			c-0.069,0.104-0.119,0.222-0.15,0.354c-0.032,0.132-0.048,0.269-0.048,0.41c0,0.135,0.016,0.267,0.048,0.395
			c0.031,0.128,0.081,0.242,0.15,0.345s0.159,0.184,0.271,0.246c0.111,0.062,0.247,0.092,0.406,0.092
			c0.216,0,0.385-0.066,0.507-0.198s0.196-0.307,0.224-0.522h0.685c-0.018,0.204-0.064,0.387-0.14,0.547
			c-0.075,0.161-0.174,0.299-0.298,0.413c-0.123,0.114-0.268,0.201-0.433,0.262C48.113,117.634,47.931,117.664,47.733,117.664z"/>
		<path d="M50.794,114.968h-0.965v-0.595h2.637v0.595h-0.964v2.624h-0.708V114.968z"/>
		<path d="M54.729,117.664c-0.25,0-0.472-0.043-0.667-0.129c-0.196-0.085-0.361-0.203-0.496-0.354
			c-0.136-0.15-0.239-0.327-0.312-0.529c-0.072-0.203-0.108-0.422-0.108-0.656c0-0.237,0.036-0.46,0.108-0.667
			c0.072-0.208,0.176-0.388,0.312-0.541c0.135-0.153,0.3-0.273,0.496-0.361c0.195-0.087,0.417-0.13,0.667-0.13
			c0.246,0,0.468,0.043,0.665,0.13c0.196,0.088,0.362,0.208,0.498,0.361c0.135,0.153,0.238,0.333,0.311,0.541
			c0.072,0.207,0.108,0.43,0.108,0.667c0,0.234-0.036,0.453-0.108,0.656c-0.072,0.202-0.176,0.379-0.311,0.529
			c-0.136,0.15-0.302,0.269-0.498,0.354C55.197,117.621,54.975,117.664,54.729,117.664z M54.729,117.073
			c0.159,0,0.294-0.03,0.405-0.092c0.111-0.062,0.201-0.144,0.271-0.246s0.119-0.217,0.151-0.345
			c0.031-0.128,0.047-0.26,0.047-0.395c0-0.142-0.016-0.278-0.047-0.41c-0.032-0.133-0.082-0.25-0.151-0.354
			c-0.069-0.104-0.159-0.186-0.271-0.247c-0.111-0.062-0.246-0.093-0.405-0.093s-0.295,0.03-0.406,0.093
			c-0.111,0.062-0.201,0.144-0.271,0.247c-0.069,0.104-0.119,0.222-0.15,0.354c-0.032,0.132-0.048,0.269-0.048,0.41
			c0,0.135,0.016,0.267,0.048,0.395c0.031,0.128,0.081,0.242,0.15,0.345s0.159,0.184,0.271,0.246
			C54.434,117.043,54.57,117.073,54.729,117.073z"/>
		<path d="M57.293,117.628c-0.111,0-0.213-0.019-0.307-0.054v-0.577c0.013,0.006,0.029,0.01,0.052,0.014
			c0.023,0.003,0.042,0.004,0.057,0.004c0.114,0,0.208-0.037,0.282-0.112c0.073-0.075,0.131-0.192,0.171-0.352
			c0.041-0.159,0.068-0.365,0.084-0.618c0.015-0.252,0.022-0.556,0.022-0.91v-0.649h2.321v3.219h-0.708v-2.624h-0.942
			c-0.009,0.373-0.021,0.722-0.038,1.046c-0.017,0.325-0.057,0.606-0.119,0.846c-0.063,0.239-0.162,0.427-0.298,0.563
			C57.736,117.559,57.543,117.628,57.293,117.628z"/>
		<path d="M61.044,114.373h0.703v2.231h0.013l1.227-2.231h0.794v3.219h-0.704v-2.236h-0.013l-1.227,2.236h-0.793V114.373z"/>
		<path d="M67.247,117.592h-2.394v-3.219h0.707v2.624h1.263v-2.624h0.708v2.624h0.355v1.329h-0.64V117.592z"/>
		<path d="M69.574,114.373h0.726l1.203,3.219h-0.734l-0.243-0.717h-1.204l-0.252,0.717h-0.713L69.574,114.373z M70.339,116.347
			l-0.405-1.182h-0.009l-0.42,1.182H70.339z"/>
	</g>
</g>
<g>
	
		<radialGradient id="SVGID_1_" cx="145.7824" cy="121.5586" r="10.3275" fx="143.5114" fy="117.4222" gradientUnits="userSpaceOnUse">
		<stop  offset="0" style="stop-color:#7FADC4"/>
		<stop  offset="0.5435" style="stop-color:#2C7AAA"/>
		<stop  offset="1" style="stop-color:#26336E"/>
	</radialGradient>
	<path fill-rule="evenodd" clip-rule="evenodd" fill="url(#SVGID_1_)" d="M145.782,111.231c5.688,0,10.328,4.639,10.328,10.327
		c0,5.688-4.639,10.327-10.328,10.327c-5.688,0-10.328-4.639-10.328-10.327C135.455,115.871,140.094,111.231,145.782,111.231z"/>
	<radialGradient id="SVGID_2_" cx="145.7822" cy="121.2882" r="11.2564" gradientUnits="userSpaceOnUse">
		<stop  offset="0" style="stop-color:#7FADC4"/>
		<stop  offset="0.5435" style="stop-color:#2C7AAA"/>
		<stop  offset="1" style="stop-color:#26336E"/>
	</radialGradient>
	<path fill-rule="evenodd" clip-rule="evenodd" fill="url(#SVGID_2_)" d="M145.782,110.032c6.2,0,11.257,5.057,11.257,11.256
		c0,6.2-5.057,11.256-11.257,11.256c-6.2,0-11.256-5.057-11.256-11.256C134.526,115.088,139.582,110.032,145.782,110.032z"/>
	<path fill-rule="evenodd" clip-rule="evenodd" fill="#FFFFFF" d="M145.785,111.139c5.59,0,10.149,4.559,10.149,10.148
		s-4.559,10.148-10.149,10.148c-5.59,0-10.148-4.559-10.148-10.148S140.196,111.139,145.785,111.139z M145.782,110.526
		c5.93,0,10.762,4.833,10.762,10.762s-4.833,10.762-10.762,10.762c-5.929,0-10.762-4.833-10.762-10.762
		S139.853,110.526,145.782,110.526z"/>
	<path fill-rule="evenodd" clip-rule="evenodd" fill="#FFFFFF" d="M145.782,110.526c1.674,0,3.26,0.385,4.675,1.072
		c1.415,0.686,2.659,1.674,3.647,2.878c-0.988-1.179-2.224-2.145-3.626-2.816c-1.402-0.671-2.97-1.047-4.624-1.047
		c-2.965,0-5.655,1.208-7.605,3.157c-1.949,1.949-3.158,4.64-3.158,7.605c0,1.291,0.229,2.529,0.649,3.678
		c0.42,1.148,1.03,2.206,1.792,3.135c-0.784-0.935-1.412-2.005-1.844-3.168c-0.432-1.163-0.669-2.42-0.669-3.731
		c0-2.965,1.208-5.655,3.158-7.604C140.127,111.735,142.818,110.526,145.782,110.526z"/>
	<path fill-rule="evenodd" clip-rule="evenodd" fill="#797979" d="M145.786,111.139c1.388,0,2.713,0.281,3.92,0.79
		c1.207,0.508,2.296,1.244,3.214,2.152c-0.921-0.93-2.019-1.683-3.239-2.205c-1.22-0.521-2.561-0.81-3.968-0.81
		c-2.795,0-5.332,1.14-7.17,2.978c-1.839,1.839-2.978,4.376-2.978,7.171c0,1.407,0.289,2.748,0.81,3.968
		c0.521,1.22,1.275,2.318,2.205,3.239c-0.909-0.918-1.644-2.007-2.153-3.214c-0.508-1.207-0.79-2.532-0.79-3.92
		c0-2.795,1.14-5.332,2.978-7.17C140.453,112.279,142.991,111.139,145.786,111.139z"/>
	<radialGradient id="SVGID_3_" cx="127.051" cy="121.2882" r="11.2508" gradientUnits="userSpaceOnUse">
		<stop  offset="0" style="stop-color:#7FADC4"/>
		<stop  offset="0.5435" style="stop-color:#2C7AAA"/>
		<stop  offset="1" style="stop-color:#26336E"/>
	</radialGradient>
	<path fill-rule="evenodd" clip-rule="evenodd" fill="url(#SVGID_3_)" d="M127.051,110.038c6.197,0,11.251,5.054,11.251,11.251
		c0,6.197-5.054,11.251-11.251,11.251s-11.251-5.054-11.251-11.251C115.8,115.092,120.854,110.038,127.051,110.038z"/>
	<polygon fill-rule="evenodd" clip-rule="evenodd" fill="#FFFFFF" points="146.626,124.799 149.068,119.727 149.527,118.713 
		149.571,118.713 149.546,119.808 149.566,124.799 151.622,124.799 151.594,117.698 148.119,117.698 146.107,121.827 
		145.663,123.085 145.62,123.085 145.166,121.827 143.122,117.698 139.646,117.698 139.674,124.799 141.731,124.799 
		141.711,119.808 141.678,118.713 141.721,118.713 142.189,119.727 144.671,124.799 	"/>
	<path fill-rule="evenodd" clip-rule="evenodd" fill="#FFFFFF" d="M128.49,130.38c-0.217,0.036-0.418-0.12-0.455-0.337
		c0.311-0.041,0.48-0.055,0.789-0.132C128.861,130.128,128.707,130.344,128.49,130.38z M129.612,130.128
		c-0.211,0.061-0.43-0.07-0.491-0.282c0.304-0.077,0.471-0.111,0.769-0.223C129.951,129.834,129.823,130.067,129.612,130.128z
		 M130.651,129.756c-0.203,0.086-0.435-0.02-0.521-0.222c0.293-0.112,0.455-0.165,0.737-0.312
		C130.953,129.425,130.853,129.671,130.651,129.756z M131.588,129.306c-0.191,0.109-0.434,0.031-0.543-0.16
		c0.278-0.146,0.432-0.217,0.696-0.396C131.85,128.941,131.779,129.197,131.588,129.306z M132.479,128.685
		c-0.177,0.131-0.428,0.082-0.558-0.095c0.259-0.177,0.404-0.266,0.645-0.474C132.696,128.293,132.656,128.555,132.479,128.685z
		 M133.37,127.986c-0.161,0.15-0.415,0.131-0.565-0.03c0.237-0.206,0.371-0.311,0.585-0.546
		C133.54,127.571,133.531,127.836,133.37,127.986z M134.098,127.17c-0.142,0.168-0.397,0.179-0.565,0.036
		c0.211-0.232,0.332-0.352,0.517-0.61C134.219,126.739,134.241,127.003,134.098,127.17z M134.751,126.316
		c-0.122,0.183-0.374,0.224-0.557,0.102c0.183-0.255,0.288-0.389,0.443-0.667C134.82,125.873,134.873,126.133,134.751,126.316z
		 M135.299,125.407c-0.099,0.196-0.345,0.266-0.541,0.166c0.152-0.275,0.241-0.419,0.362-0.714
		C135.316,124.959,135.399,125.211,135.299,125.407z M135.999,123.29c-0.051,0.214-0.274,0.338-0.488,0.287
		c0.084-0.302,0.137-0.464,0.187-0.778C135.912,122.85,136.05,123.076,135.999,123.29z M136.219,122.208
		c-0.026,0.219-0.233,0.368-0.451,0.342c0.048-0.31,0.082-0.477,0.095-0.795C136.081,121.781,136.245,121.99,136.219,122.208z
		 M136.266,121.205c0,0.22-0.188,0.393-0.408,0.392c0.011-0.314,0.026-0.483,0.001-0.8
		C136.079,120.798,136.266,120.985,136.266,121.205z M135.977,119.034c0.062,0.211-0.07,0.43-0.281,0.492
		c-0.078-0.304-0.111-0.471-0.225-0.769C135.683,118.696,135.916,118.823,135.977,119.034z M135.66,117.996
		c0.086,0.202-0.019,0.435-0.221,0.521c-0.113-0.293-0.166-0.455-0.313-0.737C135.328,117.694,135.574,117.793,135.66,117.996z
		 M135.227,116.993c0.109,0.191,0.032,0.434-0.159,0.543c-0.146-0.278-0.218-0.432-0.397-0.695
		C134.863,116.732,135.118,116.802,135.227,116.993z M134.647,116.098c0.13,0.177,0.082,0.427-0.095,0.558
		c-0.177-0.259-0.266-0.404-0.475-0.644C134.254,115.882,134.516,115.921,134.647,116.098z M127.054,111.139
		c5.59,0,10.149,4.559,10.149,10.148s-4.559,10.148-10.149,10.148c-5.59,0-10.149-4.559-10.149-10.148
		S121.465,111.139,127.054,111.139z M127.051,110.526c5.929,0,10.762,4.833,10.762,10.762c0,5.929-4.833,10.762-10.762,10.762
		c-5.929,0-10.762-4.833-10.762-10.762C116.289,115.359,121.122,110.526,127.051,110.526z M129.583,129.45
		c0.141-0.689-0.112-1.226-0.465-1.778c0.086-0.108,0.151-0.209,0.206-0.336c0.584,0.534,0.739,1.356,0.739,1.955
		C129.904,129.32,129.745,129.407,129.583,129.45z M127.534,129.803c1.039-0.198,1.464-0.332,1.731-1.035
		c0.108,0.382,0.101,0.548,0.065,0.765C128.732,129.673,128.158,129.771,127.534,129.803z M126.622,130.067 M127.059,129.605
		l-0.004-0.224c-1.06-0.032-1.54-0.184-1.54-0.682c0-0.541,0.62-0.606,1.547-0.577l-0.007-0.231
		c0.977,0.047,1.623,0.242,1.641,0.815C128.717,129.32,127.967,129.569,127.059,129.605z M126.828,127.773
		c-1.223-0.022-2.081,0.202-2.142,0.941c0.029,0.685,1.093,1.021,2.142,1.003v-0.22c-0.574,0-1.742-0.04-1.72-0.815
		c0.022-0.685,1.006-0.71,1.72-0.707V127.773z M126.001,128.71c-0.007-0.274,0.361-0.465,1.053-0.469v0.148
		c0.426-0.025,0.711,0.108,0.714,0.328c0.007,0.267-0.317,0.35-0.714,0.342v0.18C126.38,129.205,126.016,129.118,126.001,128.71z
		 M130.34,129.165c0-0.638-0.263-1.342-0.7-1.901l0.57,0.09c0.271,0.321,0.433,0.613,0.573,1.619
		C130.643,129.06,130.495,129.107,130.34,129.165z M126.308,128.707c0.004-0.22,0.307-0.238,0.519-0.216v0.436
		C126.586,128.945,126.305,128.916,126.308,128.707z M131.044,128.808c-0.018-0.819-0.187-0.941-0.418-1.428
		c-0.025-0.054,0.3-0.032,0.516-0.094c0.198,0.422,0.357,0.696,0.339,1.262C131.332,128.649,131.22,128.732,131.044,128.808z
		 M131.7,128.465c0-0.346-0.101-0.819-0.328-1.255c0.159-0.032,0.235-0.069,0.353-0.17c0.159,0.263,0.332,0.804,0.321,1.186
		C131.942,128.256,131.812,128.411,131.7,128.465z M126.795,128.025 M132.306,128c-0.015-0.422-0.079-0.671-0.368-1.089
		c0.051-0.032,0.292-0.249,0.303-0.249c0.281,0.346,0.325,0.631,0.4,1.071C132.616,127.816,132.382,127.964,132.306,128z
		 M132.865,127.538c-0.065-0.566-0.126-0.761-0.426-1.143c0.076-0.083,0.166-0.13,0.245-0.3c0.314,0.379,0.433,0.66,0.516,1.115
		C133.092,127.344,132.988,127.441,132.865,127.538z M126.16,127.603c-0.718,0-1.453-0.285-1.132-0.952
		c0.162-0.426,0.656-0.512,2.009-0.126c0.552,0.032,1.518-0.231,1.98,0.195c0.17,0.155,0.025,0.447-0.162,0.887L126.16,127.603z
		 M126.828,127.387v-0.31c0.371,0.054,0.57,0.184,1.205,0.021c0.09,0.011,0.061,0.083,0.032,0.126
		C127.91,127.416,127.109,127.495,126.828,127.387z M131.184,127.073c0.17-0.83-0.173-0.902-0.245-1.273
		c0.249-0.224,0.368-0.235,0.631-0.22C131.772,126.218,131.548,126.943,131.184,127.073z M133.434,126.857
		c-0.018,0.004-0.27-0.653-0.562-0.935c0.108-0.108,0.144-0.151,0.202-0.299c0.31,0.263,0.519,0.555,0.649,0.92L133.434,126.857z
		 M127.286,126.936l0.011-0.209l0.209,0.014c-0.004,0.061,0,0.097-0.011,0.166C127.444,126.925,127.379,126.929,127.286,126.936z
		 M127.708,126.922c0.011-0.069,0.011-0.112,0.043-0.162c0.051,0.007,0.094,0.021,0.152,0.011c0,0.061,0.025,0.101-0.004,0.166
		C127.809,126.947,127.787,126.947,127.708,126.922z M128.14,126.962c-0.079,0-0.007-0.083-0.032-0.134
		c0.065-0.018,0.112,0.021,0.17,0.05c0.029,0.014,0.004,0.047,0.011,0.076C128.263,126.99,128.183,126.962,128.14,126.962z
		 M126.824,126.904v-0.271c0.245-0.025,0.252,0.032,0.242,0.288L126.824,126.904z M129.929,126.262
		c0.195-0.032,0.372-0.112,0.559-0.141c0.072,0.144,0.087,0.465-0.105,0.768C130.207,126.637,130.167,126.5,129.929,126.262z
		 M127.246,125.775c0.126,0.086,0.252,0.137,0.386,0.209C127.505,126.756,127.206,126.009,127.246,125.775z M133.911,126.334
		c-0.234-0.48-0.35-0.602-0.703-0.931c0.079-0.151,0.079-0.234,0.108-0.436c0.469,0.296,0.761,0.808,0.865,1.017
		C134.131,126.085,134.034,126.179,133.911,126.334z M129.111,126.107c-1.039-0.126-1.63-0.941-2.063-1.01h-0.22v0.552
		c-0.548-0.047-0.281-0.195-0.876-0.195c-0.606,0-0.588,0.223-1.14,0.472c0.397-0.826,0.512-1.05,1.032-1.1
		c0.187,0,1.172,0.303,1.212,0.025v-1.201c0.851,0.039,1.129-0.195,1.548-0.606c0.086,0.137,0.451,0.393,0.591,0.195
		c-0.112-0.202-0.638-0.047-0.382-0.739c0.66-0.509,1.266,0.566,0.577,1.057c-0.635,0.584-1.36,0.58-2.175,0.58
		c-0.025,0.855,1.385,1.702,2.146,1.461c1.212-0.115,1.951-1.605,2.792-1.086c0.281,0.173,0.151,0.411,0.361,0.62
		c0.162-0.015,0.162-0.116,0.198-0.235c-0.541-0.35,0.292-1.01-0.898-1.118c-0.498-0.047-0.678-0.855-1.85-0.544
		c0.545-0.765,1.89-0.682,2.373-0.361c1.28,0.847,0.421,3.207,0.083,2.954C132.382,124.31,129.576,126.258,129.111,126.107z
		 M134.311,125.728c-0.173-0.375-0.548-0.876-0.938-1.136v-0.379c0.336,0.076,0.949,0.678,1.201,1.071
		c-0.09,0.18-0.159,0.314-0.242,0.451L134.311,125.728z M127.502,124.422c0.119,0.011,0.317-0.014,0.447,0.116
		c0.144,0.137,0.191,0.31,0.866,0.772C128.862,125.346,127.902,125.089,127.502,124.422z M128.223,124.365
		c0.141,0,0.368,0.025,0.451,0.134c0.141,0.173,0.3,0.454,0.97,0.735C129.013,125.288,128.119,124.588,128.223,124.365z
		 M133.265,123.791c0-0.18-0.086-0.418-0.148-0.577c0.469,0.101,1.017,0.678,1.41,1.014l0.004,0.032
		c0.491,0.436,0.325,0.487,0.148,0.822C134.502,124.657,133.615,124,133.265,123.791z M128.742,124.202
		c0.112,0,0.415-0.004,0.502,0.105c0.101,0.13,0.429,0.483,0.88,0.631C129.76,125.064,128.862,124.444,128.742,124.202z
		 M129.341,123.943c0.141-0.007,0.26-0.058,0.411,0.036c0.126,0.079,0.015,0.234,0.746,0.689
		C130.21,124.704,129.406,124.238,129.341,123.943z M129.915,123.715c0.115-0.032,0.191-0.032,0.339,0.032
		c0.278,0.13,0.072,0.274,0.635,0.548C130.578,124.368,130.001,123.979,129.915,123.715z M131.996,122.345
		c0.141-0.505,1.764,0.415,1.764,0.516c0.044-0.105,0.101-0.115,0.123-0.191c-0.166-0.123-1.075-0.714-1.338-0.747
		c-0.007-0.029,0.191-0.216,0.213-0.278c0.069-0.011,0.563,0.177,0.624,0.213c0.206-0.256-0.296-0.277-0.443-0.476
		c0.072-0.072,0.097-0.166,0.141-0.292c0.122,0.043,0.274,0.231,0.386,0.151c0.054-0.065,0.058-0.115,0.036-0.177
		c-0.404-0.267-0.346-0.086-0.245-0.577c0.555,0.054,0.35-0.108,0.061-0.26l0.057-0.332c0.126,0.04,0.353,0.083,0.285-0.13
		c-0.09-0.043-0.122-0.018-0.238-0.119c0.04-0.105,0.05-0.191,0.061-0.332c0.094-0.036,0.144-0.014,0.22-0.04
		c0.025-0.151-0.112-0.155-0.202-0.231c0.018-0.105,0.011-0.173,0.011-0.289l0.206,0.029c0.047,0.004,0.094-0.18,0.022-0.198
		c-0.134-0.04-0.382-0.166-0.473-0.314c0.797,0.112,0.884-0.263,1.281-0.512c0.043-0.029,0.238,0.022,0.314,0.086l0.108,0.242
		c-0.116,0.036-0.285-0.079-0.364-0.061c-0.029,0.173,0.058,0.173,0.058,0.202c0.086,0.032,0.422,0.134,0.454,0.245l0.065,0.224
		c-0.231-0.094-0.368-0.256-0.48-0.025c0.353,0.122,0.473,0.278,0.574,0.353c0.007,0.069,0.068,0.166,0.079,0.263
		c-0.202,0-0.411-0.256-0.595-0.166l0.004,0.011l-0.011,0.087c0.162,0.04,0.797,0.483,0.71,0.685
		c-0.202,0.011-0.451-0.307-0.599-0.195c0,0.108,0.057,0.166,0.09,0.202c0.274,0.292,0.653,0.17,0.606,0.696
		c-0.245-0.065-0.292-0.115-0.646-0.252c-0.187,0.097,0.134,0.303,0.271,0.335c0.17,0.054,0.393,0.206,0.397,0.314l0.015,0.307
		c-0.256-0.079-0.559-0.375-0.808-0.195c0,0.378,0.88,0.115,0.775,0.945c-0.267,0.051-0.469-0.292-0.685-0.292l-0.054,0.213
		c0.231,0.126,0.447,0.389,0.689,0.491l-0.057,0.325c-0.173-0.029-0.512-0.364-0.631-0.364c-0.094,0.105-0.123,0.173-0.04,0.263
		c0,0.011,0.397,0.325,0.613,0.415c-0.141,1.01-0.876-0.375-0.891,0.227c0.17,0.202,0.498,0.339,0.657,0.595
		c-0.043,0.151-0.086,0.241-0.126,0.35C134.084,123.467,133.168,122.832,131.996,122.345z M131.296,123.925
		c-0.271,0.022-0.837-0.173-0.862-0.491C130.957,123.474,130.773,123.672,131.296,123.925z M130.701,122.287
		c-0.325-0.011-1.363-0.389-1.699-0.905c0.097,0,0.909,0.645,1.746,0.682c0.656,0.029,1.45-0.119,1.738-0.523h0.025
		C132.299,122.024,131.343,122.309,130.701,122.287z M127.055,121.854v-2.528c0.051-0.025,0.281,0.523,0.296,0.595
		C127.643,121.451,127.412,121.844,127.055,121.854z M130.813,121.768c-0.66-0.054-1.489-0.418-1.922-1.064l0.011-0.004
		c0.685,0.548,1.356,0.826,1.98,0.83c0.786,0.004,1.169-0.231,2.009-0.721C132.522,121.36,131.585,121.714,130.813,121.768z
		 M130.109,121.411l-0.007-0.025L130.109,121.411z M130.784,121.27c-0.411-0.004-1.507-0.375-2.247-1.342
		c0.05-0.007,1.359,1.042,1.745,1.031c0.92,0.346,2.298-0.281,2.846-0.931C132.778,120.689,131.891,121.288,130.784,121.27z
		 M131.52,120.787c-1.97,0.198-3.361-1.901-3.361-1.901l0.025-0.061c1.143,0.974,1.749,1.72,2.882,1.771
		c1.219,0.054,1.796-0.584,2.128-1.699h0.04C133.208,119.723,132.678,120.668,131.52,120.787z M122.918,120.628
		c-0.996-0.072-1.843-0.902-1.623-1.767c0.166-0.22,0.498,0.754,1.035,0.88c0.912,0.401,1.832-0.404,2.002-0.743
		c0.119-0.234,0.372-0.278,0.501-0.159c-0.115,0.617-0.729,0.959-1.006,1.132c-0.548,0.317-1.168,0.285-1.493,0.101
		c-0.115-0.011-0.166,0.076-0.032,0.155c0.649,0.325,1.024,0.162,1.479,0.011c0.123-0.101,0.274-0.126,0.35-0.119
		C124.317,120.329,123.308,120.7,122.918,120.628z M129.421,119.315l0.382-0.119c0.223,0.418,1.096,1.01,1.832,0.66
		c0.808-0.379,0.779-1.107,0.732-1.821l0.371,0.083c0.133,0.491,0.245,1.576-0.966,2.106
		C130.824,120.639,129.846,119.99,129.421,119.315z M131.523,119.629c-0.588,0.235-1.107-0.126-1.414-0.548
		c0.087-0.061,0.299-0.26,0.397-0.27c0.119,0.436,0.469,0.537,0.815,0.426c0.397-0.13,0.584-0.653,0.191-1.078
		c0.162-0.094,0.274-0.108,0.44-0.101C132.281,119.074,131.888,119.481,131.523,119.629z M122.914,119.496
		c-0.577-0.076-0.757-0.386-0.8-0.71c0.057-0.328,0.184-0.35,0.414-0.375c-0.458,0.855,1.385,1.086,1.23-0.011
		c0.057-0.021,0.047-0.058,0.057-0.094c0-0.004-0.057-0.032-0.086-0.05c-0.487-0.35-0.804-0.263-1.457-0.112
		c-0.036,0.054-0.541,0.191-0.645,0.213v-0.007c-0.44-0.061-0.599-0.321-0.703-0.685c0.898,0.429,1.28-0.656,2.045-0.797
		c1.003-0.184,1.443,0.66,1.706,1.399c0.036,0.339-0.191,0.285-0.277,0.032c-0.191-0.764-0.592-1.024-1.407-0.945l0.004,0.274
		C124.411,117.66,124.696,119.424,122.914,119.496z M128.49,118.807c1.457-0.195,1.407-0.671,2.323-1.291
		c0.328-0.134,1.05,0.011,1.262,0.267c-1.699,0.155-1.172,0.721-2.16,1.154C129.313,119.2,128.836,118.991,128.49,118.807z
		 M124.703,118.785 M127.076,117.386c-0.216-1.846,1.652-2.351,3.058-1.922c1.244,0.433,1.955,0.602,3.21,0.306
		c-0.408,1.136-1.288,1.017-1.623,1.151c-1.14,0.079-1.342,0.898-2.388,1.489C128.436,118.746,127.196,118.414,127.076,117.386z
		 M133.511,118.042c-0.249-0.025-0.418-0.101-0.592-0.238c0-0.029,0.004-0.054,0.015-0.079c0.541,0.014,1.248-0.317,1.399-0.876
		c0.083,0.09,0.177,0.271,0.267,0.451C134.391,117.786,134.059,118.042,133.511,118.042z M127.809,117.404
		c-0.317-0.523,0.213-1.118,0.754-1.309c0.758-0.144,1.739-0.015,2.272,0.397c-0.032,0.119-0.119,0-0.187,0.043
		c-0.934-0.209-1.075,0.498-1.382,0.804C128.963,117.642,128.148,117.963,127.809,117.404z M132.847,117.494
		c-0.202-0.025-0.797-0.137-0.826-0.382c0.347-0.442,1.382-0.013,1.623-1.259c0.162,0.231,0.444,0.617,0.552,0.764
		C133.9,117.289,133.19,117.494,132.847,117.494z M132.151,117.043 M127.488,116.762c0.137-0.808,0.822-1.129,1.1-1.172
		c1.118-0.173,1.829,0.379,2.82,0.577c-0.004,0.036-0.011,0.05-0.021,0.083c-0.696,0.014-2.153-0.797-2.976-0.386
		C128.13,116.005,128.025,116.03,127.488,116.762z M127.404,115.629c0.343-0.426,1.334-0.927,1.674-0.999
		c0.873-0.22,1.385-0.22,2.193,0.321c0.188,0.191,0.242,0.321,0.242,0.408C129.327,114.696,128.847,114.771,127.404,115.629z
		 M127.134,115.265c0.433-1.363,1.962-2.38,3.39-1.778c0.299,0.17,0.714,0.509,0.299,0.725c-1.003-0.043-1.363-0.018-1.854,0.134
		c-0.429,0.134-1.05,0.267-1.695,1.125l-0.018,0.004C127.047,115.687,127.04,115.46,127.134,115.265z M132.609,115.565
		c-0.126-0.141,0.245-0.386,0.332-0.437l0.353,0.321C133.251,115.597,132.735,115.565,132.609,115.565z M132.201,115.55
		c-0.223-0.097,0.065-0.768,0.187-0.912l0.31,0.245c0.148,0.115-0.206,0.357-0.4,0.635L132.201,115.55z M131.768,115.096
		c-0.159-0.353-0.036-0.573,0.173-0.775l0.263,0.177c-0.191,0.249-0.249,0.379-0.22,0.667
		C131.989,115.233,131.88,115.207,131.768,115.096z M133.709,115.074 M125.911,114.576c0.022,0.206-0.094,0.116-0.198,0.061
		c-1.609-0.685-2.016-0.274-3.12-0.007c-0.137-0.022-0.054-0.13,0.015-0.151c0.934-0.509,1.738-0.826,2.856-0.635
		C125.464,113.855,125.695,113.938,125.911,114.576z M131.43,114.594c-0.101-0.134-0.166-0.379,0.043-0.606
		c0.13,0.076,0.202,0.126,0.299,0.216c-0.116,0.065-0.18,0.162-0.162,0.281C131.61,114.778,131.484,114.623,131.43,114.594z
		 M127.339,114.263c-0.162-0.007-0.234-0.061-0.285-0.206v-0.35c0.162,0,0.483,0.206,0.516-0.029
		c-0.245-0.137-0.325-0.083-0.516-0.184v-0.271c0.303,0.029,0.559,0.108,0.851,0.18c0.335-0.335-0.707-0.343-0.851-0.44v-0.198
		c0.743-0.032,1.483,0.079,2.197,0.274l-0.022,0.069c-0.606,0.04-1.158,0.454-1.626,0.949
		C127.563,114.1,127.502,114.27,127.339,114.263z M132.212,128.458l-0.011-0.025 M127.066,121.26l-0.015-0.029l0.015-0.015
		 M126.824,111.891l0.004,0.503c0.043-0.166,0.223-0.317,0.415-0.317c0.22,0,0.4,0.188,0.4,0.415c-0.195,0-0.389,0-0.588,0
		c-0.076,0-0.148,0.004-0.227,0.004c-1.67,0.076-3.892,0.62-5.19,1.962c-0.069,0.105-0.004,0.155,0.141,0.079
		c0.153-0.078,2.137-1.423,4.104-0.995c0.555,0.296,0.949,1.158,0.949,1.601v0.887c-0.685-0.83-2.323-1.443-3.35-1.237
		c-0.3,0.061-0.155,0.184-0.101,0.205c0.869-0.007,3.3,0.898,3.451,2.161l-0.004,5.648c0.682,0.032,0.949-0.169,1.096-0.313
		c0.227-0.224,0.472-0.775,0.401-1.295l-0.256,0.09h-0.014c-0.101,0.797-0.328,1.064-0.992,1.259v-0.332
		c0.462-0.044,0.675-0.447,0.631-1.338c-0.044-0.848-0.292-1.522-0.639-2.225v-0.649c0.339,0.674,0.642,1.969,0.866,2.2
		c0.173-0.061-0.263-1.222-0.418-1.663c0.17-0.202,0.462,0.454,0.638,0.797c0.317,0.79,1.107,3.466-0.17,3.888
		c-1.147,0.299-2.009,0.162-2.348-0.346c-0.545-0.898,0.573-1.991,0.22-2.431l-0.303-2.755c-0.22-1.93-2.889-2.597-3.942-1.356
		c-0.173,0.274,0.061,0.188,0.198,0.08c0.851-0.552,2.723-0.664,3.257,0.952c0.126,0.325,0.115,0.988-0.253,0.126
		c-0.645-1.01-1.601-1.479-2.723-0.678c-0.191,0.123-0.876,0.729-1.111,0.401c-0.418-0.538,0.53-1.298,0.498-1.634l-0.148,0.087
		c-0.667,0.559-1.122,1.926-0.696,3.001c0.065,0.278,0.379,0.527-0.223,0.664c-1.262,0.462-1.464,1.728-1.472,2.254
		c0,2.067,1.746,4.425,3.96,3.304c0.462-0.292,0.71-0.613,0.865-0.83l-0.126-0.101c-3.444,3.603-5.616-3.426-2.741-3.866
		c0.335,0.389,0.811,0.851,1.323,0.967c1.003,0.227,1.937-0.187,3.012-1.699c0.17-0.169,0.209-0.007,0.18,0.08
		c-0.108,0.573-0.729,1.381-0.833,1.605c-0.061,0.134-0.011,0.3,0.18,0.145c0.238-0.328,0.31-0.552,0.523-0.592l-0.476,1.01
		c-0.177,0.274-0.321,0.433,0.148,0.372c0.44,0,0.238,0.216,0.307,0.552c0.407,0.592-0.566,1.031-0.649,0.187
		c0.004-0.299,0.249-0.512,0.08-0.559c-0.177,0.058-0.404,0.491-0.415,0.97l-0.444,0.656l0.105,0.108l0.502-0.7
		c0.223,0.502,1.035,0.217,1.078,0.206c0.177,0.007,0.274,0.051,0.372,0.181c0.007,0.184,0.126,0.238,0.166,0.49
		c0.26,0.274-0.115,0.382-0.342,0.469c-0.905,0.339-0.963,0.887-1.327,1.324c-0.242,0.296-0.343,0.195-0.563,0.422
		c-0.162,0.285,0.223,0.408,0.292,0.555c0.108,0.223,0.336,0.53,0.653,0.664c0.206,0.069,0.332,0.122,0.014,0.303
		c-0.231,0.155-0.332,0.552-0.332,0.682c0,0.343,0.076,0.783,0.519,1.067c-0.263-0.069-0.429-0.126-0.685-0.227
		c0.231-0.288,0.025-0.375-0.018-0.447c-0.105,0.025-0.108,0.393-0.584,0.227c0.159-0.274,1.125-1.392,0.653-1.554
		c-0.382,0.642-0.53,1.381-1.356,1.237c0.364-0.274,0.927-0.57,1.19-1.421l-0.13-0.043c-0.317,0.645-0.963,1.432-1.724,1.057
		c0.332-0.159,0.555-0.299,0.732-0.44c0.159-0.13,0.876-0.746,0.617-0.88c-0.433,0.433-1.381,1.435-1.947,0.844
		c0.332-0.09,0.689-0.231,0.956-0.408c0.26-0.173,0.638-0.541,0.844-0.664l-0.086-0.173c-0.213,0.043-1.172,0.822-1.374,0.873
		c-0.303,0.076-0.545,0.285-0.967-0.18c0.545-0.054,1.046-0.209,1.288-0.361c0.195-0.123,0.901-0.465,0.988-0.469l-0.097-0.173
		c-0.494,0.17-0.894,0.754-1.973,0.754c-0.079,0-0.501-0.025-0.844-0.444l0.007-0.025c0.66,0.101,1.205,0.087,1.839-0.101
		c0.307-0.112,0.595-0.303,0.905-0.382l-0.101-0.231c-0.584,0.256-1.01,0.53-1.728,0.53c-0.808,0-0.934,0.119-1.424-0.523
		c0.086-0.101,0.678,0.191,1.086,0.191c0.887,0,1.287-0.025,2.027-0.368l-0.09-0.173c-0.249,0.108-0.833,0.282-1.367,0.303
		c-1.212,0.011-2.142-0.527-2.204-1.039c0.346,0.289,0.859,0.646,1.446,0.711c0.451,0.047,1.663-0.004,2.096-0.166l-0.072-0.17
		c-0.227,0.09-1.201,0.173-1.493,0.173c-0.62,0-1.306-0.436-1.475-0.57c-1.222-0.985-1.576-3.942-0.88-4.89
		c0.148-0.48,1.014-1.201,0.999-1.349c-0.144-1.396-0.22-1.901,0.844-3.38c-0.92,0.563-1.583,1.811-1.172,2.997
		c0.184,0.53-0.606,0.995-0.833,1.371c-1.035,1.706-0.567,3.527,0.162,5.255c0.992,2.067,3.325,4.999,7.816,5.247
		c0.321,0.025,0.491,0.011,0.804,0c0,0.223-0.173,0.411-0.393,0.411c-0.162,0-0.346-0.094-0.404-0.235l-0.018,0.429
		c-5.068-0.13-9.125-4.303-9.128-9.402C117.677,116.116,121.739,112.099,126.824,111.891z M127.055,111.884v-0.301
		c-5.619,0.022-9.68,4.483-9.673,9.695c0.007,5.421,4.104,9.611,9.673,9.734v-0.321c5.179-0.003,9.399-4.223,9.399-9.402
		S132.234,111.886,127.055,111.884z M128.342,112.157c0.219,0.026,0.366,0.25,0.341,0.468c-0.31-0.047-0.475-0.099-0.793-0.111
		C127.916,112.295,128.124,112.131,128.342,112.157z M129.392,112.373c0.214,0.051,0.342,0.293,0.291,0.507
		c-0.303-0.083-0.467-0.156-0.782-0.205C128.952,112.461,129.178,112.322,129.392,112.373z M130.38,112.705
		c0.207,0.076,0.305,0.311,0.229,0.518c-0.291-0.118-0.445-0.19-0.752-0.275C129.933,112.741,130.173,112.629,130.38,112.705z
		 M131.39,113.163c0.196,0.099,0.266,0.345,0.167,0.541c-0.275-0.151-0.42-0.24-0.715-0.361
		C130.942,113.146,131.193,113.063,131.39,113.163z M132.324,113.769c0.183,0.121,0.224,0.373,0.103,0.557
		c-0.256-0.182-0.389-0.288-0.668-0.442C131.881,113.7,132.141,113.647,132.324,113.769z M133.157,114.407
		c0.168,0.142,0.179,0.397,0.037,0.565c-0.233-0.211-0.353-0.331-0.612-0.517C132.725,114.287,132.989,114.265,133.157,114.407z
		 M133.98,115.182c0.15,0.16,0.132,0.415-0.029,0.566c-0.207-0.237-0.312-0.37-0.547-0.585
		C133.564,115.013,133.829,115.022,133.98,115.182z M136.179,120.12c0.037,0.217-0.119,0.419-0.336,0.455
		c-0.042-0.311-0.056-0.48-0.134-0.789C135.927,119.749,136.143,119.903,136.179,120.12z M135.707,124.318
		c-0.076,0.207-0.312,0.304-0.518,0.228c0.118-0.291,0.19-0.445,0.276-0.751C135.672,123.871,135.783,124.111,135.707,124.318z"/>
</g>
<g>
	<g>
		<path fill="#E30613" d="M24.439,75.842c0,0.663-0.538,1.201-1.201,1.201h-9.611c-0.663,0-1.201-0.538-1.201-1.201v-9.611
			c0-0.663,0.537-1.201,1.201-1.201h9.611c0.663,0,1.201,0.538,1.201,1.201V75.842z"/>
		<path fill="#FFFFFF" d="M18.432,75.489c-2.245,0-3.248-1.788-3.248-3.561c0-2.496,1.731-5.341,3.248-5.341
			c1.52,0,3.252,2.845,3.252,5.341C21.683,73.7,20.679,75.489,18.432,75.489L18.432,75.489z"/>
	</g>
	<g>
		<defs>
			<rect id="SVGID_4_" x="28.989" y="65.443" width="14.918" height="11.188"/>
		</defs>
		<clipPath id="SVGID_5_">
			<use xlink:href="#SVGID_4_"  overflow="visible"/>
		</clipPath>
		<polyline clip-path="url(#SVGID_5_)" fill-rule="evenodd" clip-rule="evenodd" fill="#FFF265" points="32.717,65.443 
			36.447,69.173 36.447,72.903 32.717,72.903 28.987,69.173 32.717,65.443 		"/>
		<polyline clip-path="url(#SVGID_5_)" fill-rule="evenodd" clip-rule="evenodd" fill="#FFED00" points="40.177,65.443 
			43.907,69.173 40.177,72.903 36.447,72.903 36.447,69.173 40.177,65.443 		"/>
		<polyline clip-path="url(#SVGID_5_)" fill-rule="evenodd" clip-rule="evenodd" fill="#F2DC00" points="36.447,69.173 
			40.177,72.903 36.447,76.633 32.717,72.903 36.447,69.173 		"/>
	</g>
	<path fill-rule="evenodd" clip-rule="evenodd" fill="#D12A2F" d="M51.573,65.009l-1.246-0.002c1.324,2.42,1.202,4.766,1.174,6.127
		c-0.024,1.303-0.349,3.605-1.804,6.195h1.392c0.585-0.882,1.029-1.778,1.354-2.661c0.416-1.13,0.692-2.273,0.715-3.475
		c0.026-1.39-0.16-2.882-0.691-4.228C52.161,66.197,51.958,65.559,51.573,65.009L51.573,65.009z M49.902,69.849l0.046-1.81
		l-2.143-0.001l-0.045,1.809L49.902,69.849L49.902,69.849z M49.664,74.846l0.046-1.789l-2.164-0.002l-0.045,1.79L49.664,74.846
		L49.664,74.846z"/>
</g>
</svg>
