<?xml version="1.0" encoding="utf-8"?>
<!-- Generator: Adobe Illustrator 17.0.0, SVG Export Plug-In . SVG Version: 6.00 Build 0)  -->
<!DOCTYPE svg PUBLIC "-//W3C//DTD SVG 1.1//EN" "http://www.w3.org/Graphics/SVG/1.1/DTD/svg11.dtd">
<svg version="1.1" id="Слой_1" xmlns="http://www.w3.org/2000/svg" xmlns:xlink="http://www.w3.org/1999/xlink" x="0px" y="0px"
	  viewBox="0 0 243.762 153.24" enable-background="new 0 0 243.762 153.24"
	 xml:space="preserve">
<g>
	<path fill="#FFCC00" d="M7.202,0.167H236.65c3.889,0,7.13,3.096,7.13,6.912v139.248c0,3.816-3.241,6.912-7.13,6.912H7.202
		c-3.961,0-7.202-3.097-7.202-6.912V7.079C0,3.263,3.241,0.167,7.202,0.167z"/>
</g>
<path fill-rule="evenodd" clip-rule="evenodd" fill="#FFCC00" d="M7.242,0h229.392c3.888,0,7.128,3.096,7.128,6.912V146.16
	c0,3.816-3.24,6.912-7.128,6.912H7.242c-3.96,0-7.2-3.097-7.2-6.912V6.912C0.042,3.096,3.282,0,7.242,0z"/>
<g>
	<path fill="#FFFFFF" d="M26.333,20.324h1.946v4.817h1.346l2.692-4.817l2.17-0.005l-3.225,5.584l3.516,5.773h-2.413l-2.741-4.833
		h-1.346v4.833h-1.946v-4.833h-1.444l-2.725,4.833h-2.289l3.474-5.74l-3.215-5.613h2.16l2.676,4.817h1.363V20.324z"/>
	<path fill="#FFFFFF" d="M37.168,28.044v0.698c0,0.875,0.601,1.509,1.818,1.509c0.99,0,1.525-0.439,1.67-1.12h1.785
		c-0.162,1.703-1.394,2.741-3.454,2.741c-2.19,0-3.601-1.151-3.601-3.098v-2.596c0-1.913,1.412-3.13,3.601-3.13
		c2.108,0,3.471,1.151,3.471,3.098v1.897H37.168z M37.168,26.683h3.504v-0.536c0-0.875-0.6-1.476-1.751-1.476
		c-1.152,0-1.753,0.6-1.753,1.476V26.683z"/>
	<path fill="#FFFFFF" d="M51.392,31.677h-1.784v-6.811h-2.854v3.082c0,2.563-1.297,3.729-2.854,3.729h-0.438v-1.621h0.178
		c1.054,0,1.428-0.746,1.428-2.092v-4.72h6.325V31.677z"/>
	<path fill="#FFFFFF" d="M55.349,31.677v-6.811h-2.742v-1.622h7.267v1.622h-2.741v6.811H55.349z"/>
	<path fill="#FFFFFF" d="M60.361,29.391c0-1.735,1.151-2.708,3.486-2.708h1.85v-0.665c0-0.828-0.503-1.346-1.59-1.346
		c-1.087,0-1.589,0.518-1.589,1.2h-1.735c0-1.622,1.054-2.823,3.324-2.823c2.271,0,3.374,1.201,3.374,2.854v5.773h-1.72v-0.939
		c-0.486,0.584-1.379,1.135-2.579,1.135C61.658,31.872,60.361,31.046,60.361,29.391z M65.697,29.293v-1.249h-1.85
		c-1.313,0-1.702,0.568-1.702,1.152c0,0.714,0.551,1.055,1.393,1.055C64.463,30.252,65.177,29.845,65.697,29.293z"/>
	<path fill="#FFFFFF" d="M68.663,31.667l2.142-3.2c-1.007-0.259-1.702-1.103-1.702-2.547c0-1.751,1.069-2.675,2.464-2.675h4.38
		v8.433h-1.784v-3.113h-1.443l-1.963,3.113L68.663,31.667z M72.021,24.801c-0.681,0-1.135,0.454-1.135,1.086
		c0,0.909,0.52,1.249,1.119,1.249h2.157v-2.335H72.021z"/>
	<path fill="#FFFFFF" d="M81.622,31.677v-8.433h1.786v3.439h1.004l2.417-3.439h2.099l-2.975,4.167l3.147,4.275l-2.238-0.01
		l-2.465-3.437h-0.988v3.437H81.622z"/>
	<path fill="#FFFFFF" d="M89.617,29.391c0-1.735,1.152-2.708,3.488-2.708h1.85v-0.665c0-0.828-0.504-1.346-1.59-1.346
		c-1.087,0-1.59,0.518-1.59,1.2h-1.736c0-1.622,1.055-2.823,3.326-2.823c2.271,0,3.374,1.201,3.374,2.854v5.773h-1.72v-0.939
		c-0.486,0.584-1.379,1.135-2.579,1.135C90.916,31.872,89.617,31.046,89.617,29.391z M94.955,29.293v-1.249h-1.85
		c-1.314,0-1.703,0.568-1.703,1.152c0,0.714,0.551,1.055,1.395,1.055C93.721,30.252,94.434,29.845,94.955,29.293z"/>
	<path fill="#FFFFFF" d="M105.895,26.147v2.628c0,2.125-1.363,3.098-3.051,3.098c-1.167,0-1.962-0.518-2.367-1.022v3.423h-1.784
		V23.244h1.702v0.94c0.487-0.584,1.314-1.135,2.515-1.135C104.516,23.049,105.895,24.022,105.895,26.147z M100.477,29.164
		c0.486,0.518,1.136,1.087,2.044,1.087c0.859,0,1.59-0.601,1.59-1.607v-2.369c0-1.005-0.731-1.605-1.574-1.605
		c-0.908,0-1.573,0.567-2.06,1.086V29.164z"/>
	<path fill="#FFFFFF" d="M109.397,31.677v-6.811h-2.741v-1.622h7.267v1.622h-2.741v6.811H109.397z"/>
	<path fill="#FFFFFF" d="M114.408,29.391c0-1.735,1.152-2.708,3.487-2.708h1.85v-0.665c0-0.828-0.503-1.346-1.589-1.346
		c-1.087,0-1.59,0.518-1.59,1.2h-1.736c0-1.622,1.055-2.823,3.326-2.823c2.271,0,3.374,1.201,3.374,2.854v5.773h-1.721v-0.939
		c-0.486,0.584-1.379,1.135-2.578,1.135C115.707,31.872,114.408,31.046,114.408,29.391z M119.745,29.293v-1.249h-1.85
		c-1.312,0-1.702,0.568-1.702,1.152c0,0.714,0.551,1.055,1.395,1.055C118.512,30.252,119.225,29.845,119.745,29.293z"/>
	<g>
		<polygon fill="#FFFFFF" points="202.21,14.58 194.227,31.677 200.204,31.677 205.462,20.096 		"/>
		<rect x="205.911" y="14.567" fill="#FFFFFF" width="5.681" height="17.11"/>
		<polygon fill="#FFFFFF" points="212.045,26.143 212.041,26.148 215.342,31.677 220.832,31.677 223.447,26.148 		"/>
		<polygon fill="#FFFFFF" points="201.583,14.567 196.672,14.567 194.056,20.096 198.983,20.096 		"/>
		<polygon fill="#FFFFFF" points="217.887,25.56 223.01,14.567 217.033,14.567 212.041,25.56 		"/>
	</g>
</g>
<g>
	<path fill="#FFFFFF" d="M23.207,132.127h2.522v-2.671h-3.293v-4.843h3.838c0.147,0,0.274,0.055,0.382,0.162
		c0.108,0.108,0.162,0.236,0.162,0.383c0,0.151-0.053,0.28-0.159,0.386s-0.234,0.159-0.386,0.159h-2.736v2.664h2.191
		c0.294,0,0.549,0.108,0.765,0.324c0.216,0.216,0.324,0.471,0.324,0.765v2.671c0,0.299-0.107,0.555-0.321,0.769
		s-0.47,0.32-0.768,0.32h-2.522c-0.225,0-0.464-0.054-0.719-0.161l-0.824-0.344c-0.22-0.091-0.331-0.264-0.331-0.519
		c0-0.151,0.05-0.28,0.149-0.386c0.099-0.106,0.22-0.159,0.363-0.159c0.108,0,0.233,0.032,0.376,0.098l0.72,0.305
		C23.028,132.102,23.116,132.127,23.207,132.127z"/>
	<path fill="#FFFFFF" d="M29.741,132.127h1.672v-6.424h-1.646c-0.151,0-0.28-0.054-0.386-0.159s-0.159-0.234-0.159-0.386
		s0.053-0.279,0.159-0.386c0.106-0.105,0.234-0.159,0.386-0.159h2.736v7.514h1.089v-2.269c0-0.147,0.053-0.274,0.159-0.383
		c0.105-0.107,0.234-0.162,0.385-0.162c0.151,0,0.28,0.053,0.386,0.159c0.106,0.105,0.159,0.234,0.159,0.386v2.813
		c0,0.151-0.053,0.279-0.159,0.386c-0.106,0.105-0.234,0.158-0.386,0.158h-4.395c-0.151,0-0.28-0.055-0.386-0.165
		s-0.159-0.24-0.159-0.392c0-0.147,0.053-0.272,0.159-0.376C29.462,132.179,29.59,132.127,29.741,132.127z"/>
	<path fill="#FFFFFF" d="M37.229,125.638v-0.467c0-0.151,0.053-0.279,0.159-0.386c0.106-0.105,0.234-0.158,0.386-0.158h4.94v3.345
		c0,0.178-0.067,0.324-0.201,0.44l-2.003,1.712v2.535c0,0.151-0.053,0.281-0.159,0.392s-0.234,0.165-0.386,0.165
		s-0.282-0.054-0.392-0.161c-0.11-0.108-0.166-0.236-0.166-0.383v-2.75c0-0.207,0.064-0.367,0.193-0.479l2.011-1.701v-2.025h-3.293
		c-0.078,0.312-0.259,0.467-0.545,0.467c-0.151,0-0.28-0.053-0.386-0.159C37.282,125.918,37.229,125.789,37.229,125.638z"/>
	<path fill="#FFFFFF" d="M50.758,125.703v2.042c0,0.476-0.147,0.859-0.44,1.153c0.302,0.338,0.454,0.705,0.454,1.103v2.126
		c0,0.299-0.108,0.555-0.324,0.769s-0.476,0.32-0.778,0.32h-3.851c-0.151,0-0.28-0.053-0.386-0.158
		c-0.106-0.106-0.159-0.234-0.159-0.386s0.053-0.28,0.159-0.386c0.105-0.106,0.234-0.159,0.386-0.159h3.837v-2.126
		c0-0.151-0.053-0.282-0.159-0.393s-0.234-0.165-0.386-0.165h-2.191c-0.151,0-0.28-0.052-0.386-0.155
		c-0.106-0.104-0.159-0.233-0.159-0.39c0-0.151,0.053-0.279,0.159-0.386c0.105-0.105,0.234-0.158,0.386-0.158h2.204
		c0.146,0,0.274-0.053,0.382-0.159c0.108-0.105,0.162-0.234,0.162-0.386v-2.106h-3.89c-0.151,0-0.28-0.054-0.386-0.159
		s-0.159-0.234-0.159-0.386s0.053-0.279,0.159-0.386c0.106-0.105,0.234-0.159,0.386-0.159h3.89c0.302,0,0.56,0.107,0.771,0.321
		C50.652,125.148,50.758,125.404,50.758,125.703z"/>
	<path fill="#FFFFFF" d="M53.254,132.114v-2.658c0-0.298,0.108-0.554,0.324-0.768c0.216-0.214,0.476-0.321,0.778-0.321v-3.209
		c0-0.151,0.052-0.279,0.155-0.386c0.104-0.105,0.233-0.159,0.389-0.159h2.217c0.151,0,0.28,0.054,0.386,0.159
		c0.105,0.106,0.159,0.234,0.159,0.386v3.209c0.294,0,0.549,0.104,0.765,0.314c0.216,0.21,0.324,0.468,0.324,0.774v2.671
		c0,0.299-0.108,0.555-0.324,0.769c-0.216,0.214-0.471,0.32-0.765,0.32h-3.306c-0.307,0-0.567-0.112-0.781-0.337
		S53.254,132.399,53.254,132.114z M54.356,129.456v2.671h3.306v-2.671H54.356z M55.445,125.703v2.664h1.128v-2.664H55.445z"/>
	<path fill="#FFFFFF" d="M66.252,133.216h-4.953v-3.76c0-0.302,0.107-0.562,0.321-0.777c0.214-0.217,0.47-0.324,0.768-0.324h3.306
		v-2.651h-3.89c-0.155,0-0.285-0.054-0.389-0.159c-0.104-0.105-0.156-0.234-0.156-0.386s0.052-0.279,0.156-0.386
		c0.104-0.105,0.233-0.159,0.389-0.159h3.89c0.303,0,0.562,0.107,0.778,0.321c0.216,0.214,0.324,0.47,0.324,0.769v2.651
		c0,0.307-0.108,0.567-0.324,0.781c-0.216,0.214-0.476,0.32-0.778,0.32h-3.306v2.671h3.864c0.147,0,0.274,0.053,0.382,0.159
		c0.108,0.105,0.162,0.234,0.162,0.386s-0.054,0.279-0.162,0.386C66.526,133.163,66.399,133.216,66.252,133.216z"/>
	<path fill="#FFFFFF" d="M72.89,132.672v-2.27h-3.28v-5.244c0-0.151,0.055-0.282,0.166-0.393c0.11-0.109,0.241-0.165,0.392-0.165
		c0.147,0,0.274,0.056,0.382,0.165c0.108,0.11,0.162,0.241,0.162,0.393v4.143h2.178v-3.189c0-0.151,0.053-0.282,0.159-0.393
		s0.235-0.165,0.386-0.165c0.151,0,0.28,0.055,0.386,0.165s0.159,0.241,0.159,0.393v3.189c0.151,0,0.28,0.053,0.386,0.159
		c0.105,0.105,0.159,0.234,0.159,0.386c0,0.15-0.053,0.279-0.159,0.386c-0.106,0.105-0.235,0.158-0.386,0.158v2.282
		c0,0.151-0.054,0.279-0.162,0.386c-0.108,0.105-0.236,0.158-0.383,0.158c-0.151,0-0.28-0.053-0.386-0.158
		C72.943,132.951,72.89,132.823,72.89,132.672z"/>
</g>
</svg>
