<?xml version="1.0" encoding="utf-8"?>
<!-- Generator: Adobe Illustrator 16.0.0, SVG Export Plug-In . SVG Version: 6.00 Build 0)  -->
<!DOCTYPE svg PUBLIC "-//W3C//DTD SVG 1.1//EN" "http://www.w3.org/Graphics/SVG/1.1/DTD/svg11.dtd">
<svg version="1.1" id="Layer_1" xmlns="http://www.w3.org/2000/svg" xmlns:xlink="http://www.w3.org/1999/xlink" x="0px" y="0px"
 viewBox="0 0 243.78 153.24" enable-background="new 0 0 243.78 153.24" xml:space="preserve">
<g>
	<defs>
		<rect id="SVGID_1_" width="243.78" height="153.24"/>
	</defs>
	<clipPath id="SVGID_2_">
		<use xlink:href="#SVGID_1_"  overflow="visible"/>
	</clipPath>
	<path clip-path="url(#SVGID_2_)" fill="#FFCC00" d="M7.202,0.168H236.65c3.889,0,7.13,3.096,7.13,6.912v139.248
		c0,3.815-3.241,6.912-7.13,6.912H7.202c-3.961,0-7.202-3.097-7.202-6.912V7.08C0,3.264,3.241,0.168,7.202,0.168"/>
	<path clip-path="url(#SVGID_2_)" fill-rule="evenodd" clip-rule="evenodd" fill="#FFCC00" d="M7.242,0h229.392
		c3.889,0,7.128,3.096,7.128,6.912V146.16c0,3.816-3.239,6.912-7.128,6.912H7.242c-3.96,0-7.2-3.096-7.2-6.912V6.913
		C0.042,3.097,3.282,0,7.242,0"/>
	<polygon clip-path="url(#SVGID_2_)" fill="#FFFFFF" points="26.333,20.324 28.278,20.324 28.278,25.141 29.625,25.141 
		32.317,20.324 34.487,20.319 31.263,25.904 34.778,31.677 32.366,31.677 29.625,26.845 28.278,26.845 28.278,31.677 26.333,31.677 
		26.333,26.845 24.889,26.845 22.164,31.677 19.875,31.677 23.349,25.938 20.133,20.324 22.293,20.324 24.97,25.141 26.333,25.141 	
		"/>
	<path clip-path="url(#SVGID_2_)" fill="#FFFFFF" d="M37.167,28.045v0.699c0,0.874,0.601,1.509,1.818,1.509
		c0.99,0,1.525-0.44,1.669-1.12h1.785c-0.162,1.703-1.394,2.74-3.454,2.74c-2.19,0-3.602-1.15-3.602-3.097V26.18
		c0-1.913,1.412-3.13,3.602-3.13c2.108,0,3.471,1.151,3.471,3.098v1.897H37.167z M37.167,26.684h3.504v-0.536
		c0-0.876-0.6-1.476-1.751-1.476c-1.152,0-1.753,0.6-1.753,1.476V26.684z"/>
	<path clip-path="url(#SVGID_2_)" fill="#FFFFFF" d="M51.392,31.677h-1.784v-6.811h-2.854v3.082c0,2.563-1.298,3.729-2.855,3.729
		H43.46v-1.621h0.178c1.054,0,1.428-0.746,1.428-2.092v-4.72h6.325V31.677z"/>
	<polygon clip-path="url(#SVGID_2_)" fill="#FFFFFF" points="55.349,31.677 55.349,24.866 52.607,24.866 52.607,23.244 
		59.874,23.244 59.874,24.866 57.133,24.866 57.133,31.677 	"/>
	<path clip-path="url(#SVGID_2_)" fill="#FFFFFF" d="M60.361,29.392c0-1.736,1.151-2.708,3.486-2.708h1.85v-0.665
		c0-0.828-0.503-1.347-1.59-1.347c-1.087,0-1.589,0.519-1.589,1.201h-1.735c0-1.622,1.054-2.823,3.324-2.823
		c2.272,0,3.374,1.201,3.374,2.854v5.774h-1.72v-0.94c-0.486,0.585-1.378,1.135-2.579,1.135
		C61.658,31.873,60.361,31.047,60.361,29.392 M65.697,29.293v-1.249h-1.85c-1.313,0-1.702,0.568-1.702,1.153
		c0,0.714,0.551,1.055,1.394,1.055C64.464,30.252,65.177,29.846,65.697,29.293"/>
	<path clip-path="url(#SVGID_2_)" fill="#FFFFFF" d="M68.663,31.667l2.142-3.201c-1.007-0.258-1.702-1.102-1.702-2.546
		c0-1.752,1.069-2.676,2.464-2.676h4.38v8.433h-1.784v-3.113h-1.444l-1.963,3.113L68.663,31.667z M72.021,24.801
		c-0.681,0-1.135,0.454-1.135,1.086c0,0.909,0.52,1.249,1.119,1.249h2.158v-2.335H72.021z"/>
	<polygon clip-path="url(#SVGID_2_)" fill="#FFFFFF" points="81.622,31.677 81.622,23.244 83.408,23.244 83.408,26.683 
		84.412,26.683 86.829,23.244 88.928,23.244 85.953,27.412 89.099,31.688 86.86,31.677 84.396,28.241 83.408,28.241 83.408,31.677 	
		"/>
	<path clip-path="url(#SVGID_2_)" fill="#FFFFFF" d="M89.617,29.392c0-1.736,1.152-2.708,3.488-2.708h1.85v-0.665
		c0-0.828-0.504-1.347-1.59-1.347c-1.087,0-1.59,0.519-1.59,1.201h-1.736c0-1.622,1.055-2.823,3.326-2.823s3.374,1.201,3.374,2.854
		v5.774h-1.72v-0.94c-0.486,0.585-1.378,1.135-2.579,1.135C90.916,31.873,89.617,31.047,89.617,29.392 M94.955,29.293v-1.249h-1.85
		c-1.314,0-1.703,0.568-1.703,1.153c0,0.714,0.551,1.055,1.395,1.055C93.722,30.252,94.435,29.846,94.955,29.293"/>
	<path clip-path="url(#SVGID_2_)" fill="#FFFFFF" d="M105.895,26.147v2.628c0,2.125-1.363,3.098-3.051,3.098
		c-1.167,0-1.962-0.518-2.367-1.022v3.423h-1.784V23.245h1.702v0.94c0.487-0.584,1.314-1.136,2.515-1.136
		C104.516,23.049,105.895,24.022,105.895,26.147 M100.477,29.165c0.486,0.518,1.136,1.087,2.044,1.087c0.859,0,1.59-0.6,1.59-1.607
		v-2.368c0-1.005-0.731-1.605-1.574-1.605c-0.909,0-1.574,0.567-2.06,1.086V29.165z"/>
	<polygon clip-path="url(#SVGID_2_)" fill="#FFFFFF" points="109.397,31.677 109.397,24.866 106.656,24.866 106.656,23.244 
		113.922,23.244 113.922,24.866 111.181,24.866 111.181,31.677 	"/>
	<path clip-path="url(#SVGID_2_)" fill="#FFFFFF" d="M114.408,29.392c0-1.736,1.152-2.708,3.487-2.708h1.85v-0.665
		c0-0.828-0.503-1.347-1.589-1.347c-1.087,0-1.59,0.519-1.59,1.201h-1.736c0-1.622,1.055-2.823,3.326-2.823s3.374,1.201,3.374,2.854
		v5.774h-1.721v-0.94c-0.486,0.585-1.378,1.135-2.578,1.135C115.707,31.873,114.408,31.047,114.408,29.392 M119.745,29.293v-1.249
		h-1.85c-1.312,0-1.702,0.568-1.702,1.153c0,0.714,0.551,1.055,1.395,1.055C118.513,30.252,119.225,29.846,119.745,29.293"/>
	<polygon clip-path="url(#SVGID_2_)" fill="#FFFFFF" points="202.21,14.58 194.228,31.677 200.204,31.677 205.462,20.096 	"/>
	<rect x="205.911" y="14.567" clip-path="url(#SVGID_2_)" fill="#FFFFFF" width="5.681" height="17.11"/>
	<polygon clip-path="url(#SVGID_2_)" fill="#FFFFFF" points="212.045,26.144 212.041,26.148 215.342,31.677 220.832,31.677 
		223.447,26.148 	"/>
	<polygon clip-path="url(#SVGID_2_)" fill="#FFFFFF" points="201.583,14.567 196.672,14.567 194.056,20.097 198.983,20.097 	"/>
	<polygon clip-path="url(#SVGID_2_)" fill="#FFFFFF" points="217.887,25.56 223.01,14.567 217.032,14.567 212.041,25.56 	"/>
</g>
<text transform="matrix(1 0 0 1 19.875 133.2295)" fill="#FFFFFF" font-family="'OCRAExtended'" font-size="13.2767">5173824</text>
</svg>
