<?xml version="1.0" encoding="utf-8"?>
<!-- Generator: Adobe Illustrator 16.0.0, SVG Export Plug-In . SVG Version: 6.00 Build 0)  -->
<!DOCTYPE svg PUBLIC "-//W3C//DTD SVG 1.1//EN" "http://www.w3.org/Graphics/SVG/1.1/DTD/svg11.dtd">
<svg version="1.1" id="Layer_1" xmlns="http://www.w3.org/2000/svg" xmlns:xlink="http://www.w3.org/1999/xlink" x="0px" y="0px" viewBox="0 0 88.378 146.443" enable-background="new 0 0 88.378 146.443"
	 xml:space="preserve" fill="#949798">
<g>
	<defs>
		<rect id="SVGID_1_" width="88.378" height="146.443"/>
	</defs>
	<clipPath id="SVGID_2_">
		<use xlink:href="#SVGID_1_"  overflow="visible"/>
	</clipPath>
	<path clip-path="url(#SVGID_2_)" d="M82.417,61.295l-3.834-11.537c-0.857-2.577-3.268-4.315-5.986-4.315H15.781
		c-2.718,0-5.129,1.738-5.988,4.315L5.927,61.301C2.632,61.514,0,64.19,0,67.537v9.467c0,3.487,2.826,6.313,6.312,6.313h3.265
		c0,0.237-0.096,0.459-0.068,0.697l6.312,56.812c0.355,3.196,3.058,5.616,6.276,5.616h44.187c3.218,0,5.918-2.42,6.27-5.616
		l6.312-56.812c0.031-0.238-0.068-0.46-0.068-0.697h3.269c3.482,0,6.312-2.826,6.312-6.313v-9.467
		C88.378,64.177,85.728,61.489,82.417,61.295 M15.781,51.755h56.816l3.156,9.469H12.625L15.781,51.755z M22.097,140.131l-1.054-9.47
		h46.289l-1.048,9.47H22.097z M67.684,127.506H20.691l-3.507-31.563h54.007L67.684,127.506z M71.543,92.787H16.832l-1.051-9.469
		h56.816L71.543,92.787z M82.066,77.004H6.313v-9.469h75.753V77.004z"/>
	<path clip-path="url(#SVGID_2_)" d="M48.815,33.657c22.783-20.533-4.713-19.449,0.561-33.658
		C31.188,18.354,56.151,18.766,48.815,33.657"/>
	<path clip-path="url(#SVGID_2_)" d="M35.445,33.664c15.166-13.588-3.196-14.919,0.418-24.519
		C23.157,22.541,40.437,22.891,35.445,33.664"/>
</g>
</svg>
