<?xml version="1.0" encoding="utf-8"?>
<!-- Generator: Adobe Illustrator 16.0.0, SVG Export Plug-In . SVG Version: 6.00 Build 0)  -->
<!DOCTYPE svg PUBLIC "-//W3C//DTD SVG 1.1//EN" "http://www.w3.org/Graphics/SVG/1.1/DTD/svg11.dtd">
<svg version="1.1" id="Layer_1" xmlns="http://www.w3.org/2000/svg" xmlns:xlink="http://www.w3.org/1999/xlink" x="0px" y="0px"
	 viewBox="0 0 242.958 73.607" enable-background="new 0 0 242.958 73.607"
	 xml:space="preserve">
<g>
	<defs>
		<rect id="SVGID_1_" y="0" width="242.958" height="73.607"/>
	</defs>
	<clipPath id="SVGID_2_">
		<use xlink:href="#SVGID_1_"  overflow="visible"/>
	</clipPath>
	<path clip-path="url(#SVGID_2_)" d="M242.958,63.018c0,6.53-4.797,10.59-11.322,10.59H11.821C5.293,73.607,0,68.311,0,61.78V11.825
		C0,5.294,5.293,0,11.821,0h219.814c6.525,0,11.322,5.295,11.322,11.825V63.018z"/>
	<path clip-path="url(#SVGID_2_)" fill="#FFFFFF" d="M157.901,52.835l-1.614,1.522c-0.372,0.205-0.743,0.443-1.113,0.612
		c-1.121,0.509-2.261,0.637-3.274,0.637c-1.078,0-2.768-0.069-4.491-1.316c-2.396-1.688-3.442-4.587-3.442-7.114
		c0-5.232,4.259-7.798,7.732-7.798c1.215,0,2.462,0.304,3.476,0.945c1.686,1.114,2.122,2.563,2.364,3.34l-7.934,3.205l-2.598,0.203
		c0.841,4.288,3.743,6.783,6.95,6.783c1.602,0,2.791-0.522,3.882-1.062C157.839,52.793,158.058,52.679,157.901,52.835
		 M153.115,44.302c0.646-0.234,0.98-0.436,0.98-0.906c0-1.348-1.526-2.904-3.346-2.904c-1.349,0-3.879,1.05-3.879,4.695
		c0,0.569,0.067,1.176,0.102,1.781L153.115,44.302z"/>
	<path clip-path="url(#SVGID_2_)" fill="#FFFFFF" d="M141.314,52.573c0,1.312,0.234,1.516,1.343,1.618
		c0.578,0.069,1.154,0.099,1.725,0.166l-1.248,0.743h-5.947c0.78-1.012,0.914-1.112,0.914-1.787v-0.753l-0.013-20.063h-2.626
		l2.527-1.218h4.826c-1.046,0.606-1.358,0.975-1.493,2.155L141.314,52.573z"/>
	<path clip-path="url(#SVGID_2_)" fill="#FFFFFF" d="M132.092,41.034c0.774,0.637,2.393,1.988,2.393,4.553
		c0,2.499-1.41,3.677-2.831,4.792c-0.436,0.438-0.945,0.915-0.945,1.651c0,0.746,0.51,1.151,0.877,1.453l1.219,0.941
		c1.482,1.251,2.833,2.398,2.833,4.728c0,3.175-3.072,6.375-8.877,6.375c-4.89,0-7.254-2.328-7.254-4.825
		c0-1.216,0.604-2.937,2.601-4.115c2.092-1.279,4.927-1.45,6.444-1.549c-0.474-0.613-1.015-1.254-1.015-2.3
		c0-0.572,0.172-0.913,0.338-1.315c-0.369,0.035-0.741,0.071-1.079,0.071c-3.579,0-5.604-2.67-5.604-5.302
		c0-1.552,0.71-3.273,2.163-4.521c1.924-1.584,4.218-1.857,6.041-1.857h6.954l-2.162,1.221H132.092z M129.7,56.015
		c-0.276-0.036-0.442-0.036-0.776-0.036c-0.306,0-2.129,0.066-3.541,0.54c-0.747,0.273-2.906,1.08-2.906,3.479
		c0,2.391,2.331,4.115,5.938,4.115c3.239,0,4.96-1.553,4.96-3.644C133.374,58.749,132.261,57.84,129.7,56.015 M130.671,49.603
		c0.78-0.778,0.848-1.854,0.848-2.466c0-2.427-1.447-6.207-4.252-6.207c-0.875,0-1.822,0.439-2.361,1.118
		c-0.57,0.703-0.741,1.616-0.741,2.493c0,2.259,1.317,6.007,4.217,6.007C129.227,50.548,130.137,50.137,130.671,49.603"/>
	<path clip-path="url(#SVGID_2_)" fill="#FFFFFF" d="M111.17,55.537c-5.364,0-8.234-4.178-8.234-7.959c0-4.418,3.608-8.2,8.74-8.2
		c4.961,0,8.068,3.884,8.068,7.962C119.744,51.322,116.673,55.537,111.17,55.537 M115.39,52.807c0.816-1.08,1.014-2.428,1.014-3.742
		c0-2.972-1.416-8.64-5.601-8.64c-1.113,0-2.234,0.435-3.042,1.146c-1.318,1.181-1.553,2.664-1.553,4.12
		c0,3.334,1.648,8.833,5.738,8.833C113.266,54.523,114.613,53.885,115.39,52.807"/>
	<path clip-path="url(#SVGID_2_)" fill="#FFFFFF" d="M93.211,55.537c-5.365,0-8.23-4.178-8.23-7.959c0-4.418,3.609-8.2,8.739-8.2
		c4.958,0,8.062,3.884,8.062,7.962C101.782,51.322,98.715,55.537,93.211,55.537 M97.432,52.807c0.81-1.08,1.012-2.428,1.012-3.742
		c0-2.972-1.42-8.64-5.601-8.64c-1.117,0-2.225,0.435-3.036,1.146c-1.32,1.181-1.554,2.664-1.554,4.12
		c0,3.334,1.655,8.833,5.738,8.833C95.308,54.523,96.653,53.885,97.432,52.807"/>
	<path clip-path="url(#SVGID_2_)" fill="#FFFFFF" d="M82.836,54.366l-4.524,1.035c-1.833,0.289-3.479,0.544-5.222,0.544
		c-8.727,0-12.051-6.424-12.051-11.45c0-6.14,4.711-11.831,12.778-11.831c1.708,0,3.35,0.251,4.846,0.658
		c2.371,0.667,3.48,1.487,4.173,1.969l-2.628,2.496L79.1,38.035l0.79-1.26c-1.071-1.045-3.037-2.973-6.77-2.973
		c-4.991,0-8.757,3.793-8.757,9.333c0,5.949,4.3,11.545,11.195,11.545c2.026,0,3.069-0.407,4.015-0.787v-5.1l-4.776,0.257
		l2.532-1.36h6.703l-0.819,0.789c-0.222,0.188-0.251,0.252-0.313,0.504c-0.034,0.288-0.064,1.204-0.064,1.526V54.366z"/>
	<path clip-path="url(#SVGID_2_)" fill="#FFFFFF" d="M167.629,52.979v8.596h-1.707v-21.87h1.707v2.489
		c1.111-1.609,3.144-2.886,5.504-2.886c4.232,0,7.084,3.211,7.084,8.294c0,5.049-2.852,8.327-7.084,8.327
		C170.904,55.929,168.909,54.78,167.629,52.979 M178.383,47.602c0-3.831-1.997-6.753-5.538-6.753c-2.199,0-4.302,1.729-5.216,3.235
		v7.001c0.914,1.51,3.017,3.301,5.216,3.301C176.386,54.386,178.383,51.438,178.383,47.602"/>
	<rect x="182.548" y="33.665" clip-path="url(#SVGID_2_)" fill="#FFFFFF" width="1.706" height="21.871"/>
	<path clip-path="url(#SVGID_2_)" fill="#FFFFFF" d="M203.408,60.16c0.364,0.162,0.987,0.263,1.383,0.263
		c1.044,0,1.771-0.427,2.424-1.936l1.245-2.82l-6.725-15.964h1.905l5.768,13.834l5.712-13.834h1.931l-8.2,19.313
		c-0.852,1.99-2.19,2.947-4.03,2.947c-0.552,0-1.279-0.099-1.706-0.229L203.408,60.16z"/>
	<path clip-path="url(#SVGID_2_)" fill="#FFFFFF" d="M198.422,55.487c-0.114-0.549-0.2-1.032-0.263-1.437
		c-0.053-0.403-0.082-0.815-0.082-1.234c-0.586,0.859-1.415,1.574-2.474,2.138c-1.06,0.566-2.066,0.845-3.448,0.845
		c-1.663,0-2.953-0.408-3.875-1.239c-0.918-0.829-1.38-1.952-1.38-3.373c0-1.419,0.669-2.571,2.003-3.452
		c1.334-0.885,3.059-1.324,5.192-1.324h3.981v-1.968c0-1.133-0.387-2.023-1.157-2.67c-0.774-0.646-1.86-0.974-3.269-0.974
		c-1.287,0-2.331,0.3-3.126,0.882c-0.788,0.593-1.185,1.329-1.185,2.216h-1.746l-0.037-0.085c-0.063-1.195,0.484-2.245,1.647-3.15
		c1.157-0.905,2.675-1.36,4.542-1.36c1.86,0,3.366,0.448,4.502,1.342c1.134,0.885,1.703,2.164,1.703,3.836v7.811
		c0,0.561,0.026,1.103,0.097,1.631c0.072,0.529,0.187,1.057,0.34,1.567H198.422z M192.364,54.244c1.45,0,2.492-0.324,3.558-0.965
		c1.058-0.638,1.777-1.469,2.155-2.474v-3.04h-4c-1.528,0-2.793,0.337-3.788,1.02c-0.997,0.68-1.503,1.503-1.503,2.46
		c0,0.902,0.32,1.625,0.957,2.172C190.381,53.971,191.253,54.244,192.364,54.244"/>
</g>
<g>
	<defs>
		<path id="SVGID_3_" d="M21.271,29.234L38.749,46.71l5.474-5.477L22.886,29.502c-0.413-0.227-0.806-0.335-1.157-0.335
			C21.567,29.167,21.414,29.19,21.271,29.234"/>
	</defs>
	<clipPath id="SVGID_4_">
		<use xlink:href="#SVGID_3_"  overflow="visible"/>
	</clipPath>
	
		<linearGradient id="SVGID_5_" gradientUnits="userSpaceOnUse" x1="0" y1="73.6289" x2="1" y2="73.6289" gradientTransform="matrix(-6.1053 -26.5294 -26.5294 6.1053 1987.8236 -404.0842)">
		<stop  offset="0" style="stop-color:#D6FFA1"/>
		<stop  offset="0.2959" style="stop-color:#9AE5A7"/>
		<stop  offset="0.9764" style="stop-color:#05A5B5"/>
		<stop  offset="1" style="stop-color:#00A3B5"/>
	</linearGradient>
	<polygon clip-path="url(#SVGID_4_)" fill="url(#SVGID_5_)" points="22.425,51.727 17.437,30.05 43.068,24.151 48.057,45.828 	"/>
</g>
<g>
	<defs>
		<path id="SVGID_6_" d="M38.749,46.71l5.503,5.503l7.283-4.006c1.478-0.814,1.478-2.141,0-2.953l-7.31-4.021L38.749,46.71z"/>
	</defs>
	<clipPath id="SVGID_7_">
		<use xlink:href="#SVGID_6_"  overflow="visible"/>
	</clipPath>
	
		<linearGradient id="SVGID_8_" gradientUnits="userSpaceOnUse" x1="0" y1="73.6094" x2="1" y2="73.6094" gradientTransform="matrix(15.6256 26.6866 26.6866 -15.6256 -1930.0188 1177.255)">
		<stop  offset="0" style="stop-color:#FF177B"/>
		<stop  offset="0.0081" style="stop-color:#FF197B"/>
		<stop  offset="0.6996" style="stop-color:#FFAF75"/>
		<stop  offset="1" style="stop-color:#FFEC73"/>
	</linearGradient>
	<polygon clip-path="url(#SVGID_7_)" fill="url(#SVGID_8_)" points="49.371,35.014 57.8,49.409 42.391,58.432 33.962,44.036 	"/>
</g>
<g>
	<defs>
		<path id="SVGID_9_" d="M20.201,31.088l0.005,31.284c0,0.983,0.407,1.63,1.038,1.847l17.505-17.506L21.271,29.234
			C20.622,29.438,20.201,30.095,20.201,31.088"/>
	</defs>
	<clipPath id="SVGID_10_">
		<use xlink:href="#SVGID_9_"  overflow="visible"/>
	</clipPath>
	
		<linearGradient id="SVGID_11_" gradientUnits="userSpaceOnUse" x1="0" y1="73.5547" x2="1" y2="73.5547" gradientTransform="matrix(-9.444 -36.4384 -36.4384 9.444 2711.79 -639.7724)">
		<stop  offset="0" style="stop-color:#63FFD4"/>
		<stop  offset="0.4842" style="stop-color:#32A0BA"/>
		<stop  offset="0.8345" style="stop-color:#1262A9"/>
		<stop  offset="1" style="stop-color:#064AA2"/>
	</linearGradient>
	<polygon clip-path="url(#SVGID_10_)" fill="url(#SVGID_11_)" points="21.369,68.723 11.705,31.437 37.582,24.73 47.245,62.017 	"/>
</g>
<g>
	<defs>
		<path id="SVGID_12_" d="M21.244,64.219c0.453,0.154,1.023,0.082,1.642-0.258l21.363-11.748l-5.5-5.5L21.244,64.219z"/>
	</defs>
	<clipPath id="SVGID_13_">
		<use xlink:href="#SVGID_12_"  overflow="visible"/>
	</clipPath>
	
		<linearGradient id="SVGID_14_" gradientUnits="userSpaceOnUse" x1="0" y1="73.6191" x2="1" y2="73.6191" gradientTransform="matrix(-32.7349 4.4841 4.4841 32.7349 -281.3775 -2356.551)">
		<stop  offset="0" style="stop-color:#FF4521"/>
		<stop  offset="0.3472" style="stop-color:#D43E66"/>
		<stop  offset="0.7952" style="stop-color:#9F36BA"/>
		<stop  offset="1" style="stop-color:#8A33DB"/>
	</linearGradient>
	<polygon clip-path="url(#SVGID_13_)" fill="url(#SVGID_14_)" points="46.624,64.048 21.667,67.467 18.869,47.038 43.825,43.619 	
		"/>
</g>
<g>
	<defs>
		<rect id="SVGID_15_" y="0" width="242.958" height="73.607"/>
	</defs>
	<clipPath id="SVGID_16_">
		<use xlink:href="#SVGID_15_"  overflow="visible"/>
	</clipPath>
	<path clip-path="url(#SVGID_16_)" fill="#FFFFFF" d="M61.711,10.889c0.735-0.48,1.664-0.816,2.849-0.816
		c1.873,0,3.169,0.976,3.169,2.64c0,1.329-0.976,2.354-2.225,2.642v0.032c1.505,0.16,2.625,1.152,2.642,2.705
		c0,2.24-1.954,3.137-3.922,3.137c-0.977,0-1.986-0.208-2.818-0.704l0.369-1.088c0.592,0.336,1.537,0.656,2.432,0.656
		c1.585,0,2.466-0.865,2.466-2.049c0-1.617-1.553-2.081-2.93-2.081h-0.639v-1.056h0.624c1.424,0,2.545-0.88,2.545-1.985
		c0-1.104-0.785-1.713-1.937-1.713c-0.833,0-1.665,0.336-2.257,0.704L61.711,10.889z"/>
	<path clip-path="url(#SVGID_16_)" fill="#FFFFFF" d="M72.142,17.659l-1.12,3.394h-1.44l3.681-10.789h1.664l3.682,10.789h-1.488
		l-1.153-3.394H72.142z M75.696,16.571l-1.072-3.105c-0.24-0.705-0.401-1.345-0.561-1.969h-0.032
		c-0.16,0.624-0.319,1.296-0.544,1.952l-1.057,3.122H75.696z"/>
	<polygon clip-path="url(#SVGID_16_)" fill="#FFFFFF" points="86.321,10.265 86.321,11.433 81.983,11.433 81.983,21.053 
		80.574,21.053 80.574,10.265 	"/>
	<path clip-path="url(#SVGID_16_)" fill="#FFFFFF" d="M87.918,10.393c0.672-0.112,1.553-0.208,2.673-0.208
		c1.377,0,2.385,0.32,3.026,0.896c0.576,0.512,0.944,1.296,0.944,2.257c0,0.977-0.288,1.744-0.833,2.305
		c-0.752,0.784-1.937,1.184-3.297,1.184c-0.416,0-0.801-0.016-1.12-0.095v4.321h-1.393V10.393z M89.312,15.595
		c0.304,0.08,0.687,0.112,1.152,0.112c1.681,0,2.705-0.833,2.705-2.289c0-1.44-1.024-2.129-2.545-2.129
		c-0.608,0-1.072,0.048-1.312,0.112V15.595z"/>
	<path clip-path="url(#SVGID_16_)" fill="#FFFFFF" d="M97.038,10.265l2.146,4.626c0.271,0.64,0.528,1.264,0.768,1.889H100
		c0.191-0.545,0.399-1.169,0.656-1.938l1.696-4.577h1.473l-2.272,5.57c-0.576,1.441-1.249,3.089-2.018,4.081
		c-0.687,0.881-1.473,1.329-2.433,1.329c-0.368,0-0.608-0.032-0.784-0.096l0.128-1.136c0.128,0.031,0.288,0.048,0.529,0.048
		c1.104,0,1.76-1.072,2.112-1.841c0.112-0.24,0.08-0.4-0.048-0.656l-3.585-7.299H97.038z"/>
	<path clip-path="url(#SVGID_16_)" fill="#FFFFFF" d="M105.135,10.889c0.735-0.48,1.664-0.816,2.849-0.816
		c1.873,0,3.169,0.976,3.169,2.64c0,1.329-0.976,2.354-2.225,2.642v0.032c1.505,0.16,2.625,1.152,2.642,2.705
		c0,2.24-1.953,3.137-3.922,3.137c-0.977,0-1.986-0.208-2.818-0.704l0.369-1.088c0.592,0.336,1.537,0.656,2.432,0.656
		c1.585,0,2.466-0.865,2.466-2.049c0-1.617-1.553-2.081-2.93-2.081h-0.639v-1.056h0.624c1.424,0,2.545-0.88,2.545-1.985
		c0-1.104-0.785-1.713-1.937-1.713c-0.833,0-1.665,0.336-2.257,0.704L105.135,10.889z"/>
	<path clip-path="url(#SVGID_16_)" fill="#FFFFFF" d="M115.135,10.265v4.546c0,1.696-0.032,3.121-0.128,4.561l0.048,0.016
		c0.528-1.12,1.2-2.288,1.984-3.569l3.49-5.554h1.392v10.788h-1.312v-4.594c0-1.745,0.016-3.025,0.128-4.385l-0.048-0.017
		c-0.529,1.185-1.265,2.434-2.001,3.618l-3.377,5.378h-1.488V10.265H115.135z"/>
	<polygon clip-path="url(#SVGID_16_)" fill="#FFFFFF" points="126.799,11.449 123.518,11.449 123.518,10.265 131.505,10.265 
		131.505,11.449 128.207,11.449 128.207,21.053 126.799,21.053 	"/>
	<polygon clip-path="url(#SVGID_16_)" fill="#FFFFFF" points="138.673,15.995 134.495,15.995 134.495,19.884 139.169,19.884 
		139.169,21.053 133.086,21.053 133.086,10.265 138.929,10.265 138.929,11.433 134.495,11.433 134.495,14.842 138.673,14.842 	"/>
	<polygon clip-path="url(#SVGID_16_)" fill="#FFFFFF" points="147.294,10.265 147.294,14.779 152.512,14.779 152.512,10.265 
		153.92,10.265 153.92,21.053 152.512,21.053 152.512,15.995 147.294,15.995 147.294,21.053 145.885,21.053 145.885,10.265 	"/>
	<path clip-path="url(#SVGID_16_)" fill="#FFFFFF" d="M158.478,17.659l-1.12,3.394h-1.44l3.682-10.789h1.664l3.682,10.789h-1.488
		l-1.151-3.394H158.478z M162.031,16.571l-1.072-3.105c-0.239-0.705-0.4-1.345-0.561-1.969h-0.032
		c-0.16,0.624-0.319,1.296-0.544,1.952l-1.057,3.122H162.031z"/>
</g>
</svg>
