<?xml version="1.0" encoding="utf-8"?>
<!-- Generator: Adobe Illustrator 17.0.0, SVG Export Plug-In . SVG Version: 6.00 Build 0)  -->
<!DOCTYPE svg PUBLIC "-//W3C//DTD SVG 1.1//EN" "http://www.w3.org/Graphics/SVG/1.1/DTD/svg11.dtd">
<svg version="1.1" id="Слой_1" xmlns="http://www.w3.org/2000/svg" xmlns:xlink="http://www.w3.org/1999/xlink" x="0px" y="0px"
	  viewBox="0 0 63 57.702" enable-background="new 0 0 63 57.702" xml:space="preserve">
<path fill="#4B4A4A" d="M54.382,30.031L32.964,52.244c-0.761,0.792-2.002,0.792-2.761,0L8.785,30.031
	c-5.717-5.927-5.717-15.572,0-21.499c5.511-5.715,14.37-5.915,20.171-0.449l2.627,2.476l2.627-2.476
	c5.8-5.466,14.662-5.266,20.172,0.449C60.098,14.459,60.098,24.104,54.382,30.031 M57.146,5.668
	C50.112-1.631,38.87-1.784,31.583,5.083C24.297-1.784,13.056-1.631,6.021,5.668c-7.25,7.519-7.25,19.709,0,27.229
	C8.092,35.046,27.438,55.11,27.438,55.11c2.292,2.377,5.999,2.377,8.291,0c0,0,21.183-21.968,21.418-22.213
	C64.396,25.377,64.396,13.187,57.146,5.668"/>
<path fill="#4B4A4A" d="M18.506,10.207c-0.003,0-0.003,0.002-0.008,0.002c-4.543,0.003-8.228,3.863-8.228,8.625
	c0,0.561,0.433,1.015,0.969,1.015s0.969-0.454,0.969-1.015v-0.002c0-3.641,2.819-6.595,6.295-6.595h0.002
	c0.536,0,0.969-0.454,0.969-1.015C19.475,10.661,19.042,10.207,18.506,10.207"/>
</svg>
