<?xml version="1.0" encoding="utf-8"?>
<!-- Generator: Adobe Illustrator 16.0.0, SVG Export Plug-In . SVG Version: 6.00 Build 0)  -->
<!DOCTYPE svg PUBLIC "-//W3C//DTD SVG 1.1//EN" "http://www.w3.org/Graphics/SVG/1.1/DTD/svg11.dtd">
<svg version="1.1" id="Layer_1" xmlns="http://www.w3.org/2000/svg" xmlns:xlink="http://www.w3.org/1999/xlink" x="0px" y="0px"
	 width="104.497px" height="33.339px" viewBox="0 0 104.497 33.339" enable-background="new 0 0 104.497 33.339"
	 xml:space="preserve">
<g>
	<defs>
		<rect id="SVGID_1_" width="104.497" height="33.339"/>
	</defs>
	<clipPath id="SVGID_2_">
		<use xlink:href="#SVGID_1_"  overflow="visible"/>
	</clipPath>
	<path clip-path="url(#SVGID_2_)" fill="#FFFFFF" d="M1.017,0c0,0,1.755,0.017,4.778,0.182c3.027,0.17,7.347,0.469,12.504,1.056
		c5.157,0.584,11.158,1.41,17.529,2.621c3.187,0.596,6.466,1.284,9.779,2.064c3.315,0.771,6.658,1.656,9.982,2.606
		c3.315,0.98,6.617,2.008,9.82,3.156c1.604,0.565,3.191,1.136,4.739,1.758c0.777,0.303,1.549,0.604,2.315,0.902
		c0.757,0.322,1.509,0.641,2.254,0.958c1.498,0.616,2.947,1.278,4.356,1.944c1.423,0.638,2.786,1.321,4.104,2.002
		c0.662,0.336,1.315,0.668,1.957,0.994c0.63,0.351,1.251,0.695,1.861,1.035c1.221,0.678,2.406,1.32,3.5,2.016
		c1.1,0.683,2.176,1.302,3.16,1.954c0.979,0.658,1.907,1.282,2.78,1.869c1.733,1.189,3.174,2.328,4.396,3.213
		c2.332,1.915,3.665,3.009,3.665,3.009s-1.353-1.07-3.717-2.94c-1.238-0.862-2.696-1.973-4.447-3.129
		c-0.882-0.569-1.82-1.176-2.809-1.814c-0.992-0.633-2.077-1.231-3.187-1.893c-1.103-0.672-2.297-1.292-3.526-1.945
		c-0.613-0.327-1.237-0.66-1.872-0.997c-0.646-0.314-1.303-0.633-1.968-0.956c-1.327-0.654-2.696-1.311-4.125-1.92
		c-1.416-0.637-2.87-1.271-4.373-1.857c-0.748-0.301-1.501-0.606-2.261-0.912c-0.768-0.284-1.542-0.569-2.32-0.857
		c-1.551-0.591-3.142-1.131-4.749-1.664c-3.207-1.084-6.511-2.047-9.825-2.962c-3.323-0.885-6.664-1.705-9.974-2.412
		c-3.308-0.716-6.58-1.34-9.759-1.875c-6.353-1.089-12.33-1.801-17.46-2.289c-5.131-0.489-9.42-0.708-12.418-0.822
		C2.703,1.985,1.009,2,1.009,2C0.457,2.005,0.005,1.561,0,1.009C-0.005,0.457,0.439,0.005,0.991,0C0.996,0,1,0,1.004,0H1.017z"/>
</g>
</svg>
