<?xml version="1.0" encoding="utf-8"?>
<!-- Generator: Adobe Illustrator 16.0.0, SVG Export Plug-In . SVG Version: 6.00 Build 0)  -->
<!DOCTYPE svg PUBLIC "-//W3C//DTD SVG 1.1//EN" "http://www.w3.org/Graphics/SVG/1.1/DTD/svg11.dtd">
<svg version="1.1" id="Layer_1" xmlns="http://www.w3.org/2000/svg" xmlns:xlink="http://www.w3.org/1999/xlink" x="0px" y="0px"
	 width="23.628px" height="23.628px" viewBox="0 0 23.628 23.628" enable-background="new 0 0 23.628 23.628" xml:space="preserve">
<g>
	<defs>
		<rect id="SVGID_1_" y="0" width="23.628" height="23.628"/>
	</defs>
	<clipPath id="SVGID_2_">
		<use xlink:href="#SVGID_1_"  overflow="visible"/>
	</clipPath>
	<path clip-path="url(#SVGID_2_)" fill="#E30613" d="M23.628,21.265c0,1.306-1.059,2.363-2.361,2.363H2.362
		C1.057,23.628,0,22.571,0,21.265V2.361C0,1.058,1.057,0,2.362,0h18.905c1.303,0,2.361,1.058,2.361,2.361V21.265z"/>
	<path clip-path="url(#SVGID_2_)" fill="#FFFFFF" d="M11.812,20.571c-4.416,0-6.389-3.519-6.389-7.004
		c0-4.91,3.405-10.506,6.389-10.506c2.988,0,6.396,5.596,6.396,10.506C18.208,17.052,16.232,20.571,11.812,20.571"/>
</g>
</svg>
