<?xml version="1.0" encoding="utf-8"?>
<!-- Generator: Adobe Illustrator 17.0.0, SVG Export Plug-In . SVG Version: 6.00 Build 0)  -->
<!DOCTYPE svg PUBLIC "-//W3C//DTD SVG 1.1//EN" "http://www.w3.org/Graphics/SVG/1.1/DTD/svg11.dtd">
<svg version="1.1" id="Слой_1" xmlns="http://www.w3.org/2000/svg" xmlns:xlink="http://www.w3.org/1999/xlink" x="0px" y="0px"
	 viewBox="0 0 44 59.929" enable-background="new 0 0 44 59.929" xml:space="preserve">
<g>
	<path fill="#4B4A4A" d="M40.118,9.929H3.8V5.893C3.798,4.827,4.69,3.696,5.804,3.694H38.09c1.11-0.001,2.017,0.965,2.02,2.032
		L40.118,9.929z M40.183,42.061H3.866L3.804,11.929h36.317L40.183,42.061z M40.207,54.064c0.001,1.067-0.901,1.935-2.012,1.937
		L5.951,56.062c-1.113,0.003-2.06-0.765-2.061-1.832L3.87,43.929l36.317-0.167L40.207,54.064z M38.278-0.071L6.034-0.009
		C2.693-0.003-0.006,2.598,0,5.803L0.097,54.14c0.006,3.205,2.715,5.796,6.057,5.789l32.244-0.061
		c3.339-0.006,5.608-2.632,5.602-5.836V5.694C43.994,2.49,41.616-0.077,38.278-0.071"/>
	<path fill="#4B4A4A" d="M26.201,6.895c0.001,0.534-0.451,0.967-1.006,0.968h-6.046c-0.559,0.001-1.009-0.419-1.01-0.953
		c-0.001-0.535,0.447-0.968,1.006-0.97l6.046-0.011C25.746,5.929,26.199,6.361,26.201,6.895"/>
	<path fill="#4B4A4A" d="M27,50.224c0.004,2.136-1.796,3.87-4.023,3.874c-2.226,0.005-4.033-1.723-4.038-3.859
		c-0.004-2.136,1.798-3.87,4.023-3.874C25.187,46.36,26.995,48.088,27,50.224"/>
</g>
<g>
	<polygon fill="#4B4A4A" points="10.207,35.694 15.329,35.694 19.776,26.114 16.96,21.929 	"/>
	<rect x="20.132" y="21.929" fill="#4B4A4A" width="4.868" height="13.764"/>
	<polygon fill="#4B4A4A" points="25.448,30.982 25.445,30.987 28.301,35.694 33.008,35.694 35.22,30.929 	"/>
	<polygon fill="#4B4A4A" points="16.424,21.929 12.215,21.929 10,25.929 14.223,25.905 	"/>
	<polygon fill="#4B4A4A" points="34.785,21.929 29.663,21.929 25.442,30.574 30.452,30.545 	"/>
</g>
</svg>
