<?xml version="1.0" encoding="utf-8"?>
<!-- Generator: Adobe Illustrator 16.0.0, SVG Export Plug-In . SVG Version: 6.00 Build 0)  -->
<!DOCTYPE svg PUBLIC "-//W3C//DTD SVG 1.1//EN" "http://www.w3.org/Graphics/SVG/1.1/DTD/svg11.dtd">
<svg version="1.1" id="Layer_1" xmlns="http://www.w3.org/2000/svg" xmlns:xlink="http://www.w3.org/1999/xlink" x="0px" y="0px"
	 viewBox="0 0 34.998 35" enable-background="new 0 0 34.998 35" xml:space="preserve">
<g>
	<defs>
		<rect id="SVGID_1_" width="34.998" height="35"/>
	</defs>
	<clipPath id="SVGID_2_">
		<use xlink:href="#SVGID_1_"  overflow="visible"/>
	</clipPath>
	<path clip-path="url(#SVGID_2_)" fill="#fff" d="M26.572,35H26.57c-7.325-0.011-15.279-4.337-20.759-11.292
		c-4.86-6.183-6.802-13.227-5.33-19.325C1.06,1.985,5.441,0,7.432,0C8.47,0,9.361,0.412,9.943,1.159
		c0.257,0.339,4.098,6.195,4.339,6.612c1.014,1.75,0.366,3.417-1.926,4.954c-1.477,0.984-1.826,1.217-1.083,2.784
		c0.142,0.296,1.431,2.916,3.399,4.775c1.866,1.973,4.348,3.24,4.827,3.475l0.023,0.013c0.645,0.297,1,0.342,1.154,0.342
		c0.279,0,0.497-0.135,1.282-1.356c0.642-1.002,1.612-2.518,3.521-2.518c0.666,0,1.301,0.194,1.887,0.581l0.396,0.258
		c5.779,3.773,5.964,3.914,6.063,3.989c0.579,0.439,1.485,1.485,1.062,3.551c-0.181,0.825-1.722,5.336-4.295,5.93
		C29.298,34.848,27.945,35,26.572,35 M7.432,3C6.353,3,3.707,4.389,3.387,5.123c-1.246,5.164,0.494,11.275,4.782,16.73
		C13.093,28.102,20.146,31.99,26.575,32c1.144,0,2.269-0.126,3.343-0.375c0.544-0.241,1.763-2.384,2.036-3.629
		c0.085-0.419,0.025-0.579,0.025-0.581c-0.113-0.062-1.27-0.83-5.857-3.825l-0.414-0.271c-0.122-0.08-0.196-0.08-0.228-0.08
		c-0.268,0-0.688,0.657-0.995,1.137c-0.743,1.156-1.758,2.737-3.809,2.737c-0.729,0-1.527-0.207-2.441-0.633l-0.098-0.048
		c-0.868-0.43-3.528-1.848-5.586-4.028c-2.25-2.123-3.711-5.032-3.98-5.592c-1.864-3.928,0.628-5.588,2.116-6.58
		c0.257-0.172,0.934-0.626,1.041-0.881c-0.006-0.006-0.018-0.036-0.043-0.078c-0.247-0.415-3.802-5.836-4.128-6.294
		C7.581,3.014,7.529,3,7.432,3"/>
</g>
</svg>
