<?xml version="1.0" encoding="utf-8"?>
<!-- Generator: Adobe Illustrator 16.0.0, SVG Export Plug-In . SVG Version: 6.00 Build 0)  -->
<!DOCTYPE svg PUBLIC "-//W3C//DTD SVG 1.1//EN" "http://www.w3.org/Graphics/SVG/1.1/DTD/svg11.dtd">
<svg version="1.1" id="Layer_1" xmlns="http://www.w3.org/2000/svg" xmlns:xlink="http://www.w3.org/1999/xlink" x="0px" y="0px"
	 viewBox="0 0 411.999 411.299" enable-background="new 0 0 411.999 411.299" fill="#fff"
	 xml:space="preserve">
<g>
	<defs>
		<rect id="SVGID_1_" width="411.999" height="411.299"/>
	</defs>
	<clipPath id="SVGID_2_">
		<use xlink:href="#SVGID_1_"  overflow="visible"/>
	</clipPath>
	<path clip-path="url(#SVGID_2_)" d="M357.447,310.123c-59.035-13.617-113.988-25.541-87.375-75.717
		c6.873-12.957,12.71-25.391,17.63-37.317c-14.863,8.506-31.468,15.082-40.49,17.324l-3.853-18.265
		c19.728-5.617,40.997-16.093,55.83-31.492C330.701,56.956,277.428,0,206.001,0C118.77,0,60.698,84.812,141.929,234.406
		c27.412,50.481-29.608,62.393-87.375,75.717C-4.458,323.731,0.081,354.846,0.081,411.299h411.838
		C411.919,354.845,416.458,323.731,357.447,310.123 M206.128,228.264c-7.574,1.56-14.975-3.316-16.533-10.893
		c-1.559-7.573,3.318-14.976,10.893-16.533l30.094-6.671l5.643,27.426L206.128,228.264z"/>
</g>
</svg>
