<?xml version="1.0" encoding="utf-8"?>
<!-- Generator: Adobe Illustrator 17.0.0, SVG Export Plug-In . SVG Version: 6.00 Build 0)  -->
<!DOCTYPE svg PUBLIC "-//W3C//DTD SVG 1.1//EN" "http://www.w3.org/Graphics/SVG/1.1/DTD/svg11.dtd">
<svg version="1.1" id="Слой_1" xmlns="http://www.w3.org/2000/svg" xmlns:xlink="http://www.w3.org/1999/xlink" x="0px" y="0px"
	 width="35.5px" height="24.955px" viewBox="0 0 35.5 24.955" enable-background="new 0 0 35.5 24.955" xml:space="preserve">
<g>
	<path fill="#0072BB" d="M23.504,17.985c0.129-2.002,0.257-3.993,0.387-6.001c0.056,0,0.101,0,0.147,0
		c2.151,0,4.303,0.001,6.454-0.002c0.114,0,0.147,0.031,0.146,0.145c-0.005,0.636-0.004,1.271-0.001,1.907
		c0,0.086-0.027,0.135-0.101,0.178c-0.488,0.288-1.023,0.425-1.578,0.499c-0.785,0.104-1.558,0.009-2.348-0.164
		c-0.037,0.432-0.074,0.857-0.113,1.309c0.19-0.016,0.368-0.035,0.547-0.044c0.836-0.041,1.663-0.007,2.466,0.264
		c0.618,0.209,1.1,0.61,1.51,1.098c0.649,0.772,0.813,1.689,0.735,2.663c-0.101,1.255-0.707,2.237-1.685,2.998
		c-0.475,0.369-1.039,0.54-1.625,0.634c-0.725,0.117-1.455,0.103-2.183,0.029c-0.5-0.051-0.988-0.152-1.459-0.331
		c-0.642-0.245-1.112-0.681-1.464-1.264c-0.391-0.648-0.614-1.344-0.642-2.101c-0.001-0.027,0.002-0.054,0.004-0.091
		c0.047-0.003,0.089-0.007,0.131-0.007c0.943,0,1.887,0.002,2.83-0.003c0.112-0.001,0.152,0.027,0.148,0.143
		c-0.009,0.286,0.021,0.567,0.144,0.831c0.241,0.519,0.859,0.754,1.377,0.527c0.204-0.09,0.324-0.257,0.425-0.443
		c0.141-0.26,0.229-0.538,0.243-0.833c0.017-0.366,0.042-0.734-0.046-1.096c-0.097-0.401-0.359-0.638-0.749-0.758
		c-0.749-0.23-1.515-0.242-2.286-0.199C24.452,17.899,23.989,17.946,23.504,17.985z"/>
	<path fill="#0072BB" d="M12.677,19.566c0.077-0.004,0.119-0.007,0.162-0.007c0.936,0,1.871,0.002,2.807-0.003
		c0.111-0.001,0.14,0.03,0.154,0.142c0.037,0.296,0.076,0.595,0.152,0.883c0.126,0.476,0.378,0.671,0.872,0.699
		c0.163,0.009,0.333-0.007,0.492-0.045c0.228-0.054,0.383-0.213,0.474-0.428c0.197-0.466,0.222-0.95,0.128-1.439
		c-0.087-0.455-0.405-0.701-0.827-0.815c-0.195-0.052-0.404-0.058-0.608-0.069c-0.22-0.011-0.441-0.003-0.67-0.003
		c0-0.757,0-1.505,0-2.263c0.314,0,0.626,0.015,0.936-0.005c0.213-0.013,0.434-0.046,0.632-0.12
		c0.337-0.127,0.537-0.385,0.579-0.755c0.032-0.285,0.044-0.57-0.057-0.842c-0.106-0.288-0.318-0.459-0.629-0.501
		c-0.239-0.032-0.477-0.032-0.696,0.073c-0.321,0.153-0.476,0.438-0.544,0.772c-0.028,0.137-0.024,0.282-0.023,0.424
		c0.001,0.076-0.014,0.107-0.095,0.107c-0.995-0.002-1.99-0.001-2.984-0.002c-0.023,0-0.045-0.007-0.083-0.013
		c0.011-0.113,0.016-0.222,0.033-0.329c0.091-0.584,0.266-1.141,0.617-1.62c0.584-0.796,1.342-1.341,2.327-1.546
		c0.792-0.165,1.591-0.176,2.391-0.112c0.573,0.046,1.138,0.151,1.639,0.451c0.618,0.37,1.14,0.846,1.379,1.548
		c0.378,1.106,0.127,2.381-1.017,3.07c-0.229,0.138-0.498,0.21-0.747,0.314c-0.035,0.015-0.065,0.044-0.097,0.066
		c0.031,0.018,0.06,0.046,0.094,0.054c0.55,0.127,1.024,0.391,1.442,0.77c0.369,0.335,0.58,0.754,0.678,1.231
		c0.124,0.604,0.134,1.212,0.015,1.822c-0.124,0.638-0.446,1.139-0.962,1.533c-0.675,0.515-1.438,0.793-2.272,0.886
		c-0.919,0.102-1.835,0.077-2.742-0.122c-0.799-0.175-1.444-0.605-1.993-1.198c-0.428-0.463-0.718-0.998-0.834-1.617
		C12.739,20.235,12.718,19.905,12.677,19.566z"/>
	<path fill="#0072BB" d="M10.171,23.283c-1.832,0-3.657,0-5.489,0c0-0.692,0-1.377,0-2.074c0.045-0.002,0.087-0.006,0.129-0.007
		c0.189-0.002,0.379,0.002,0.568-0.006c0.239-0.01,0.375-0.15,0.388-0.389c0.002-0.039,0.002-0.079,0.002-0.118
		c0-1.369,0-2.739,0-4.108c0-0.039,0-0.078,0-0.133c-0.056,0-0.102,0-0.148,0c-0.339,0-0.679-0.003-1.018,0.002
		C4.515,16.45,4.49,16.421,4.49,16.333c0.003-0.584,0.004-1.168-0.001-1.752c-0.001-0.086,0.033-0.125,0.104-0.161
		c0.68-0.341,1.264-0.805,1.716-1.416c0.201-0.272,0.345-0.589,0.503-0.892c0.047-0.091,0.089-0.133,0.199-0.132
		c0.667,0.006,1.334,0.006,2.001,0.001c0.118-0.001,0.143,0.037,0.143,0.148c-0.003,2.786-0.003,5.573-0.002,8.359
		c0,0.122,0.008,0.245,0.026,0.365c0.037,0.245,0.136,0.333,0.385,0.344c0.173,0.008,0.347,0.006,0.521,0.004
		c0.069-0.001,0.098,0.018,0.098,0.093c-0.003,0.647-0.002,1.294-0.003,1.942C10.18,23.247,10.176,23.258,10.171,23.283z"/>
	<g>
		<path d="M5.388,3.026H4.825V2.672h1.596v0.354H5.858v1.357H5.388V3.026z"/>
		<path d="M7.143,4.427c-0.082,0-0.158-0.01-0.229-0.029c-0.07-0.021-0.132-0.051-0.186-0.093C6.676,4.263,6.635,4.21,6.604,4.146
			C6.575,4.081,6.56,4.005,6.56,3.917c0-0.097,0.018-0.177,0.052-0.24c0.034-0.062,0.078-0.113,0.133-0.15
			c0.054-0.037,0.115-0.065,0.185-0.084c0.07-0.02,0.14-0.034,0.211-0.045c0.07-0.011,0.14-0.021,0.208-0.026
			c0.068-0.007,0.129-0.017,0.183-0.03c0.053-0.013,0.095-0.032,0.126-0.058c0.03-0.025,0.045-0.062,0.043-0.111
			c0-0.048-0.009-0.088-0.025-0.119c-0.017-0.03-0.038-0.055-0.066-0.071C7.58,2.965,7.548,2.954,7.512,2.949
			C7.476,2.943,7.437,2.94,7.395,2.94C7.302,2.94,7.229,2.96,7.176,3S7.092,3.106,7.083,3.198h-0.47
			C6.619,3.091,6.647,3,6.695,2.926c0.049-0.074,0.11-0.133,0.186-0.178C6.956,2.704,7.04,2.673,7.133,2.654S7.32,2.626,7.417,2.626
			c0.087,0,0.174,0.006,0.262,0.019C7.768,2.656,7.848,2.68,7.921,2.716C7.993,2.751,8.053,2.801,8.1,2.864
			c0.046,0.064,0.069,0.146,0.069,0.248v0.891c0,0.077,0.004,0.151,0.013,0.222c0.01,0.071,0.024,0.124,0.047,0.159H7.752
			C7.743,4.357,7.735,4.33,7.73,4.303c-0.006-0.027-0.01-0.056-0.012-0.084C7.644,4.296,7.556,4.35,7.454,4.381
			C7.353,4.411,7.249,4.427,7.143,4.427z M7.318,4.115c0.093,0,0.164-0.015,0.215-0.046s0.088-0.068,0.112-0.111
			s0.039-0.086,0.045-0.13c0.006-0.045,0.009-0.08,0.009-0.106V3.546C7.679,3.563,7.654,3.578,7.626,3.588S7.565,3.605,7.53,3.612
			S7.458,3.625,7.421,3.629c-0.038,0.005-0.075,0.01-0.112,0.017C7.271,3.652,7.235,3.661,7.202,3.672
			C7.169,3.684,7.14,3.698,7.114,3.717S7.068,3.759,7.054,3.788C7.038,3.816,7.03,3.854,7.03,3.897s0.008,0.08,0.023,0.107
			c0.015,0.027,0.036,0.05,0.062,0.066s0.058,0.027,0.093,0.034S7.28,4.115,7.318,4.115z"/>
		<path d="M8.533,2.672h0.47v0.699l0.629-0.699h0.554L9.47,3.427l0.808,0.957H9.708L9.103,3.672l-0.1,0.109v0.603h-0.47V2.672z"/>
		<path d="M11.245,4.427c-0.131,0-0.249-0.021-0.354-0.064c-0.106-0.043-0.196-0.104-0.271-0.181s-0.134-0.169-0.176-0.276
			c-0.042-0.106-0.062-0.225-0.062-0.353c0-0.132,0.02-0.255,0.058-0.369c0.039-0.113,0.096-0.212,0.171-0.295
			c0.075-0.082,0.166-0.146,0.274-0.193c0.108-0.046,0.231-0.069,0.371-0.069c0.102,0,0.199,0.014,0.293,0.04
			s0.178,0.066,0.251,0.12c0.074,0.055,0.135,0.122,0.181,0.204c0.047,0.082,0.073,0.177,0.079,0.284h-0.46
			c-0.03-0.196-0.146-0.294-0.348-0.294c-0.075,0-0.138,0.017-0.188,0.051s-0.092,0.078-0.124,0.133
			c-0.032,0.054-0.055,0.114-0.067,0.181c-0.014,0.065-0.021,0.13-0.021,0.191s0.007,0.125,0.021,0.188
			c0.013,0.064,0.034,0.122,0.064,0.174c0.029,0.053,0.069,0.095,0.12,0.128s0.113,0.05,0.186,0.05c0.112,0,0.199-0.031,0.26-0.095
			c0.061-0.062,0.099-0.147,0.114-0.253h0.454c-0.031,0.228-0.119,0.4-0.266,0.52C11.658,4.367,11.472,4.427,11.245,4.427z"/>
		<path d="M12.334,2.672h0.45v1.159l0.646-1.159h0.533v1.712h-0.45V3.226l-0.646,1.158h-0.533V2.672z"/>
	</g>
	<g>
		<path d="M6.546,8.927c-0.25,0-0.472-0.043-0.667-0.129C5.683,8.713,5.518,8.595,5.383,8.444c-0.136-0.15-0.239-0.327-0.312-0.529
			C4.999,7.712,4.963,7.493,4.963,7.259c0-0.237,0.036-0.46,0.108-0.667c0.072-0.208,0.176-0.388,0.312-0.541
			c0.135-0.153,0.3-0.273,0.496-0.361c0.195-0.087,0.417-0.13,0.667-0.13c0.174,0,0.341,0.025,0.5,0.076s0.302,0.126,0.426,0.224
			c0.125,0.098,0.228,0.218,0.31,0.362c0.081,0.145,0.132,0.31,0.153,0.496H7.249C7.237,6.637,7.21,6.562,7.168,6.494
			C7.126,6.427,7.073,6.367,7.01,6.316C6.947,6.266,6.875,6.226,6.796,6.197c-0.08-0.028-0.163-0.043-0.25-0.043
			c-0.159,0-0.295,0.03-0.406,0.093C6.028,6.309,5.938,6.391,5.869,6.494C5.8,6.599,5.75,6.716,5.719,6.849
			C5.687,6.98,5.671,7.117,5.671,7.259c0,0.135,0.016,0.267,0.048,0.395C5.75,7.781,5.8,7.896,5.869,7.998S6.028,8.182,6.14,8.244
			c0.111,0.062,0.247,0.092,0.406,0.092c0.216,0,0.385-0.066,0.507-0.198s0.196-0.307,0.224-0.522h0.685
			c-0.018,0.204-0.064,0.387-0.14,0.547C7.746,8.323,7.647,8.461,7.523,8.575C7.4,8.689,7.256,8.776,7.091,8.837
			C6.926,8.896,6.744,8.927,6.546,8.927z"/>
		<path d="M9.607,6.23H8.643V5.636h2.637V6.23h-0.964v2.624H9.607V6.23z"/>
		<path d="M13.542,8.927c-0.25,0-0.472-0.043-0.667-0.129c-0.196-0.085-0.361-0.203-0.496-0.354
			c-0.136-0.15-0.239-0.327-0.312-0.529c-0.072-0.203-0.108-0.422-0.108-0.656c0-0.237,0.036-0.46,0.108-0.667
			c0.072-0.208,0.176-0.388,0.312-0.541c0.135-0.153,0.3-0.273,0.496-0.361c0.195-0.087,0.417-0.13,0.667-0.13
			c0.246,0,0.468,0.043,0.665,0.13c0.196,0.088,0.362,0.208,0.498,0.361c0.135,0.153,0.238,0.333,0.311,0.541
			c0.072,0.207,0.108,0.43,0.108,0.667c0,0.234-0.036,0.453-0.108,0.656c-0.072,0.202-0.176,0.379-0.311,0.529
			c-0.136,0.15-0.302,0.269-0.498,0.354C14.01,8.884,13.788,8.927,13.542,8.927z M13.542,8.336c0.159,0,0.294-0.03,0.405-0.092
			c0.111-0.062,0.201-0.144,0.271-0.246s0.119-0.217,0.151-0.345c0.031-0.128,0.047-0.26,0.047-0.395
			c0-0.142-0.016-0.278-0.047-0.41c-0.032-0.133-0.082-0.25-0.151-0.354c-0.069-0.104-0.159-0.186-0.271-0.247
			c-0.111-0.062-0.246-0.093-0.405-0.093s-0.295,0.03-0.406,0.093c-0.111,0.062-0.201,0.144-0.271,0.247
			c-0.069,0.104-0.119,0.222-0.15,0.354c-0.032,0.132-0.048,0.269-0.048,0.41c0,0.135,0.016,0.267,0.048,0.395
			c0.031,0.128,0.081,0.242,0.15,0.345s0.159,0.184,0.271,0.246C13.247,8.306,13.383,8.336,13.542,8.336z"/>
		<path d="M16.106,8.891c-0.111,0-0.213-0.019-0.307-0.054V8.26c0.013,0.006,0.029,0.01,0.052,0.014
			c0.023,0.003,0.042,0.004,0.057,0.004c0.114,0,0.208-0.037,0.282-0.112c0.073-0.075,0.131-0.192,0.171-0.352
			c0.041-0.159,0.068-0.365,0.084-0.618c0.015-0.252,0.022-0.556,0.022-0.91V5.636h2.321v3.219h-0.708V6.23h-0.942
			c-0.009,0.373-0.021,0.722-0.038,1.046c-0.017,0.325-0.057,0.606-0.119,0.846c-0.063,0.239-0.162,0.427-0.298,0.563
			C16.549,8.822,16.356,8.891,16.106,8.891z"/>
		<path d="M19.857,5.636h0.703v2.231h0.013L21.8,5.636h0.794v3.219H21.89V6.618h-0.013L20.65,8.854h-0.793V5.636z"/>
		<path d="M26.061,8.854h-2.394V5.636h0.707V8.26h1.263V5.636h0.708V8.26H26.7v1.329h-0.64V8.854z"/>
		<path d="M28.387,5.636h0.726l1.203,3.219h-0.734l-0.243-0.717h-1.204l-0.252,0.717h-0.713L28.387,5.636z M29.152,7.61
			l-0.405-1.182h-0.009l-0.42,1.182H29.152z"/>
	</g>
</g>
</svg>
