<?xml version="1.0" encoding="utf-8"?>
<!-- Generator: Adobe Illustrator 16.0.0, SVG Export Plug-In . SVG Version: 6.00 Build 0)  -->
<!DOCTYPE svg PUBLIC "-//W3C//DTD SVG 1.1//EN" "http://www.w3.org/Graphics/SVG/1.1/DTD/svg11.dtd">
<svg version="1.1" id="Layer_1" xmlns="http://www.w3.org/2000/svg" xmlns:xlink="http://www.w3.org/1999/xlink" x="0px" y="0px"
	 width="20.963px" height="28.677px" viewBox="0 0 20.963 28.677" enable-background="new 0 0 20.963 28.677" xml:space="preserve">
<polygon fill="#1467B1" points="20.963,0 0,8.621 0,28.677 20.963,20.056 "/>
<g>
	<defs>
		<rect id="SVGID_1_" width="20.963" height="28.677"/>
	</defs>
	<clipPath id="SVGID_2_">
		<use xlink:href="#SVGID_1_"  overflow="visible"/>
	</clipPath>
	<path clip-path="url(#SVGID_2_)" fill="#CFD600" d="M2.389,11.244c-0.083,0-0.135-0.002-0.151-0.002l0.043-1.067
		c0.041,0.002,3.361,0.115,7.394-2.938c4.335-3.28,9.421-3.498,9.636-3.505l0.038,1.066C19.3,4.8,14.378,5.018,10.319,8.089
		C6.373,11.075,3.196,11.244,2.389,11.244"/>
	<path clip-path="url(#SVGID_2_)" fill="#FFDA00" d="M1.762,25.387c-0.083,0-0.134-0.003-0.151-0.003l0.044-1.066
		c0.043,0.001,3.989,0.113,8.02-2.938c4.335-3.279,8.896-3.368,9.111-3.377l0.039,1.067c-0.051,0.002-4.447,0.091-8.506,3.162
		C6.373,25.217,2.569,25.387,1.762,25.387"/>
	<path clip-path="url(#SVGID_2_)" fill="#FFFFFF" d="M4.375,11.812v3.311c0,0.99,0.615,1.494,1.704,1.494
		c1.118,0,1.732-0.479,1.732-1.494v-3.311h2.124v3.226c0,1.775-1.467,2.62-3.926,2.62c-2.374,0-3.771-0.802-3.771-2.637v-3.209
		H4.375z"/>
	<path clip-path="url(#SVGID_2_)" fill="#FFFFFF" d="M18.693,17.402c-0.391,0.119-1.271,0.246-2.417,0.246
		c-3.255,0-4.931-1.236-4.931-2.876c0-1.961,2.291-3.055,5.141-3.055c1.104,0,1.941,0.137,2.319,0.256l-0.434,1.033
		c-0.433-0.111-1.033-0.213-1.788-0.213c-1.69,0-3.004,0.623-3.004,1.903c0,1.151,1.118,1.877,3.019,1.877
		c0.642,0,1.354-0.085,1.773-0.188L18.693,17.402z"/>
</g>
</svg>
